{"glyphs":{"0":{"ha":772,"x_min":54,"x_max":718,"o":"m 718 478 q 633 113 718 239 q 385 -14 549 -14 q 137 112 219 -14 q 54 478 54 238 q 135 847 54 724 q 389 969 215 969 q 638 846 557 969 q 718 478 718 722 m 594 478 q 547 778 594 685 q 389 871 499 871 q 227 779 276 871 q 178 478 178 688 q 228 181 178 275 q 386 86 278 86 q 544 183 493 86 q 594 478 594 279 z "},"1":{"ha":772,"x_min":106,"x_max":704,"o":"m 106 0 l 106 104 l 349 104 l 349 839 l 133 685 l 133 800 l 360 956 l 472 956 l 472 104 l 704 104 l 704 0 l 106 0 z "},"2":{"ha":772,"x_min":69,"x_max":703,"o":"m 69 0 l 69 86 q 154 226 104 165 q 259 336 204 288 q 367 427 314 385 q 465 511 421 469 q 535 599 508 553 q 561 704 561 646 q 515 826 561 782 q 388 869 469 869 q 259 827 310 869 q 200 708 208 785 l 75 719 q 172 902 89 835 q 388 969 256 969 q 610 901 532 969 q 688 708 688 833 q 662 598 688 653 q 586 488 636 543 q 394 318 536 433 q 270 203 317 254 q 204 104 224 151 l 703 104 l 703 0 l 69 0 z "},"3":{"ha":772,"x_min":53,"x_max":711,"o":"m 711 264 q 627 59 711 132 q 388 -14 543 -14 q 156 51 242 -14 q 53 246 69 117 l 179 257 q 388 88 203 88 q 532 133 479 88 q 585 268 585 178 q 524 390 585 346 q 351 433 464 433 l 282 433 l 282 539 l 349 539 q 504 583 449 539 q 560 704 560 626 q 515 825 560 781 q 381 869 469 869 q 250 828 300 869 q 192 711 200 786 l 69 721 q 166 904 82 839 q 382 969 250 969 q 605 903 525 969 q 685 717 685 836 q 633 568 685 625 q 485 490 582 511 l 485 488 q 651 416 592 476 q 711 264 711 356 z "},"4":{"ha":772,"x_min":31,"x_max":731,"o":"m 596 217 l 596 0 l 481 0 l 481 217 l 31 217 l 31 311 l 468 956 l 596 956 l 596 313 l 731 313 l 731 217 l 596 217 m 481 818 q 462 782 479 814 q 436 738 444 750 l 190 376 l 154 326 l 143 313 l 481 313 l 481 818 z "},"5":{"ha":772,"x_min":56,"x_max":714,"o":"m 714 311 q 624 73 714 160 q 375 -14 535 -14 q 160 44 242 -14 q 56 214 78 103 l 179 228 q 378 86 218 86 q 532 145 476 86 q 588 308 588 204 q 531 454 588 399 q 381 510 475 510 q 288 494 331 510 q 203 442 246 479 l 83 442 l 115 956 l 658 956 l 658 851 l 226 851 l 208 549 q 406 610 288 610 q 631 527 547 610 q 714 311 714 444 z "},"6":{"ha":772,"x_min":69,"x_max":710,"o":"m 710 313 q 628 74 710 161 q 401 -14 546 -14 q 155 106 240 -14 q 69 456 69 226 q 158 837 69 704 q 411 969 247 969 q 683 775 628 969 l 567 754 q 410 871 532 871 q 248 774 306 871 q 190 492 190 676 q 284 585 224 553 q 422 618 344 618 q 633 535 556 618 q 710 313 710 453 m 586 307 q 535 467 586 411 q 393 524 485 524 q 256 474 308 524 q 203 336 203 424 q 258 156 203 226 q 397 85 313 85 q 536 144 486 85 q 586 307 586 203 z "},"7":{"ha":772,"x_min":71,"x_max":703,"o":"m 703 857 q 495 506 556 633 q 405 256 435 379 q 375 0 375 132 l 247 0 q 325 385 247 183 q 585 851 403 588 l 71 851 l 71 956 l 703 956 l 703 857 z "},"8":{"ha":772,"x_min":60,"x_max":711,"o":"m 711 267 q 627 60 711 135 q 386 -14 543 -14 q 147 59 233 -14 q 60 265 60 132 q 113 422 60 358 q 250 500 167 486 l 250 503 q 127 582 172 521 q 82 725 82 643 q 164 902 82 835 q 383 969 246 969 q 606 903 524 969 q 688 724 688 838 q 642 581 688 642 q 518 504 597 519 l 518 501 q 660 424 610 486 q 711 267 711 361 m 561 717 q 383 879 561 879 q 252 838 297 879 q 207 717 207 797 q 253 592 207 635 q 385 549 300 549 q 516 588 471 549 q 561 717 561 628 m 585 278 q 532 412 585 367 q 383 457 479 457 q 238 408 290 457 q 186 275 186 360 q 388 78 186 78 q 536 126 488 78 q 585 278 585 174 z "},"9":{"ha":772,"x_min":64,"x_max":706,"o":"m 706 497 q 616 119 706 251 q 360 -14 526 -14 q 180 33 247 -14 q 83 186 113 81 l 200 204 q 361 85 238 85 q 524 183 467 85 q 585 461 582 281 q 492 363 557 400 q 347 326 426 326 q 141 415 218 326 q 64 649 64 503 q 148 884 64 799 q 382 969 232 969 q 624 851 542 969 q 706 497 706 733 m 572 615 q 519 801 572 731 q 378 871 467 871 q 239 811 290 871 q 188 649 188 751 q 239 483 188 544 q 376 422 290 422 q 475 447 429 422 q 547 515 521 471 q 572 615 572 558 z "}," ":{"ha":442,"x_min":0,"x_max":0,"o":""},"!":{"ha":385,"x_min":125,"x_max":260,"o":"m 243 269 l 143 269 l 126 956 l 260 956 l 243 269 m 125 0 l 125 136 l 257 136 l 257 0 l 125 0 z "},"\"":{"ha":492,"x_min":58,"x_max":433,"o":"m 418 656 l 322 656 l 308 956 l 433 956 l 418 656 m 168 656 l 72 656 l 58 956 l 183 956 l 168 656 z "},"#":{"ha":772,"x_min":6,"x_max":765,"o":"m 607 600 l 554 350 l 731 350 l 731 276 l 539 276 l 479 0 l 404 0 l 463 276 l 217 276 l 160 0 l 85 0 l 142 276 l 6 276 l 6 350 l 158 350 l 211 600 l 40 600 l 40 674 l 226 674 l 286 950 l 361 950 l 301 674 l 547 674 l 607 950 l 682 950 l 622 674 l 765 674 l 765 600 l 607 600 m 288 600 l 233 350 l 479 350 l 532 600 l 288 600 z "},"$":{"ha":772,"x_min":14,"x_max":749,"o":"m 350 14 q 14 257 61 26 l 129 282 q 200 160 146 201 q 350 114 254 119 l 350 450 q 185 504 231 481 q 110 558 139 528 q 69 624 82 589 q 57 710 57 660 q 133 874 57 814 q 350 939 210 933 l 350 1028 l 435 1028 l 435 939 q 631 882 561 933 q 728 722 700 831 l 610 700 q 555 799 596 764 q 435 842 514 835 l 435 540 q 607 488 556 513 q 688 435 658 464 q 733 365 718 406 q 749 268 749 324 q 667 89 749 157 q 435 14 585 21 l 435 -96 l 350 -96 l 350 14 m 632 267 q 615 340 632 311 q 564 387 597 368 q 435 431 531 406 l 435 114 q 581 159 531 119 q 632 267 632 199 m 174 711 q 191 643 174 671 q 242 597 208 615 q 350 558 275 578 l 350 843 q 174 711 174 835 z "},"%":{"ha":1235,"x_min":49,"x_max":1185,"o":"m 1185 294 q 1130 70 1185 149 q 968 -8 1075 -8 q 808 68 861 -8 q 754 294 754 144 q 806 524 754 449 q 971 600 858 600 q 1133 522 1082 600 q 1185 294 1185 444 m 357 0 l 251 0 l 876 956 l 983 956 l 357 0 m 267 964 q 426 888 374 964 q 479 661 479 811 q 425 435 479 514 q 264 356 371 356 q 103 434 157 356 q 49 661 49 513 q 101 888 49 813 q 267 964 153 964 m 1085 294 q 1058 470 1085 415 q 971 525 1032 525 q 881 472 908 525 q 854 294 854 418 q 881 122 854 178 q 969 67 907 67 q 1057 123 1029 67 q 1085 294 1085 179 m 379 661 q 353 835 379 781 q 267 890 328 890 q 176 836 203 890 q 149 661 149 782 q 176 488 149 544 q 265 432 203 432 q 351 489 324 432 q 379 661 379 546 z "},"&":{"ha":925,"x_min":49,"x_max":904,"o":"m 808 -8 q 607 78 689 -8 q 490 10 556 33 q 354 -14 425 -14 q 128 56 208 -14 q 49 251 49 126 q 281 543 49 440 q 242 642 258 585 q 226 747 226 700 q 288 905 226 849 q 464 961 350 961 q 629 910 567 961 q 692 768 692 858 q 630 626 692 689 q 415 503 568 564 q 614 224 490 364 q 729 501 690 336 l 828 472 q 685 154 785 303 q 825 88 749 88 q 904 99 874 88 l 904 7 q 808 -8 867 -8 m 589 768 q 555 848 589 817 q 463 879 521 879 q 364 844 397 879 q 331 747 331 810 q 374 582 331 669 q 504 644 463 618 q 567 701 546 671 q 589 768 589 732 m 539 147 q 322 457 404 306 q 163 253 163 389 q 215 123 163 171 q 358 75 268 75 q 455 94 407 75 q 539 147 503 113 z "},"'":{"ha":264,"x_min":69,"x_max":194,"o":"m 179 656 l 83 656 l 69 956 l 194 956 l 179 656 z "},"(":{"ha":463,"x_min":86,"x_max":454,"o":"m 86 361 q 147 713 86 557 q 336 1007 208 868 l 454 1007 q 268 707 328 865 q 208 360 208 549 q 267 14 208 172 q 454 -287 326 -144 l 336 -287 q 147 8 208 -149 q 86 358 86 164 l 86 361 z "},")":{"ha":463,"x_min":7,"x_max":375,"o":"m 375 358 q 314 6 375 163 q 125 -287 253 -150 l 7 -287 q 194 13 135 -144 q 253 360 253 171 q 193 707 253 549 q 7 1007 133 865 l 125 1007 q 314 712 253 868 q 375 361 375 556 l 375 358 z "},"*":{"ha":540,"x_min":22,"x_max":518,"o":"m 310 756 l 488 825 l 518 736 l 328 686 l 453 517 l 372 468 l 271 643 l 165 469 l 83 518 l 213 686 l 22 736 l 53 826 l 233 754 l 225 956 l 318 956 l 310 756 z "},"+":{"ha":810,"x_min":67,"x_max":742,"o":"m 454 413 l 454 122 l 354 122 l 354 413 l 67 413 l 67 511 l 354 511 l 354 801 l 454 801 l 454 511 l 742 511 l 742 413 l 454 413 z "},",":{"ha":385,"x_min":124,"x_max":260,"o":"m 260 149 l 260 35 q 247 -85 260 -37 q 207 -178 235 -133 l 124 -178 q 188 0 188 -86 l 128 0 l 128 149 l 260 149 z "},"-":{"ha":463,"x_min":61,"x_max":400,"o":"m 61 315 l 61 424 l 400 424 l 400 315 l 61 315 z "},".":{"ha":385,"x_min":126,"x_max":258,"o":"m 126 0 l 126 149 l 258 149 l 258 0 l 126 0 z "},"/":{"ha":385,"x_min":0,"x_max":386,"o":"m 0 -14 l 279 1007 l 386 1007 l 110 -14 l 0 -14 z "},":":{"ha":385,"x_min":126,"x_max":258,"o":"m 126 593 l 126 733 l 258 733 l 258 593 l 126 593 m 126 0 l 126 140 l 258 140 l 258 0 l 126 0 z "},";":{"ha":385,"x_min":124,"x_max":260,"o":"m 260 140 l 260 35 q 257 -31 260 -1 q 247 -85 254 -60 q 231 -133 240 -111 q 207 -178 221 -156 l 124 -178 q 171 -89 154 -133 q 188 0 188 -44 l 128 0 l 128 140 l 260 140 m 128 593 l 128 733 l 260 733 l 260 593 l 128 593 z "},"<":{"ha":810,"x_min":68,"x_max":743,"o":"m 68 388 l 68 526 l 743 810 l 743 706 l 161 457 l 743 208 l 743 104 l 68 388 z "},"=":{"ha":810,"x_min":67,"x_max":742,"o":"m 67 581 l 67 681 l 742 681 l 742 581 l 67 581 m 67 233 l 67 333 l 742 333 l 742 233 l 67 233 z "},">":{"ha":810,"x_min":68,"x_max":743,"o":"m 68 104 l 68 208 l 650 457 l 68 706 l 68 810 l 743 526 l 743 388 l 68 104 z "},"?":{"ha":772,"x_min":57,"x_max":721,"o":"m 721 700 q 706 609 721 649 q 664 535 692 569 q 572 456 636 501 l 518 415 q 446 340 469 379 q 421 256 422 301 l 303 256 q 317 338 304 303 q 351 401 331 374 q 399 449 372 428 q 452 489 425 469 q 506 528 479 508 q 552 571 532 547 q 585 624 572 594 q 597 694 597 654 q 544 817 597 772 q 397 861 492 861 q 247 814 303 861 q 182 683 192 767 l 57 692 q 163 898 75 826 q 396 969 251 969 q 634 898 547 969 q 721 700 721 826 m 297 0 l 297 136 l 429 136 l 429 0 l 297 0 z "},"@":{"ha":1410,"x_min":108,"x_max":1289,"o":"m 1289 513 q 1250 284 1289 386 q 1142 126 1211 182 q 986 71 1072 71 q 882 101 918 71 q 846 190 846 131 l 847 238 l 843 238 q 733 113 799 154 q 590 71 667 71 q 425 140 483 71 q 367 332 367 208 q 410 539 367 443 q 533 691 454 635 q 707 747 611 747 q 911 624 856 747 l 915 624 l 942 732 l 1047 732 l 968 389 q 943 217 943 278 q 999 153 943 153 q 1099 200 1053 153 q 1171 329 1144 247 q 1197 511 1197 411 q 1144 726 1197 632 q 994 870 1092 819 q 764 921 896 921 q 474 849 600 921 q 276 640 347 776 q 204 333 204 503 q 258 102 204 203 q 412 -52 311 1 q 646 -106 513 -106 q 846 -80 744 -106 q 1056 4 947 -54 l 1092 -71 q 879 -161 994 -131 q 646 -192 764 -192 q 360 -127 483 -192 q 173 57 238 -62 q 108 333 108 176 q 193 678 108 522 q 427 920 278 833 q 763 1007 576 1007 q 1045 945 926 1007 q 1226 772 1164 883 q 1289 513 1289 660 m 878 507 q 833 619 878 576 q 714 661 789 661 q 592 618 646 661 q 508 499 539 575 q 478 333 478 422 q 510 206 478 251 q 610 160 543 160 q 765 231 694 160 q 863 408 835 301 q 878 507 878 471 z "},"A":{"ha":925,"x_min":1,"x_max":922,"o":"m 790 0 l 681 279 l 246 279 l 136 0 l 1 0 l 392 956 l 539 956 l 922 0 l 790 0 m 464 858 l 457 839 q 407 694 440 782 l 285 381 l 642 381 l 519 696 q 482 801 500 743 l 464 858 z "},"B":{"ha":925,"x_min":114,"x_max":853,"o":"m 853 269 q 760 71 853 142 q 501 0 667 0 l 114 0 l 114 956 l 461 956 q 797 724 797 956 q 750 581 797 639 q 615 504 703 524 q 791 428 729 490 q 853 269 853 365 m 667 708 q 614 818 667 785 q 461 851 561 851 l 243 851 l 243 550 l 461 550 q 616 589 565 550 q 667 708 667 628 m 722 279 q 485 449 722 449 l 243 449 l 243 104 l 494 104 q 668 148 614 104 q 722 279 722 192 z "},"C":{"ha":1003,"x_min":69,"x_max":949,"o":"m 536 864 q 290 762 378 864 q 201 482 201 660 q 293 200 201 307 q 542 93 385 93 q 843 292 742 93 l 949 239 q 783 51 890 115 q 535 -14 676 -14 q 285 47 390 -14 q 125 218 181 107 q 69 482 69 329 q 193 840 69 711 q 535 969 317 969 q 790 910 688 969 q 940 733 892 850 l 818 693 q 711 820 785 776 q 536 864 638 864 z "},"D":{"ha":1003,"x_min":114,"x_max":936,"o":"m 936 488 q 878 229 936 340 q 715 59 821 118 q 471 0 610 0 l 114 0 l 114 956 l 431 956 q 804 834 672 956 q 936 488 936 713 m 807 488 q 709 758 807 665 q 428 851 611 851 l 243 851 l 243 104 l 457 104 q 641 150 561 104 q 764 283 721 196 q 807 488 807 369 z "},"E":{"ha":925,"x_min":114,"x_max":867,"o":"m 114 0 l 114 956 l 839 956 l 839 850 l 243 850 l 243 543 l 799 543 l 799 439 l 243 439 l 243 106 l 867 106 l 867 0 l 114 0 z "},"F":{"ha":847,"x_min":114,"x_max":793,"o":"m 243 850 l 243 494 l 776 494 l 776 388 l 243 388 l 243 0 l 114 0 l 114 956 l 793 956 l 793 850 l 243 850 z "},"G":{"ha":1079,"x_min":69,"x_max":976,"o":"m 69 482 q 194 842 69 715 q 544 969 319 969 q 803 916 704 969 q 956 744 901 863 l 832 708 q 720 826 792 789 q 542 864 649 864 q 289 764 376 864 q 201 482 201 664 q 294 197 201 301 q 551 92 388 92 q 726 120 644 92 q 857 197 807 149 l 857 369 l 571 369 l 571 478 l 976 478 l 976 149 q 790 28 900 71 q 551 -14 679 -14 q 293 46 401 -14 q 127 218 185 106 q 69 482 69 331 z "},"H":{"ha":1003,"x_min":114,"x_max":890,"o":"m 760 0 l 760 443 l 243 443 l 243 0 l 114 0 l 114 956 l 243 956 l 243 551 l 760 551 l 760 956 l 890 956 l 890 0 l 760 0 z "},"I":{"ha":385,"x_min":128,"x_max":257,"o":"m 128 0 l 128 956 l 257 956 l 257 0 l 128 0 z "},"J":{"ha":694,"x_min":21,"x_max":590,"o":"m 310 -14 q 21 238 67 -14 l 147 258 q 203 135 160 179 q 310 92 246 92 q 421 140 381 92 q 461 282 461 189 l 461 850 l 278 850 l 278 956 l 590 956 l 590 285 q 515 66 590 146 q 310 -14 440 -14 z "},"K":{"ha":925,"x_min":114,"x_max":911,"o":"m 750 0 l 368 461 l 243 367 l 243 0 l 114 0 l 114 956 l 243 956 l 243 476 l 704 956 l 857 956 l 450 540 l 911 0 l 750 0 z "},"L":{"ha":772,"x_min":114,"x_max":726,"o":"m 114 0 l 114 956 l 243 956 l 243 106 l 726 106 l 726 0 l 114 0 z "},"M":{"ha":1157,"x_min":114,"x_max":1043,"o":"m 926 0 l 926 638 q 932 840 926 743 q 872 651 899 719 l 626 0 l 535 0 l 285 651 l 247 767 l 225 840 l 226 765 l 229 638 l 229 0 l 114 0 l 114 956 l 285 956 l 539 293 q 564 207 551 253 q 581 142 576 161 q 603 224 586 168 q 628 293 621 279 l 876 956 l 1043 956 l 1043 0 l 926 0 z "},"N":{"ha":1003,"x_min":114,"x_max":890,"o":"m 733 0 l 222 814 l 226 749 l 229 635 l 229 0 l 114 0 l 114 956 l 264 956 l 781 136 q 774 329 774 269 l 774 956 l 890 956 l 890 0 l 733 0 z "},"O":{"ha":1079,"x_min":65,"x_max":1014,"o":"m 1014 482 q 956 219 1014 332 q 792 47 899 107 q 539 -14 685 -14 q 285 46 392 -14 q 122 219 178 106 q 65 482 65 332 q 191 840 65 711 q 540 969 317 969 q 793 912 686 969 q 957 744 900 854 q 1014 482 1014 633 m 881 482 q 792 763 881 661 q 540 864 703 864 q 287 764 376 864 q 197 482 197 664 q 288 197 197 303 q 539 92 378 92 q 792 194 704 92 q 881 482 881 296 z "},"P":{"ha":925,"x_min":114,"x_max":853,"o":"m 853 668 q 765 452 853 532 q 524 372 676 372 l 243 372 l 243 0 l 114 0 l 114 956 l 517 956 q 765 881 676 956 q 853 668 853 806 m 722 667 q 500 851 722 851 l 243 851 l 243 475 l 506 475 q 722 667 722 475 z "},"Q":{"ha":1079,"x_min":65,"x_max":1014,"o":"m 1014 482 q 912 150 1014 281 q 629 -4 810 19 q 702 -127 657 -89 q 817 -165 747 -165 q 894 -157 853 -165 l 894 -247 q 774 -262 831 -262 q 605 -204 671 -262 q 497 -11 539 -146 q 265 57 363 -4 q 117 228 168 118 q 65 482 65 338 q 191 840 65 711 q 540 969 317 969 q 793 912 686 969 q 957 744 900 854 q 1014 482 1014 633 m 881 482 q 792 763 881 661 q 540 864 703 864 q 287 764 376 864 q 197 482 197 664 q 288 197 197 303 q 539 92 378 92 q 792 194 704 92 q 881 482 881 296 z "},"R":{"ha":1003,"x_min":114,"x_max":939,"o":"m 789 0 l 542 397 l 243 397 l 243 0 l 114 0 l 114 956 l 564 956 q 813 883 725 956 q 900 682 900 811 q 838 503 900 576 q 667 411 776 431 l 939 0 l 789 0 m 771 681 q 714 808 771 764 q 550 851 657 851 l 243 851 l 243 499 l 556 499 q 715 547 658 499 q 771 681 771 594 z "},"S":{"ha":925,"x_min":63,"x_max":863,"o":"m 863 264 q 759 59 863 132 q 468 -14 656 -14 q 63 229 118 -14 l 188 254 q 281 128 210 168 q 472 88 351 88 q 665 131 597 88 q 733 257 733 174 q 713 333 733 304 q 653 381 692 363 q 560 413 614 400 q 442 440 507 426 q 269 491 328 465 q 177 547 211 517 q 125 619 143 578 q 107 714 107 661 q 201 903 107 838 q 469 969 294 969 q 719 919 633 969 q 840 750 806 869 l 713 728 q 633 838 692 804 q 468 872 574 872 q 294 834 354 872 q 233 721 233 796 q 257 648 233 676 q 324 599 281 619 q 500 550 368 579 q 588 530 544 540 q 672 505 632 519 q 747 470 711 490 q 808 422 782 450 q 848 355 833 393 q 863 264 863 317 z "},"T":{"ha":847,"x_min":31,"x_max":815,"o":"m 488 850 l 488 0 l 358 0 l 358 850 l 31 850 l 31 956 l 815 956 l 815 850 l 488 850 z "},"U":{"ha":1003,"x_min":107,"x_max":896,"o":"m 496 -14 q 290 29 378 -14 q 155 153 203 72 q 107 347 107 235 l 107 956 l 236 956 l 236 358 q 303 160 236 228 q 494 92 369 92 q 695 162 624 92 q 767 367 767 232 l 767 956 l 896 956 l 896 360 q 847 159 896 243 q 708 31 797 75 q 496 -14 618 -14 z "},"V":{"ha":925,"x_min":6,"x_max":919,"o":"m 529 0 l 396 0 l 6 956 l 142 956 l 407 283 l 464 114 l 521 283 l 783 956 l 919 956 l 529 0 z "},"W":{"ha":1310,"x_min":6,"x_max":1306,"o":"m 1024 0 l 869 0 l 704 607 q 657 811 688 664 q 626 679 639 732 q 442 0 614 626 l 288 0 l 6 956 l 140 956 l 313 349 q 368 114 343 235 q 406 277 385 189 q 594 956 428 365 l 718 956 l 885 361 q 944 114 922 215 l 950 138 q 980 265 968 215 q 1171 956 992 314 l 1306 956 l 1024 0 z "},"X":{"ha":925,"x_min":31,"x_max":897,"o":"m 754 0 l 467 418 l 174 0 l 31 0 l 394 496 l 58 956 l 201 956 l 467 581 l 725 956 l 869 956 l 542 501 l 897 0 l 754 0 z "},"Y":{"ha":925,"x_min":29,"x_max":894,"o":"m 525 396 l 525 0 l 397 0 l 397 396 l 29 956 l 172 956 l 463 500 l 753 956 l 894 956 l 525 396 z "},"Z":{"ha":847,"x_min":43,"x_max":804,"o":"m 804 0 l 43 0 l 43 97 l 625 850 l 93 850 l 93 956 l 772 956 l 772 861 l 190 106 l 804 106 l 804 0 z "},"[":{"ha":385,"x_min":99,"x_max":375,"o":"m 99 -289 l 99 1007 l 375 1007 l 375 919 l 217 919 l 217 -201 l 375 -201 l 375 -289 l 99 -289 z "},"\\":{"ha":385,"x_min":0,"x_max":386,"o":"m 276 -14 l 0 1007 l 107 1007 l 386 -14 l 276 -14 z "},"]":{"ha":385,"x_min":10,"x_max":286,"o":"m 10 -289 l 10 -201 l 168 -201 l 168 919 l 10 919 l 10 1007 l 286 1007 l 286 -289 l 10 -289 z "},"^":{"ha":651,"x_min":6,"x_max":643,"o":"m 532 457 l 324 886 l 115 457 l 6 457 l 256 956 l 393 956 l 643 457 l 532 457 z "},"_":{"ha":772,"x_min":-21,"x_max":789,"o":"m -21 -276 l -21 -187 l 789 -187 l 789 -276 l -21 -276 z "},"`":{"ha":463,"x_min":71,"x_max":358,"o":"m 294 814 l 71 1003 l 71 1022 l 211 1022 l 358 828 l 358 814 l 294 814 z "},"a":{"ha":772,"x_min":58,"x_max":772,"o":"m 281 -14 q 114 44 169 -14 q 58 204 58 103 q 133 379 58 318 q 375 444 208 440 l 540 447 l 540 488 q 502 616 540 578 q 382 654 464 654 q 263 626 300 654 q 218 538 226 599 l 90 550 q 385 747 122 747 q 594 684 524 747 q 664 500 664 621 l 664 185 q 678 103 664 131 q 732 75 692 75 q 772 81 750 75 l 772 4 q 678 -7 725 -7 q 579 28 610 -7 q 544 140 549 64 l 540 140 q 431 22 493 57 q 281 -14 369 -14 m 308 78 q 427 108 375 78 q 510 192 479 139 q 540 301 540 246 l 540 363 l 406 360 q 276 342 319 358 q 208 292 232 325 q 183 203 183 258 q 216 110 183 143 q 308 78 249 78 z "},"b":{"ha":772,"x_min":89,"x_max":714,"o":"m 714 371 q 443 -14 714 -14 q 305 17 360 -14 q 215 114 250 47 l 214 114 q 211 50 214 93 q 207 0 208 7 l 89 0 q 93 151 93 36 l 93 1007 l 215 1007 l 215 719 q 213 615 215 675 l 215 615 q 305 717 249 686 q 443 747 361 747 q 648 653 582 747 q 714 371 714 560 m 585 367 q 544 587 585 521 q 413 653 504 653 q 263 583 310 653 q 215 358 215 513 q 261 145 215 214 q 411 76 307 76 q 544 144 503 76 q 585 367 585 213 z "},"c":{"ha":694,"x_min":58,"x_max":657,"o":"m 186 371 q 232 153 186 224 q 371 83 278 83 q 480 118 436 83 q 533 226 524 153 l 657 218 q 567 49 643 113 q 375 -14 492 -14 q 140 83 221 -14 q 58 368 58 181 q 140 650 58 553 q 374 747 221 747 q 560 689 486 747 q 653 528 635 631 l 528 519 q 479 615 518 579 q 369 651 440 651 q 229 587 272 651 q 186 371 186 522 z "},"d":{"ha":772,"x_min":57,"x_max":682,"o":"m 556 118 q 465 17 521 47 q 326 -14 410 -14 q 122 80 188 -14 q 57 364 57 174 q 326 747 57 747 q 465 717 410 747 q 556 619 521 686 l 557 619 l 556 701 l 556 1007 l 678 1007 l 678 151 q 682 0 678 36 l 565 0 q 560 50 563 11 q 558 118 558 89 l 556 118 m 185 368 q 226 147 185 214 q 358 81 267 81 q 509 153 463 81 q 556 376 556 225 q 509 589 556 521 q 360 657 463 657 q 226 589 267 657 q 185 368 185 521 z "},"e":{"ha":772,"x_min":58,"x_max":710,"o":"m 186 342 q 238 147 186 215 q 392 78 290 78 q 519 110 471 78 q 583 190 567 142 l 690 160 q 392 -14 625 -14 q 144 83 229 -14 q 58 372 58 181 q 144 650 58 553 q 386 747 229 747 q 710 357 710 747 l 710 342 l 186 342 m 583 435 q 525 603 574 550 q 385 657 476 657 q 244 598 296 657 q 188 435 192 539 l 583 435 z "},"f":{"ha":385,"x_min":19,"x_max":388,"o":"m 244 644 l 244 0 l 122 0 l 122 644 l 19 644 l 19 733 l 122 733 l 122 817 q 167 961 122 917 q 301 1006 211 1006 q 388 997 353 1006 l 388 904 q 333 910 357 910 q 265 886 286 910 q 244 800 244 863 l 244 733 l 388 733 l 388 644 l 244 644 z "},"g":{"ha":772,"x_min":57,"x_max":682,"o":"m 371 -289 q 179 -242 250 -289 q 88 -107 108 -194 l 210 -89 q 264 -168 222 -140 q 374 -196 306 -196 q 556 18 556 -196 l 556 136 l 554 136 q 460 30 519 65 q 318 -6 400 -6 q 120 84 183 -6 q 57 365 57 174 q 125 653 57 560 q 332 746 193 746 q 467 710 410 746 q 556 608 525 674 l 557 608 q 560 679 557 629 q 565 733 563 729 l 682 733 q 678 582 678 697 l 678 21 q 371 -289 678 -289 m 556 367 q 531 522 556 457 q 463 620 507 586 q 363 654 418 654 q 226 587 268 654 q 183 367 183 519 q 223 151 183 217 q 360 85 263 85 q 463 119 418 85 q 531 216 507 153 q 556 367 556 279 z "},"h":{"ha":772,"x_min":96,"x_max":682,"o":"m 214 608 q 309 714 254 681 q 449 747 364 747 q 625 688 568 747 q 682 489 682 629 l 682 0 l 558 0 l 558 465 q 544 581 558 543 q 498 635 531 618 q 408 653 465 653 q 270 593 322 653 q 218 433 218 533 l 218 0 l 96 0 l 96 1007 l 218 1007 l 218 744 q 215 659 218 703 q 213 608 213 615 l 214 608 z "},"i":{"ha":308,"x_min":92,"x_max":214,"o":"m 92 890 l 92 1007 l 214 1007 l 214 890 l 92 890 m 92 0 l 92 733 l 214 733 l 214 0 l 92 0 z "},"j":{"ha":308,"x_min":-33,"x_max":215,"o":"m 93 890 l 93 1007 l 215 1007 l 215 890 l 93 890 m 215 -90 q 175 -242 215 -194 q 53 -289 135 -289 q -33 -282 0 -289 l -33 -187 l 8 -192 q 74 -167 56 -192 q 93 -72 93 -143 l 93 733 l 215 733 l 215 -90 z "},"k":{"ha":694,"x_min":93,"x_max":696,"o":"m 553 0 l 304 335 l 215 261 l 215 0 l 93 0 l 93 1007 l 215 1007 l 215 378 l 538 733 l 681 733 l 382 418 l 696 0 l 553 0 z "},"l":{"ha":308,"x_min":93,"x_max":215,"o":"m 93 0 l 93 1007 l 215 1007 l 215 0 l 93 0 z "},"m":{"ha":1157,"x_min":92,"x_max":1065,"o":"m 521 0 l 521 465 q 492 613 521 572 q 386 653 463 653 q 263 593 308 653 q 217 425 217 533 l 217 0 l 96 0 l 96 578 q 92 733 96 706 l 207 733 q 208 715 207 731 q 210 681 208 700 q 213 608 211 663 l 214 608 q 305 717 254 686 q 429 747 356 747 q 561 714 513 747 q 628 608 610 681 l 631 608 q 722 715 668 682 q 853 747 776 747 q 1015 687 964 747 q 1065 489 1065 626 l 1065 0 l 944 0 l 944 465 q 915 613 944 572 q 810 653 886 653 q 685 594 729 653 q 642 425 642 535 l 642 0 l 521 0 z "},"n":{"ha":772,"x_min":92,"x_max":682,"o":"m 558 0 l 558 465 q 544 578 558 538 q 499 635 531 618 q 408 653 468 653 q 269 592 319 653 q 218 425 218 532 l 218 0 l 96 0 l 96 578 q 92 733 96 706 l 207 733 q 208 715 207 731 q 210 681 208 700 q 213 608 211 663 l 214 608 q 312 716 257 685 q 449 747 367 747 q 626 688 569 747 q 682 489 682 628 l 682 0 l 558 0 z "},"o":{"ha":772,"x_min":57,"x_max":713,"o":"m 713 368 q 628 81 713 175 q 382 -14 543 -14 q 139 84 221 -14 q 57 368 57 182 q 386 747 57 747 q 633 655 554 747 q 713 368 713 563 m 585 368 q 540 588 585 519 q 388 657 494 657 q 233 587 281 657 q 185 368 185 517 q 232 149 185 222 q 381 76 279 76 q 538 147 490 76 q 585 368 585 218 z "},"p":{"ha":772,"x_min":89,"x_max":714,"o":"m 714 371 q 443 -14 714 -14 q 215 114 274 -14 l 213 114 q 215 -1 215 108 l 215 -289 l 93 -289 l 93 583 q 89 733 93 697 l 207 733 q 208 714 207 731 q 212 663 210 697 q 214 615 214 629 l 217 615 q 302 715 249 683 q 443 747 356 747 q 647 656 579 747 q 714 371 714 565 m 585 368 q 544 587 585 521 q 413 653 503 653 q 299 622 340 653 q 237 527 258 592 q 215 358 215 463 q 261 145 215 214 q 411 76 307 76 q 543 143 501 76 q 585 368 585 210 z "},"q":{"ha":772,"x_min":57,"x_max":682,"o":"m 326 -14 q 122 81 188 -14 q 57 364 57 175 q 326 747 57 747 q 465 718 410 747 q 556 619 519 689 l 557 619 q 560 690 557 640 q 565 743 563 740 l 682 743 q 678 543 678 703 l 678 -289 l 556 -289 l 556 10 l 558 121 l 557 121 q 466 17 519 49 q 326 -14 413 -14 m 556 376 q 509 588 556 519 q 360 657 463 657 q 226 588 267 657 q 185 368 185 519 q 226 147 185 214 q 358 81 267 81 q 509 155 463 81 q 556 376 556 229 z "},"r":{"ha":463,"x_min":92,"x_max":439,"o":"m 96 0 l 96 563 q 92 733 96 640 l 207 733 q 213 583 213 608 l 215 583 q 283 713 244 678 q 389 747 321 747 q 439 740 414 747 l 439 629 q 374 636 414 636 q 258 570 297 636 q 218 382 218 504 l 218 0 l 96 0 z "},"s":{"ha":694,"x_min":38,"x_max":643,"o":"m 643 203 q 565 42 643 99 q 346 -14 486 -14 q 134 31 208 -14 q 38 172 60 76 l 146 193 q 210 107 161 135 q 346 79 258 79 q 482 108 439 79 q 525 193 525 136 q 495 263 525 236 q 399 308 465 290 l 311 332 q 161 385 206 358 q 92 449 117 411 q 67 540 67 486 q 138 693 67 640 q 347 746 210 746 q 540 703 468 746 q 631 565 611 660 l 521 551 q 465 627 510 601 q 347 653 421 653 q 224 628 264 653 q 185 551 185 603 q 201 501 185 521 q 250 466 218 481 q 385 426 282 451 q 524 382 481 403 q 592 336 567 361 q 630 278 617 311 q 643 203 643 244 z "},"t":{"ha":385,"x_min":21,"x_max":375,"o":"m 375 6 q 253 -11 315 -11 q 106 156 106 -11 l 106 644 l 21 644 l 21 733 l 110 733 l 146 897 l 228 897 l 228 733 l 364 733 l 364 644 l 228 644 l 228 182 q 245 108 228 129 q 306 86 263 86 q 375 96 329 86 l 375 6 z "},"u":{"ha":772,"x_min":89,"x_max":679,"o":"m 211 733 l 211 268 q 226 156 211 196 q 272 98 240 115 q 363 81 303 81 q 502 141 451 81 q 553 308 553 201 l 553 733 l 675 733 l 675 157 q 679 0 675 29 l 564 0 q 562 18 563 3 q 560 53 561 33 q 558 125 560 72 l 556 125 q 459 18 514 50 q 321 -14 404 -14 q 145 47 201 -14 q 89 244 89 107 l 89 733 l 211 733 z "},"v":{"ha":694,"x_min":4,"x_max":689,"o":"m 415 0 l 271 0 l 4 733 l 135 733 l 296 257 q 343 96 304 229 l 367 175 l 393 256 l 560 733 l 689 733 l 415 0 z "},"w":{"ha":1003,"x_min":-1,"x_max":1007,"o":"m 797 0 l 656 0 l 526 519 l 503 633 q 483 546 496 603 q 346 0 471 489 l 204 0 l -1 733 l 119 733 l 243 235 q 272 101 249 219 l 285 151 l 438 733 l 568 733 l 696 231 l 728 101 l 749 196 l 888 733 l 1007 733 l 797 0 z "},"x":{"ha":694,"x_min":15,"x_max":679,"o":"m 543 0 l 346 301 l 147 0 l 15 0 l 276 376 l 28 733 l 163 733 l 346 449 l 528 733 l 664 733 l 415 378 l 679 0 l 543 0 z "},"y":{"ha":694,"x_min":3,"x_max":692,"o":"m 129 -289 q 44 -281 79 -289 l 44 -189 q 101 -193 71 -193 q 282 -26 215 -193 l 293 3 l 3 733 l 133 733 l 288 328 q 296 305 292 318 q 326 217 300 292 q 354 133 351 142 l 401 267 l 563 733 l 692 733 l 408 0 q 324 -174 364 -117 q 237 -260 285 -232 q 129 -289 189 -289 z "},"z":{"ha":694,"x_min":56,"x_max":625,"o":"m 56 0 l 56 93 l 465 639 l 79 639 l 79 733 l 610 733 l 610 640 l 200 94 l 625 94 l 625 0 l 56 0 z "},"{":{"ha":463,"x_min":22,"x_max":439,"o":"m 347 -289 q 215 -236 261 -289 q 168 -89 168 -183 l 168 156 q 133 274 168 235 q 22 317 97 313 l 22 403 q 132 444 96 406 q 168 563 168 483 l 168 808 q 213 955 168 903 q 347 1007 258 1007 l 439 1007 l 439 919 l 396 919 q 308 883 335 919 q 282 774 282 846 l 282 532 q 246 422 282 468 q 150 361 210 375 l 150 360 q 247 299 211 346 q 282 188 282 253 l 282 -56 q 308 -164 282 -126 q 396 -201 335 -201 l 439 -201 l 439 -289 l 347 -289 z "},"|":{"ha":360,"x_min":124,"x_max":236,"o":"m 124 -294 l 124 1007 l 236 1007 l 236 -294 l 124 -294 z "},"}":{"ha":463,"x_min":22,"x_max":438,"o":"m 63 -201 q 151 -164 125 -201 q 178 -56 178 -126 l 178 188 q 213 300 178 254 q 310 360 249 346 l 310 361 q 215 420 251 375 q 178 532 178 465 l 178 774 q 151 883 178 846 q 63 919 125 919 l 22 919 l 22 1007 l 111 1007 q 245 955 200 1007 q 290 808 290 903 l 290 563 q 326 444 290 483 q 438 403 363 406 l 438 317 q 326 274 363 314 q 290 156 290 235 l 290 -89 q 244 -236 290 -183 q 111 -289 197 -289 l 22 -289 l 22 -201 l 63 -201 z "},"~":{"ha":810,"x_min":61,"x_max":747,"o":"m 571 375 q 475 390 524 375 q 376 422 426 406 q 229 453 289 453 q 144 439 183 453 q 61 393 106 425 l 61 490 q 239 547 136 547 q 318 538 275 547 q 449 499 361 529 q 510 479 469 490 q 582 468 551 468 q 747 531 669 468 l 747 429 q 669 388 708 401 q 571 375 629 375 z "},"¢":{"ha":772,"x_min":90,"x_max":689,"o":"m 403 188 q 512 223 468 188 q 565 332 556 258 l 689 324 q 612 165 676 226 q 447 93 547 103 l 447 -21 l 364 -21 l 364 93 q 160 202 229 106 q 90 472 90 299 q 160 742 90 644 q 364 850 229 839 l 364 956 l 447 956 l 447 850 q 606 784 544 840 q 685 633 667 728 l 560 624 q 511 721 550 685 q 401 757 472 757 q 261 692 304 757 q 218 475 218 628 q 264 258 218 329 q 403 188 310 188 z "},"£":{"ha":772,"x_min":39,"x_max":749,"o":"m 749 211 q 677 55 736 110 q 519 0 618 0 l 46 0 l 46 104 q 136 190 107 136 q 165 326 165 244 l 165 424 l 39 424 l 39 511 l 165 511 l 165 701 q 235 901 165 833 q 438 969 304 969 q 606 928 538 969 q 696 814 674 888 l 578 775 q 526 844 564 818 q 440 869 489 869 q 325 831 363 869 q 288 707 288 792 l 288 511 l 564 511 l 564 424 l 288 424 l 288 339 q 256 195 288 258 q 172 104 225 132 l 500 104 q 638 224 618 104 l 749 211 z "},"¥":{"ha":772,"x_min":0,"x_max":776,"o":"m 490 481 l 707 481 l 707 396 l 447 396 l 447 292 l 707 292 l 707 206 l 447 206 l 447 0 l 326 0 l 326 206 l 68 206 l 68 292 l 326 292 l 328 396 l 68 396 l 68 481 l 286 481 l 0 956 l 135 956 l 386 517 l 640 956 l 776 956 l 490 481 z "},"¦":{"ha":360,"x_min":124,"x_max":236,"o":"m 124 479 l 124 1007 l 236 1007 l 236 479 l 124 479 m 124 -294 l 124 233 l 236 233 l 236 -294 l 124 -294 z "},"©":{"ha":1022,"x_min":21,"x_max":1001,"o":"m 1001 479 q 936 234 1001 349 q 756 54 871 119 q 511 -11 642 -11 q 263 57 378 -11 q 84 238 147 125 q 21 479 21 351 q 87 724 21 610 q 267 904 153 839 q 511 969 381 969 q 757 903 643 969 q 936 724 871 838 q 1001 479 1001 611 m 939 479 q 882 692 939 594 q 726 848 825 790 q 511 906 626 906 q 298 848 397 906 q 142 692 199 790 q 85 479 85 593 q 142 266 85 365 q 299 110 200 167 q 511 53 397 53 q 726 110 626 53 q 882 266 825 167 q 939 479 939 365 m 338 481 q 385 318 338 376 q 518 260 433 260 q 676 365 626 260 l 754 342 q 656 224 713 260 q 518 189 599 189 q 321 266 392 189 q 250 481 250 343 q 318 693 250 618 q 514 768 386 768 q 744 626 679 768 l 667 604 q 606 674 646 651 q 515 697 567 697 q 383 642 429 697 q 338 481 338 588 z "},"«":{"ha":772,"x_min":56,"x_max":715,"o":"m 600 96 l 371 343 l 371 386 l 600 638 l 714 638 l 714 617 l 485 364 l 715 115 l 715 96 l 600 96 m 283 96 l 56 343 l 56 386 l 283 638 l 397 638 l 397 617 l 169 364 l 399 115 l 399 96 l 283 96 z "},"®":{"ha":1022,"x_min":21,"x_max":1001,"o":"m 1001 479 q 936 234 1001 349 q 756 54 871 119 q 511 -11 642 -11 q 263 57 378 -11 q 84 238 147 125 q 21 479 21 351 q 87 724 21 610 q 267 904 153 839 q 511 969 381 969 q 757 903 643 969 q 936 724 871 838 q 1001 479 1001 611 m 939 479 q 882 692 939 594 q 726 848 825 790 q 511 906 626 906 q 298 848 397 906 q 142 692 199 790 q 85 479 85 593 q 142 266 85 365 q 299 110 200 167 q 511 53 397 53 q 726 110 626 53 q 882 266 825 167 q 939 479 939 365 m 647 196 l 513 424 l 403 424 l 403 196 l 317 196 l 317 760 l 525 760 q 673 717 622 760 q 724 599 724 674 q 689 488 724 529 q 596 433 654 446 l 746 196 l 647 196 m 638 597 q 606 669 638 644 q 518 693 574 693 l 403 693 l 403 489 l 526 489 q 609 518 581 489 q 638 597 638 547 z "},"°":{"ha":554,"x_min":82,"x_max":471,"o":"m 471 776 q 414 640 471 696 q 276 583 357 583 q 140 640 197 583 q 82 776 82 697 q 139 913 82 856 q 276 969 196 969 q 415 913 358 969 q 471 776 471 857 m 397 776 q 363 863 397 828 q 276 899 328 899 q 191 863 226 899 q 156 776 156 826 q 191 690 156 726 q 276 654 226 654 q 362 690 326 654 q 397 776 397 725 z "},"¶":{"ha":746,"x_min":54,"x_max":688,"o":"m 600 886 l 600 -179 l 524 -179 l 524 886 l 376 886 l 376 -179 l 300 -179 l 300 471 q 120 533 186 471 q 54 711 54 596 q 121 891 54 826 q 306 956 188 956 l 688 956 l 688 886 l 600 886 z "},"»":{"ha":772,"x_min":56,"x_max":715,"o":"m 486 96 l 372 96 l 372 115 l 601 364 l 374 617 l 374 638 l 486 638 l 715 386 l 715 343 l 486 96 m 171 96 l 56 96 l 56 115 l 285 364 l 57 617 l 57 638 l 171 638 l 399 386 l 399 343 l 171 96 z "},"Ö":{"ha":1079,"x_min":65,"x_max":1014,"o":"m 1014 482 q 956 219 1014 332 q 792 47 899 107 q 539 -14 685 -14 q 285 46 392 -14 q 122 219 178 106 q 65 482 65 332 q 191 840 65 711 q 540 969 317 969 q 793 912 686 969 q 957 744 900 854 q 1014 482 1014 633 m 881 482 q 792 763 881 661 q 540 864 703 864 q 287 764 376 864 q 197 482 197 664 q 288 197 197 303 q 539 92 378 92 q 792 194 704 92 q 881 482 881 296 m 617 1038 l 617 1163 l 728 1163 l 728 1038 l 617 1038 m 350 1038 l 350 1163 l 461 1163 l 461 1038 l 350 1038 z "},"×":{"ha":810,"x_min":96,"x_max":715,"o":"m 96 224 l 336 464 l 97 703 l 168 772 l 406 533 l 643 771 l 714 700 l 476 464 l 715 225 l 646 154 l 407 393 l 165 153 l 96 224 z "},"º":{"ha":1003,"x_min":107,"x_max":896,"o":"m 496 -14 q 290 29 378 -14 q 155 153 203 72 q 107 347 107 235 l 107 956 l 236 956 l 236 358 q 303 160 236 228 q 494 92 369 92 q 695 162 624 92 q 767 367 767 232 l 767 956 l 896 956 l 896 360 q 847 159 896 243 q 708 31 797 75 q 496 -14 618 -14 m 578 1038 l 578 1163 l 689 1163 l 689 1038 l 578 1038 m 311 1038 l 311 1163 l 424 1163 l 424 1038 l 311 1038 z "},"ö":{"ha":772,"x_min":57,"x_max":713,"o":"m 713 368 q 628 81 713 175 q 382 -14 543 -14 q 139 84 221 -14 q 57 368 57 182 q 386 747 57 747 q 633 655 554 747 q 713 368 713 563 m 585 368 q 540 588 585 519 q 388 657 494 657 q 233 587 281 657 q 185 368 185 517 q 232 149 185 222 q 381 76 279 76 q 538 147 490 76 q 585 368 585 218 m 465 826 l 465 951 l 576 951 l 576 826 l 465 826 m 199 826 l 199 951 l 311 951 l 311 826 l 199 826 z "},"÷":{"ha":761,"x_min":43,"x_max":718,"o":"m 324 650 l 324 774 l 438 774 l 438 650 l 324 650 m 43 413 l 43 511 l 718 511 l 718 413 l 43 413 m 324 151 l 324 275 l 438 275 l 438 151 l 324 151 z "},"ü":{"ha":772,"x_min":93,"x_max":683,"o":"m 215 733 l 215 268 q 230 156 215 196 q 276 98 244 115 q 367 81 307 81 q 506 141 456 81 q 557 308 557 201 l 557 733 l 679 733 l 679 157 q 683 0 679 29 l 568 0 q 566 18 567 3 q 565 53 565 33 q 563 125 564 72 l 560 125 q 463 18 518 50 q 325 -14 408 -14 q 149 47 206 -14 q 93 244 93 107 l 93 733 l 215 733 m 457 826 l 457 951 l 568 951 l 568 826 l 457 826 m 190 826 l 190 951 l 301 951 l 301 826 l 190 826 z "},"Ā":{"ha":925,"x_min":1,"x_max":922,"o":"m 790 0 l 681 279 l 246 279 l 136 0 l 1 0 l 392 956 l 539 956 l 922 0 l 790 0 m 519 696 q 499 751 508 724 q 481 801 489 779 q 469 839 474 824 q 464 858 464 854 q 458 839 463 854 q 444 801 453 824 q 426 750 436 778 q 407 694 417 722 l 285 381 l 642 381 l 519 696 m 650 1065 l 278 1065 l 278 1151 l 650 1151 l 650 1065 z "},"ā":{"ha":772,"x_min":58,"x_max":772,"o":"m 281 -14 q 114 44 169 -14 q 58 204 58 103 q 86 324 58 278 q 158 397 114 371 q 260 433 203 424 q 375 444 317 443 l 540 447 l 540 488 q 531 565 540 533 q 501 617 521 597 q 452 645 482 636 q 382 654 422 654 q 319 649 347 654 q 269 631 290 644 q 235 595 249 618 q 218 538 222 572 l 90 550 q 117 629 97 593 q 171 692 136 665 q 258 733 206 718 q 385 747 311 747 q 594 684 524 747 q 664 500 664 621 l 664 185 q 678 103 664 131 q 732 75 692 75 q 752 76 742 75 q 772 81 763 78 l 772 4 q 726 -4 749 -1 q 678 -7 703 -7 q 618 2 643 -7 q 578 30 593 11 q 554 76 563 49 q 544 140 546 104 l 540 140 q 497 77 521 106 q 442 28 474 49 q 372 -3 411 8 q 281 -14 332 -14 m 308 78 q 410 99 367 78 q 483 154 454 121 q 526 226 511 188 q 540 301 540 265 l 540 363 l 406 360 q 321 353 361 358 q 250 331 281 347 q 201 283 219 314 q 183 203 183 253 q 216 110 183 143 q 308 78 249 78 m 564 839 l 192 839 l 192 925 l 564 925 l 564 839 z "},"Ē":{"ha":925,"x_min":114,"x_max":867,"o":"m 114 0 l 114 956 l 839 956 l 839 850 l 243 850 l 243 543 l 799 543 l 799 439 l 243 439 l 243 106 l 867 106 l 867 0 l 114 0 m 664 1065 l 290 1065 l 290 1151 l 664 1151 l 664 1065 z "},"ē":{"ha":772,"x_min":58,"x_max":710,"o":"m 186 342 q 198 235 186 283 q 235 151 210 186 q 299 97 260 117 q 392 78 338 78 q 519 110 471 78 q 583 190 567 142 l 690 160 q 658 99 679 129 q 603 43 638 68 q 516 2 568 18 q 392 -14 464 -14 q 144 83 229 -14 q 58 372 58 181 q 84 547 58 475 q 155 663 110 618 q 260 727 200 707 q 386 747 319 747 q 541 717 479 747 q 640 635 603 688 q 694 511 678 582 q 710 357 710 440 l 710 342 l 186 342 m 583 435 q 525 603 574 550 q 385 657 476 657 q 321 647 354 657 q 259 613 288 638 q 210 544 231 588 q 188 435 190 501 l 583 435 m 572 839 l 200 839 l 200 925 l 572 925 l 572 839 z "},"ƒ":{"ha":772,"x_min":129,"x_max":651,"o":"m 631 890 q 599 897 619 893 q 557 900 578 900 q 519 894 535 900 q 493 874 504 888 q 474 838 482 860 q 460 786 465 817 l 442 693 l 585 693 l 568 604 l 424 604 l 251 -294 l 129 -294 l 301 604 l 199 604 l 217 693 l 319 693 l 339 796 q 360 871 347 836 q 398 931 374 906 q 459 972 422 957 q 551 986 496 986 q 600 983 572 986 q 651 972 628 979 l 631 890 z "},"˜":{"ha":463,"x_min":-15,"x_max":471,"o":"m 333 814 q 277 826 306 814 q 222 854 249 839 q 172 883 196 869 q 126 896 147 896 q 71 874 89 896 q 46 814 53 853 l -15 814 q -6 877 -12 844 q 17 936 1 910 q 57 979 32 963 q 122 996 82 996 q 181 983 153 996 q 236 956 210 971 q 285 928 263 940 q 329 915 308 915 q 384 937 365 915 q 408 996 403 958 l 471 996 q 461 934 468 967 q 440 875 454 901 q 400 831 425 849 q 333 814 375 814 z "},"က":{"ha":1553,"x_min":0,"x_max":1414,"o":"m 239 -14 q 215 -13 215 -14 q 225 -12 215 -12 q 111 65 158 17 q 0 383 0 185 q 113 667 0 556 q 400 778 228 778 q 682 667 571 778 l 708 638 q 735 667 721 653 q 1022 778 850 778 q 1304 667 1193 778 q 1414 383 1414 557 q 1303 97 1414 211 q 1022 -14 1192 -14 q 919 -4 967 -14 q 915 -3 917 -4 q 894 -3 914 -3 l 942 113 q 984 107 968 108 q 1022 106 1000 106 q 1218 185 1143 106 q 1299 383 1299 265 q 1218 579 1299 500 q 1022 658 1143 658 q 821 581 903 658 q 794 549 807 565 q 774 517 781 532 q 788 453 783 488 q 792 383 792 419 q 764 207 792 285 q 681 67 736 129 q 630 22 657 42 q 568 -11 603 3 q 569 -12 569 -11 q 553 -12 568 -12 q 525 43 533 26 q 513 69 517 60 q 508 82 508 79 q 508 93 508 85 q 558 122 540 108 q 596 154 576 136 q 656 255 636 199 q 676 383 676 311 q 596 579 676 500 q 400 658 521 658 q 199 581 281 658 q 119 383 119 501 q 139 251 119 308 q 196 151 158 194 q 231 122 214 133 q 272 100 249 111 l 289 88 l 239 -14 z "},"ခ":{"ha":929,"x_min":0,"x_max":790,"o":"m 29 547 q 67 616 47 589 q 111 667 86 643 q 399 778 226 778 q 681 667 569 778 q 790 383 790 557 q 679 97 790 211 q 399 -14 568 -14 q 110 96 219 -14 q 39 190 67 138 q 12 244 24 217 q 0 297 0 271 q 15 347 0 324 q 66 387 31 371 q 156 412 101 403 q 293 421 211 421 q 575 310 464 421 q 632 232 607 276 q 661 299 649 257 q 674 383 674 340 q 594 579 674 500 q 399 658 517 658 q 197 581 276 658 q 138 494 161 544 l 29 547 m 196 182 q 399 106 274 106 q 543 143 479 106 q 521 181 536 158 q 489 222 506 204 q 293 301 410 301 q 142 260 204 301 q 196 182 160 218 z "},"ဂ":{"ha":931,"x_min":0,"x_max":792,"o":"m 235 -21 q 111 61 158 13 q 0 383 0 181 q 113 667 0 556 q 400 778 228 778 q 682 667 571 778 q 792 383 792 557 q 681 63 792 186 q 630 18 657 38 q 558 -19 603 -1 q 531 33 540 15 q 501 88 521 50 q 558 118 539 104 q 596 150 576 132 q 675 383 675 239 q 596 579 675 500 q 400 658 518 658 q 199 581 278 658 q 118 383 118 501 q 196 147 118 236 q 231 118 213 129 q 283 90 249 107 l 235 -21 z "},"ဃ":{"ha":1553,"x_min":0,"x_max":1414,"o":"m 0 382 q 15 456 1 431 q 48 494 28 482 q 88 508 68 507 q 122 508 108 508 q 137 508 133 508 q 144 510 140 507 q 197 532 176 511 q 217 582 217 553 q 210 613 217 597 q 194 640 204 628 q 171 659 185 651 q 144 667 157 667 q 81 632 115 667 l 8 728 q 74 767 43 756 q 142 779 106 779 q 218 764 182 779 q 280 722 254 749 q 322 660 306 696 q 338 585 338 625 q 322 508 338 544 q 280 447 306 472 q 218 405 254 421 q 142 389 182 389 q 127 390 136 389 q 119 390 118 390 l 119 382 q 199 185 119 261 q 400 106 282 106 q 596 185 518 106 q 676 382 676 264 q 596 615 676 526 q 559 646 579 631 q 503 678 539 661 l 560 785 q 681 703 632 751 q 792 382 792 576 q 772 247 792 310 q 792 215 779 233 q 821 183 806 197 q 912 125 861 146 q 1022 104 963 104 q 1218 183 1140 104 q 1299 381 1299 263 q 1218 579 1299 499 q 1022 658 1140 658 q 940 651 983 658 l 903 763 q 969 776 943 774 q 1022 778 994 778 q 1303 665 1192 778 q 1414 381 1414 554 q 1304 97 1414 207 q 1022 -14 1193 -14 q 735 97 850 -14 l 707 125 q 697 115 706 124 q 682 99 689 106 q 400 -12 571 -12 q 113 99 228 -12 q 0 382 0 208 z "},"င":{"ha":931,"x_min":0,"x_max":764,"o":"m 763 217 q 681 96 729 142 q 392 -14 571 -14 q 110 97 221 -14 q 0 383 0 208 q 110 667 0 557 q 392 778 221 778 q 679 667 564 778 q 726 614 706 642 q 764 542 746 586 q 708 516 726 525 q 653 494 689 507 q 624 544 636 526 q 593 581 611 563 q 392 658 515 658 q 194 579 274 658 q 117 383 117 499 q 194 185 117 269 q 392 106 274 106 q 594 182 517 106 q 623 217 608 196 q 654 268 638 238 l 763 217 z "},"စ":{"ha":931,"x_min":0,"x_max":792,"o":"m 0 372 q 110 661 0 551 q 397 772 221 772 q 681 658 568 772 q 792 372 792 544 q 681 90 792 201 q 397 -19 569 -19 q 111 90 222 -19 q 0 372 0 201 m 672 372 q 594 574 672 492 q 397 653 515 653 q 285 633 333 653 q 372 372 372 529 q 286 117 372 219 q 335 103 303 111 q 397 96 367 96 q 593 175 514 96 q 672 372 672 254 m 118 372 q 186 189 118 264 q 253 372 253 264 q 182 564 253 483 q 118 372 118 486 z "},"ဆ":{"ha":1551,"x_min":0,"x_max":1413,"o":"m 293 421 q 575 310 464 421 q 608 269 592 293 q 632 232 624 244 q 675 383 675 299 q 594 579 675 500 q 399 658 519 658 q 197 581 279 658 q 139 493 163 544 q 82 517 101 508 q 26 542 63 526 q 111 667 61 617 q 399 778 226 778 q 681 667 569 778 l 707 638 q 733 667 719 653 q 1021 778 849 778 q 1303 667 1192 778 q 1413 383 1413 557 q 1301 97 1413 211 q 1021 -14 1190 -14 q 732 96 842 -14 q 719 110 731 97 q 706 126 707 124 q 693 112 701 121 q 679 97 685 103 q 399 -14 568 -14 q 110 96 219 -14 q 72 139 88 115 q 39 190 56 163 q 12 244 24 217 q 0 297 0 271 q 15 347 0 324 q 66 387 31 371 q 156 412 101 403 q 293 421 211 421 m 818 182 q 1021 106 899 106 q 1217 185 1142 106 q 1297 383 1297 265 q 1217 579 1297 500 q 1021 658 1142 658 q 819 581 901 658 q 792 549 806 565 q 772 517 779 532 q 786 453 782 488 q 790 383 790 419 q 771 246 790 308 q 791 214 778 231 q 818 182 804 197 m 196 182 q 399 106 276 106 q 544 143 481 106 q 489 222 526 185 q 293 301 411 301 q 210 290 250 301 q 142 261 169 279 q 164 222 150 244 q 196 182 178 200 z "},"ဇ":{"ha":931,"x_min":0,"x_max":842,"o":"m 488 500 q 510 443 488 465 q 567 421 532 421 q 615 436 593 421 q 644 474 638 451 q 647 499 647 489 q 647 515 647 508 q 618 562 642 542 q 567 582 594 582 q 510 558 532 582 q 488 500 488 535 m 369 497 q 399 593 369 546 q 444 653 428 640 q 465 654 478 653 q 440 656 453 656 q 417 658 428 657 q 400 658 406 658 q 199 581 281 658 q 119 383 119 501 q 197 182 119 263 q 400 106 278 106 q 498 119 456 106 q 588 176 540 133 l 674 90 q 545 8 610 29 q 400 -14 481 -14 q 111 96 221 -14 q 0 383 0 207 q 113 667 0 556 q 400 778 231 778 q 682 667 571 778 q 706 640 694 653 q 728 610 718 626 q 751 556 742 583 q 760 497 760 528 q 753 449 760 474 q 842 251 757 336 l 756 165 q 690 249 713 207 q 656 325 667 290 q 564 303 614 303 q 488 318 524 303 q 426 360 453 333 q 385 422 400 386 q 369 497 369 457 z "},"ဈ":{"ha":1139,"x_min":0,"x_max":1000,"o":"m 596 -565 q 554 -555 572 -565 q 524 -527 536 -544 q 504 -490 511 -510 q 497 -449 497 -469 l 496 -10 q 397 -19 450 -19 q 111 90 222 -19 q 0 372 0 201 q 110 661 0 551 q 397 772 221 772 q 681 658 571 772 q 792 372 792 544 q 681 90 792 201 q 645 60 663 74 q 614 36 628 47 l 614 -368 q 619 -405 613 -390 q 637 -428 625 -419 q 665 -442 649 -437 q 700 -449 682 -447 l 761 -449 q 819 -446 794 -449 q 856 -435 843 -443 q 874 -411 868 -426 q 881 -368 881 -396 l 881 778 l 1000 778 l 1000 -442 q 975 -531 999 -494 q 900 -567 951 -567 l 596 -565 m 672 372 q 594 574 672 494 q 397 653 517 653 q 335 647 367 653 q 285 633 303 640 q 372 372 372 529 q 286 117 372 219 q 335 103 303 111 q 397 96 367 96 q 593 175 514 96 q 672 372 672 253 m 119 372 q 138 269 119 318 q 186 189 157 221 q 234 269 215 221 q 253 372 253 318 q 183 564 253 485 q 119 372 119 489 z "},"ဉ":{"ha":906,"x_min":0,"x_max":1388,"o":"m 119 -567 q 0 -442 0 -571 l 0 213 q 74 249 57 240 q 113 268 90 257 q 144 216 131 235 q 172 182 158 197 q 375 106 253 106 q 571 185 496 106 q 651 383 651 265 q 571 579 651 500 q 375 658 496 658 q 174 581 256 658 q 115 493 140 547 q 58 517 78 508 q 3 542 39 526 q 88 667 38 617 q 375 778 203 778 q 657 667 546 778 q 767 383 767 557 q 656 97 767 211 q 375 -14 544 -14 q 118 67 222 -14 l 118 -449 l 1278 -449 l 1278 -361 q 1252 -329 1274 -339 q 1189 -321 1231 -319 l 1189 -212 q 1331 -249 1278 -211 q 1388 -362 1385 -286 l 1388 -433 q 1355 -521 1385 -487 q 1275 -567 1325 -554 l 119 -567 z "},"ည":{"ha":1528,"x_min":0,"x_max":1389,"o":"m 892 767 q 994 778 946 778 q 1276 667 1165 778 q 1386 383 1386 557 q 1275 97 1386 211 q 994 -14 1164 -14 q 706 96 815 -14 q 692 110 704 97 q 678 126 681 124 q 667 112 674 121 q 653 97 660 103 q 372 -14 542 -14 q 118 65 222 -14 l 118 -449 l 1279 -449 l 1279 -360 q 1253 -328 1275 -337 q 1190 -319 1232 -318 l 1190 -211 q 1333 -247 1279 -210 q 1389 -361 1386 -285 l 1389 -432 q 1357 -519 1386 -486 q 1276 -565 1328 -553 l 119 -565 q 0 -440 0 -569 l 0 214 q 54 240 33 229 q 111 268 75 251 q 140 215 128 233 q 169 182 153 197 q 372 106 253 106 q 568 185 490 106 q 647 383 647 264 q 568 579 647 501 q 372 658 490 658 q 171 581 253 658 q 140 544 153 563 q 111 493 128 526 q 55 517 74 508 q 0 542 36 526 q 40 614 18 585 q 85 667 61 643 q 372 778 200 778 q 654 667 543 778 q 764 383 764 557 q 743 246 764 307 q 765 215 753 232 q 792 182 778 197 q 994 106 872 106 q 1190 185 1113 106 q 1269 383 1269 264 q 1190 579 1269 501 q 994 658 1113 658 q 924 653 964 658 l 892 767 z "},"ဋ":{"ha":931,"x_min":0,"x_max":851,"o":"m 651 -257 q 522 -308 592 -287 q 388 -328 451 -328 q 266 -312 325 -328 q 99 -242 207 -296 l 110 -242 l 39 -199 l 39 -42 q 94 -5 72 -25 q 151 33 115 15 q 281 -24 218 -6 q 401 -43 344 -43 q 529 -22 465 -43 q 651 35 593 -1 l 651 71 q 390 -14 546 -14 q 110 97 221 -14 q 0 383 0 208 q 110 667 0 557 q 390 778 221 778 q 678 667 563 778 q 724 614 704 642 q 764 542 744 586 q 707 516 726 525 q 651 494 688 507 q 593 581 628 544 q 390 658 514 658 q 194 579 272 658 q 115 383 115 500 q 194 185 115 268 q 390 106 272 106 q 594 182 514 106 q 622 217 608 196 q 651 268 636 238 q 710 242 689 251 q 763 217 731 232 l 763 -37 l 703 -68 l 713 -68 q 525 -142 589 -122 q 393 -161 461 -161 q 269 -142 333 -161 q 149 -94 204 -124 l 149 -135 q 399 -201 269 -201 q 519 -187 458 -201 q 651 -135 579 -172 q 708 -180 686 -161 q 763 -224 729 -199 l 763 -462 l 851 -462 l 851 -567 l 764 -567 q 651 -462 649 -568 l 651 -257 z "},"ဌ":{"ha":931,"x_min":0,"x_max":767,"o":"m 113 -567 q 0 -478 8 -544 l 0 -362 q 56 -248 3 -285 q 199 -212 108 -211 l 199 -321 q 136 -331 158 -321 q 111 -361 114 -340 l 111 -449 l 649 -449 l 649 67 q 392 -14 543 -14 q 110 97 221 -14 q 0 383 0 208 q 110 667 0 557 q 392 778 221 778 q 679 667 564 778 q 726 614 706 642 q 764 542 746 586 q 708 516 726 525 q 653 494 689 507 q 624 544 636 526 q 593 581 611 563 q 392 658 514 658 q 194 579 274 658 q 117 383 117 501 q 194 185 117 267 q 392 106 274 106 q 594 182 517 106 q 623 216 610 197 q 653 268 636 235 l 767 214 l 767 -486 q 647 -567 767 -571 l 113 -567 z "},"ဍ":{"ha":903,"x_min":0,"x_max":814,"o":"m 614 -108 q 494 -156 558 -137 q 371 -175 431 -175 q 238 -156 303 -175 q 50 -82 174 -136 l 61 -82 l 1 -51 l 1 217 l 111 267 q 140 217 128 232 q 169 182 151 201 q 372 106 247 106 q 568 185 490 106 q 647 383 647 265 q 568 579 647 500 q 372 658 490 658 q 171 581 250 658 q 140 544 153 563 q 111 493 128 526 q 55 517 74 508 q 0 542 36 526 q 40 614 18 585 q 85 667 61 643 q 372 778 200 778 q 654 667 543 778 q 764 383 764 557 q 653 97 764 211 q 372 -14 542 -14 q 111 71 218 -14 l 111 32 q 234 -28 171 -4 q 363 -53 297 -53 q 483 -32 421 -53 q 613 28 544 -11 q 670 -8 649 10 q 725 -42 692 -25 l 725 -462 l 814 -462 l 814 -567 l 726 -567 q 614 -462 611 -568 l 614 -108 z "},"ဎ":{"ha":931,"x_min":0,"x_max":792,"o":"m 0 375 q 15 449 1 424 q 48 488 28 475 q 88 501 68 500 q 122 501 108 501 q 135 501 132 501 q 144 503 139 500 q 197 525 176 504 q 217 575 217 546 q 210 606 217 590 q 194 633 204 621 q 171 652 185 644 q 143 660 157 660 q 81 624 113 660 l 7 721 q 74 760 43 749 q 140 772 104 772 q 217 757 181 772 q 279 715 253 742 q 322 653 306 689 q 338 578 338 618 q 322 501 338 538 q 279 440 306 465 q 217 398 253 414 q 140 382 181 382 q 126 383 135 382 q 118 375 118 383 q 199 178 118 254 q 400 99 279 99 q 596 178 517 99 q 675 375 675 257 q 596 608 675 518 q 558 639 578 624 q 501 671 538 654 l 560 778 q 681 696 632 744 q 792 375 792 569 q 682 92 792 201 q 400 -19 571 -19 q 113 92 228 -19 q 0 375 0 201 z "},"ဏ":{"ha":1747,"x_min":0,"x_max":1608,"o":"m 960 67 q 892 6 935 28 q 800 -15 850 -15 q 710 6 753 -15 q 668 29 668 28 q 626 226 589 101 q 653 276 642 254 q 669 324 665 299 q 674 352 672 336 q 675 383 675 368 q 674 413 675 399 q 669 440 672 426 q 652 499 667 465 q 607 568 638 532 q 600 573 603 569 q 596 579 597 576 q 400 658 517 658 q 199 581 278 658 q 118 383 118 501 q 197 182 118 261 q 400 106 275 106 q 450 109 426 106 q 510 125 474 113 q 524 63 519 83 q 538 6 529 42 q 400 -14 465 -14 q 111 96 221 -14 q 0 383 0 207 q 113 667 0 556 q 400 778 228 778 q 643 700 543 778 q 708 756 664 731 q 800 781 751 781 q 896 753 851 781 q 963 694 940 725 q 1217 778 1064 778 q 1499 667 1388 778 q 1608 383 1608 557 q 1497 97 1608 211 q 1217 -14 1386 -14 q 1148 -10 1179 -14 q 1071 7 1117 -7 q 1084 65 1079 44 q 1099 125 1089 86 q 1162 108 1138 111 q 1217 106 1186 106 q 1413 185 1338 106 q 1493 383 1493 265 q 1413 579 1493 500 q 1217 658 1338 658 q 1015 581 1097 658 l 994 557 q 963 502 976 532 q 940 443 950 472 q 936 383 936 419 q 938 347 936 364 q 942 314 939 329 q 958 269 946 290 q 982 225 969 249 q 960 67 1007 136 m 792 361 q 774 255 789 306 q 733 165 758 204 q 758 128 738 144 q 804 111 778 111 q 849 127 829 111 q 874 161 868 143 q 817 353 822 242 l 817 397 q 834 508 818 458 q 875 600 850 558 q 851 641 872 622 q 804 660 831 660 q 757 642 778 660 q 733 601 736 624 q 792 401 788 518 l 792 361 z "},"တ":{"ha":1553,"x_min":0,"x_max":1414,"o":"m 925 115 q 942 115 942 115 q 940 114 943 114 q 1022 106 974 106 q 1218 185 1143 106 q 1299 383 1299 265 q 1218 579 1299 500 q 1022 658 1143 658 q 821 581 903 658 q 794 549 807 565 q 774 517 781 532 q 788 453 783 488 q 792 383 792 419 q 681 97 792 211 q 400 -14 569 -14 q 111 96 221 -14 q 0 383 0 207 q 113 667 0 556 q 400 778 228 778 q 682 667 571 778 l 708 638 q 735 667 721 653 q 1022 778 850 778 q 1304 667 1193 778 q 1414 383 1414 557 q 1303 97 1414 211 q 1022 -14 1192 -14 q 906 0 957 -14 q 899 1 900 0 q 883 1 899 1 l 925 115 m 400 658 q 199 581 281 658 q 119 383 119 501 q 197 182 119 263 q 400 106 278 106 q 596 185 521 106 q 676 383 676 265 q 596 579 676 500 q 400 658 521 658 z "},"ထ":{"ha":1553,"x_min":0,"x_max":1414,"o":"m 400 -14 q 111 96 221 -14 q 0 383 0 207 q 113 667 0 556 q 400 778 228 778 q 682 667 571 778 l 708 638 q 735 667 721 653 q 1022 778 850 778 q 1304 667 1193 778 q 1414 383 1414 557 q 1303 97 1414 211 q 1022 -14 1192 -14 q 733 96 843 -14 q 720 110 732 97 q 707 126 708 124 q 694 112 703 121 q 681 97 686 103 q 400 -14 569 -14 m 400 658 q 199 581 281 658 q 119 383 119 501 q 197 182 119 263 q 400 106 278 106 q 596 185 521 106 q 676 383 676 265 q 596 579 676 500 q 400 658 521 658 m 792 383 q 772 246 792 308 q 792 214 779 231 q 819 182 806 197 q 1022 106 900 106 q 1218 185 1143 106 q 1299 383 1299 265 q 1218 579 1299 500 q 1022 658 1143 658 q 821 581 903 658 q 794 549 807 565 q 774 517 781 532 q 788 453 783 488 q 792 383 792 419 z "},"ဒ":{"ha":864,"x_min":0,"x_max":714,"o":"m 110 269 q 169 182 135 217 q 372 106 247 106 q 568 186 488 106 q 513 201 554 186 q 440 244 471 217 q 390 306 408 271 q 372 382 372 342 q 390 458 372 422 q 440 521 408 494 q 513 563 471 547 q 569 578 554 578 q 372 658 490 658 q 171 581 253 658 q 151 555 157 567 q 146 526 146 543 q 148 505 146 517 q 164 463 150 493 q 86 461 110 463 q 22 460 63 460 q 3 533 3 501 q 24 603 3 568 q 79 671 46 638 q 213 750 139 722 q 372 778 288 778 q 526 749 454 778 q 654 668 599 719 q 699 597 683 629 q 714 540 714 564 q 571 458 714 463 q 519 436 540 458 q 499 385 499 414 q 519 334 499 354 q 571 314 539 314 q 675 290 636 308 q 714 231 714 271 q 653 96 714 181 q 526 15 597 44 q 372 -14 454 -14 q 83 96 193 -14 q 40 147 60 119 q 0 218 19 174 l 110 269 z "},"ဓ":{"ha":931,"x_min":0,"x_max":792,"o":"m 400 -14 q 111 96 221 -14 q 0 383 0 207 q 113 667 0 556 q 400 778 228 778 q 682 667 571 778 q 792 383 792 557 q 681 97 792 211 q 400 -14 569 -14 m 400 658 q 199 581 278 658 q 118 383 118 501 q 139 271 118 326 q 400 358 242 358 q 654 271 550 358 q 675 383 675 324 q 596 579 675 500 q 400 658 518 658 m 400 106 q 583 172 510 106 q 400 239 510 239 q 208 169 288 239 q 400 106 281 106 z "},"န":{"ha":979,"x_min":0,"x_max":838,"o":"m 613 611 q 530 649 569 639 q 447 658 490 658 q 367 649 406 658 q 310 621 329 640 q 313 613 306 619 q 352 590 319 606 q 428 557 385 574 q 508 528 472 540 q 620 490 563 508 q 726 449 678 471 q 806 397 775 426 q 835 326 838 368 q 799 202 826 261 q 726 97 772 143 q 623 26 683 53 q 475 -10 563 -1 l 475 -567 l 361 -567 l 361 -11 q 163 36 235 -3 q 97 85 126 58 q 45 142 67 111 q 12 204 24 172 q 0 268 0 236 q 31 350 0 321 q 102 392 63 379 q 182 408 142 406 q 286 411 222 411 q 360 396 326 411 q 419 355 394 381 q 460 294 444 329 q 475 218 475 258 l 475 101 q 614 158 558 114 q 701 264 669 201 q 705 326 721 301 q 647 373 689 351 q 547 410 606 394 q 433 446 489 426 q 337 480 385 463 q 251 517 289 497 q 190 563 214 538 q 193 675 167 588 q 447 778 222 768 q 567 760 510 778 q 683 706 625 743 l 613 611 m 124 247 q 222 145 144 185 q 361 100 299 106 l 361 218 q 340 270 361 249 q 289 292 318 292 q 208 290 231 292 q 166 284 186 289 q 135 270 146 279 q 124 249 124 261 l 124 247 z "},"ပ":{"ha":931,"x_min":0,"x_max":792,"o":"m 283 665 q 230 636 250 649 q 196 610 210 624 q 118 374 118 521 q 199 176 118 253 q 400 97 279 97 q 596 176 517 97 q 675 374 675 256 q 596 607 675 517 q 558 637 578 622 q 501 668 538 651 l 560 776 q 681 694 632 743 q 792 374 792 568 q 682 90 792 200 q 400 -21 571 -21 q 113 90 228 -21 q 0 374 0 200 q 111 696 0 576 q 163 739 136 721 q 235 779 190 757 l 283 665 z "},"ဖ":{"ha":931,"x_min":0,"x_max":792,"o":"m 283 665 q 230 636 250 649 q 196 610 210 624 q 118 374 118 521 q 199 176 118 253 q 400 97 279 97 q 528 128 468 97 l 519 135 l 519 132 q 385 443 385 267 q 497 726 385 615 q 557 775 525 754 q 626 738 597 757 q 681 694 656 719 q 792 374 792 568 q 682 90 792 200 q 400 -21 571 -21 q 113 90 228 -21 q 0 374 0 200 q 111 696 0 576 q 163 739 136 721 q 235 779 190 757 l 283 665 m 574 628 q 503 443 503 550 q 582 242 503 318 q 606 219 593 229 q 622 207 619 210 q 675 374 675 279 q 594 608 675 518 l 574 628 z "},"ဗ":{"ha":931,"x_min":0,"x_max":792,"o":"m 243 783 q 247 706 240 729 q 274 671 253 682 q 333 654 303 661 q 400 647 364 647 q 510 668 458 647 q 550 781 556 692 q 681 694 632 743 q 792 374 792 568 q 682 90 792 200 q 400 -21 571 -21 q 113 90 228 -21 q 0 374 0 200 q 111 696 0 576 q 163 739 136 721 q 243 783 190 757 m 675 374 q 611 583 675 496 q 400 529 521 529 q 279 545 338 529 q 178 588 221 561 q 118 374 118 503 q 199 176 118 253 q 400 97 279 97 q 596 176 517 97 q 675 374 675 256 z "},"ဘ":{"ha":1525,"x_min":0,"x_max":1386,"o":"m 924 111 q 963 106 950 107 q 994 106 975 106 q 1190 183 1113 106 q 1269 381 1269 263 q 1190 579 1269 500 q 994 658 1113 658 q 792 582 869 658 q 763 550 776 567 q 743 517 750 533 q 764 381 764 456 q 654 97 764 207 q 372 -14 543 -14 q 85 97 200 -14 q 38 150 58 122 q 0 222 18 178 q 56 248 38 239 q 111 269 75 257 q 140 219 128 238 q 171 183 153 201 q 372 106 253 106 q 568 183 490 106 q 647 381 647 263 q 568 579 647 500 q 372 658 490 658 q 169 582 250 658 q 140 547 151 563 q 111 497 128 532 l 1 547 q 83 668 35 622 q 372 778 193 778 q 653 665 542 778 q 667 649 660 658 q 678 636 675 640 l 686 644 l 682 644 q 994 778 815 778 q 1275 665 1164 778 q 1386 381 1386 554 q 1276 97 1386 207 q 994 -14 1165 -14 q 889 -3 947 -14 l 924 111 z "},"မ":{"ha":931,"x_min":0,"x_max":792,"o":"m 283 665 q 230 636 250 649 q 196 610 210 624 q 118 374 118 521 q 125 317 118 347 q 138 269 132 286 q 400 358 244 358 q 654 269 554 358 q 668 317 661 286 q 675 374 675 347 q 596 607 675 517 q 558 637 578 622 q 501 668 538 651 l 560 776 q 681 694 632 743 q 792 374 792 568 q 682 90 792 200 q 400 -21 571 -21 q 113 90 228 -21 q 0 374 0 200 q 111 696 0 576 q 163 739 136 721 q 235 779 190 757 l 283 665 m 400 239 q 206 168 281 239 q 400 97 281 97 q 588 168 510 97 q 400 239 513 239 z "},"ယ":{"ha":1553,"x_min":0,"x_max":1414,"o":"m 903 756 q 969 769 943 767 q 1022 771 994 771 q 1303 658 1192 771 q 1414 374 1414 547 q 1304 90 1414 200 q 1022 -21 1193 -21 q 735 90 850 -21 l 708 119 q 696 105 704 114 q 682 90 688 96 q 400 -21 571 -21 q 113 90 228 -21 q 0 374 0 200 q 111 696 0 576 q 163 739 136 721 q 235 779 190 757 q 260 721 251 740 q 282 665 269 701 q 231 636 251 649 q 196 610 210 624 q 119 374 119 521 q 199 176 119 253 q 400 97 282 97 q 596 176 518 97 q 676 374 676 256 q 596 607 676 518 q 559 637 579 622 q 503 668 539 651 l 558 776 q 681 694 632 743 q 792 374 792 568 q 788 303 792 338 q 774 240 783 269 q 821 176 793 204 q 1022 97 904 97 q 1218 176 1140 97 q 1299 374 1299 256 q 1218 572 1299 492 q 1022 651 1140 651 q 940 644 983 651 l 903 756 z "},"ရ":{"ha":931,"x_min":0,"x_max":919,"o":"m 197 182 q 385 106 268 111 q 317 224 364 176 q 226 281 278 260 q 126 303 175 301 q 197 182 147 232 m 596 579 q 400 658 518 658 q 199 581 278 658 q 119 422 132 518 q 403 311 292 422 q 487 164 465 238 q 511 -1 508 90 q 451 -12 476 -10 q 400 -14 425 -14 q 111 96 221 -14 q 0 383 0 207 q 113 667 0 556 q 400 778 228 778 q 682 667 571 778 q 792 390 790 557 l 792 -410 q 801 -449 789 -440 q 840 -456 814 -458 l 919 -456 l 919 -565 l 790 -565 q 676 -464 679 -561 l 675 390 q 596 579 674 500 z "},"လ":{"ha":1553,"x_min":0,"x_max":1414,"o":"m 772 244 q 793 213 781 228 q 819 182 806 197 q 1022 106 900 106 q 1218 185 1143 106 q 1299 383 1299 265 q 1218 579 1299 500 q 1022 658 1143 658 q 962 653 990 658 q 893 632 933 649 q 865 685 875 668 q 839 739 856 701 q 933 769 889 761 q 1022 778 978 778 q 1304 667 1193 778 q 1414 383 1414 557 q 1303 97 1414 211 q 1022 -14 1192 -14 q 733 96 843 -14 l 707 124 q 672 203 682 167 q 661 271 661 240 q 662 296 661 282 q 664 322 663 310 q 666 353 665 338 q 667 385 667 368 q 662 445 667 411 q 640 525 657 479 q 622 551 632 538 q 596 579 611 564 q 400 658 521 658 q 199 581 281 658 q 119 383 119 501 q 197 182 119 263 q 400 106 278 106 q 453 110 426 106 q 514 128 479 114 q 542 75 532 93 q 571 18 553 57 q 482 -7 521 0 q 400 -14 443 -14 q 111 96 221 -14 q 0 383 0 207 q 113 667 0 556 q 400 778 228 778 q 682 667 571 778 l 708 638 q 759 524 746 582 q 772 417 772 467 q 772 381 772 399 q 769 349 771 364 q 768 321 769 333 q 767 299 767 308 q 768 270 767 283 q 772 247 769 257 l 772 244 z "},"ဝ":{"ha":931,"x_min":0,"x_max":792,"o":"m 400 -14 q 111 96 221 -14 q 0 383 0 207 q 113 667 0 556 q 400 778 228 778 q 682 667 571 778 q 792 383 792 557 q 681 97 792 211 q 400 -14 569 -14 m 400 658 q 199 581 278 658 q 118 383 118 501 q 197 182 118 261 q 400 106 275 106 q 596 185 518 106 q 675 383 675 265 q 596 579 675 500 q 400 658 518 658 z "},"သ":{"ha":1525,"x_min":0,"x_max":1386,"o":"m 889 767 q 994 778 947 778 q 1276 667 1165 778 q 1386 383 1386 557 q 1275 97 1386 211 q 994 -14 1164 -14 q 706 96 815 -14 q 692 110 704 97 q 678 126 681 124 q 667 112 674 121 q 653 97 660 103 q 372 -14 542 -14 q 83 96 193 -14 q 1 217 35 142 l 111 267 q 140 217 128 232 q 169 182 151 201 q 372 106 250 106 q 568 185 490 106 q 647 383 647 264 q 568 579 647 501 q 372 658 490 658 q 171 581 253 658 q 140 544 153 563 q 111 493 128 526 q 55 517 74 508 q 0 542 36 526 q 40 614 18 585 q 85 667 61 643 q 372 778 200 778 q 654 667 543 778 q 764 383 764 557 q 743 246 764 307 q 765 215 753 232 q 792 182 778 197 q 994 106 869 106 q 1190 185 1113 106 q 1269 383 1269 264 q 1190 579 1269 501 q 994 658 1113 658 q 924 653 964 658 l 889 767 z "},"ဟ":{"ha":1553,"x_min":0,"x_max":1414,"o":"m 940 113 q 984 107 968 108 q 1022 106 1000 106 q 1218 185 1143 106 q 1299 383 1299 265 q 1218 579 1299 500 q 1022 658 1143 658 q 821 581 903 658 q 774 518 792 549 q 788 449 783 486 q 792 374 792 413 q 682 90 792 200 q 400 -21 571 -21 q 113 90 228 -21 q 0 374 0 200 q 111 696 0 576 q 163 739 136 721 q 235 779 190 757 q 260 721 251 740 q 282 665 269 701 q 231 636 251 649 q 196 610 210 624 q 119 374 119 521 q 199 176 119 253 q 400 97 282 97 q 596 176 518 97 q 676 374 676 256 q 596 607 676 518 q 559 637 579 622 q 503 668 539 651 l 558 776 q 681 694 632 743 q 704 665 693 681 q 717 649 715 650 l 735 667 q 1022 778 850 778 q 1304 667 1193 778 q 1414 383 1414 557 q 1303 97 1414 211 q 1022 -14 1192 -14 q 903 -1 967 -14 l 940 113 z "},"ဠ":{"ha":903,"x_min":0,"x_max":764,"o":"m 158 -565 q 39 -485 39 -569 l 39 -42 q 94 -5 72 -25 q 151 33 115 15 q 282 -24 219 -6 q 401 -43 344 -43 q 531 -22 467 -43 q 653 35 594 -1 l 653 71 q 392 -14 547 -14 q 110 97 221 -14 q 0 383 0 208 q 110 667 0 557 q 392 778 221 778 q 679 667 564 778 q 726 614 706 642 q 764 542 746 586 q 708 516 726 525 q 653 494 689 507 q 624 544 636 526 q 593 581 611 563 q 392 658 515 658 q 194 579 274 658 q 117 383 117 499 q 194 185 117 269 q 392 106 274 106 q 594 182 517 106 q 623 217 608 196 q 654 268 638 238 q 710 242 690 251 q 763 217 731 232 l 763 -36 q 685 -87 725 -65 q 599 -127 644 -110 q 501 -154 553 -144 q 393 -162 450 -164 q 275 -151 338 -161 q 158 -112 213 -142 l 158 -449 l 653 -449 l 653 -387 q 628 -356 650 -365 q 565 -347 607 -346 l 565 -225 q 649 -236 617 -225 q 706 -269 682 -247 q 746 -320 731 -290 q 763 -389 761 -350 l 763 -475 q 730 -532 760 -510 q 651 -565 700 -554 l 158 -565 z "},"အ":{"ha":1497,"x_min":0,"x_max":1358,"o":"m 113 269 q 169 182 135 218 q 372 106 250 106 q 569 186 489 106 q 514 201 556 186 q 441 244 472 217 q 392 306 410 271 q 374 382 374 342 q 392 458 374 422 q 441 521 410 494 q 514 563 472 547 q 571 578 556 578 q 372 658 490 658 q 172 581 253 658 q 153 555 160 567 q 146 526 146 543 q 148 505 146 517 q 167 463 150 493 q 88 461 111 463 q 22 460 64 460 q 3 533 3 501 q 25 603 3 568 q 81 671 47 638 q 214 750 139 722 q 372 778 289 778 q 526 749 454 778 q 654 668 599 719 l 665 654 l 678 668 q 967 778 788 778 q 1249 665 1138 778 q 1358 381 1358 554 q 1250 97 1358 207 q 967 -14 1139 -14 q 885 -2 908 -14 q 861 25 861 10 q 974 308 861 197 q 1097 388 1028 360 q 1240 419 1167 417 q 1217 501 1236 458 q 1163 579 1197 544 q 967 658 1088 658 q 764 582 844 658 q 737 551 751 568 q 710 515 722 535 q 572 458 692 463 q 521 436 542 458 q 500 385 500 414 q 520 334 500 354 q 571 314 540 314 q 676 290 636 308 q 715 231 715 271 q 653 96 715 182 q 526 15 597 44 q 372 -14 454 -14 q 83 96 193 -14 q 0 218 36 143 l 113 269 m 1175 179 q 1223 247 1201 206 q 1244 317 1244 288 q 1145 292 1196 313 q 1061 239 1094 272 q 1017 172 1036 214 q 989 106 997 129 q 1088 127 1033 108 q 1175 179 1142 146 z "},"ဢ":{"ha":1553,"x_min":0,"x_max":1414,"o":"m 0 383 q 113 667 0 556 q 400 778 228 778 q 682 667 571 778 l 692 656 q 701 644 696 650 q 707 636 706 639 l 715 644 l 710 644 q 1022 779 850 779 q 1304 668 1193 779 q 1414 385 1414 558 q 1303 99 1414 213 q 1022 -12 1192 -12 q 901 1 967 -12 q 924 60 918 39 q 940 114 929 81 q 984 108 968 110 q 1022 107 1000 107 q 1218 186 1143 107 q 1299 385 1299 267 q 1218 581 1299 501 q 1022 660 1143 660 q 821 582 903 660 q 772 517 789 549 q 792 383 792 456 q 681 63 792 186 q 630 18 657 38 q 558 -19 603 -1 q 531 33 542 15 q 504 88 521 50 q 558 118 540 104 q 596 150 576 132 q 676 383 676 239 q 596 579 676 500 q 400 658 521 658 q 199 581 281 658 q 119 383 119 501 l 119 374 q 142 375 136 375 q 218 360 182 375 q 280 318 254 344 q 322 256 306 292 q 338 181 338 221 q 322 105 338 140 q 280 43 306 69 q 218 1 254 17 q 142 -14 182 -14 q 74 -3 107 -14 q 7 39 42 8 l 81 131 q 144 99 113 99 q 171 106 157 99 q 194 126 185 114 q 210 153 204 138 q 217 183 217 168 q 197 233 217 211 q 146 256 176 254 q 137 258 140 258 q 122 257 133 257 q 88 258 108 257 q 48 271 68 258 q 15 309 28 283 q 0 383 1 335 z "},"ဣ":{"ha":1553,"x_min":0,"x_max":1414,"o":"m 646 228 l 646 517 q 620 553 638 532 q 599 578 603 575 l 599 575 q 507 634 550 617 q 400 658 464 651 q 199 581 281 658 q 119 383 119 501 q 197 182 119 263 q 249 142 221 160 q 324 113 278 125 q 301 54 308 72 q 282 0 294 36 q 111 96 176 31 q 0 383 0 207 q 113 667 0 556 q 400 778 228 778 q 682 667 571 778 l 708 638 q 735 667 721 653 q 1022 778 850 778 q 1304 667 1193 778 q 1414 383 1414 557 q 1303 97 1414 211 q 1236 42 1269 64 q 1146 4 1203 21 l 1113 117 q 1218 185 1174 140 q 1299 383 1299 265 q 1218 579 1299 500 q 1022 658 1143 658 q 821 581 903 658 q 774 517 790 549 q 773 381 774 450 q 772 226 772 311 l 646 228 m 919 -382 q 997 -337 974 -358 q 1038 -236 1038 -297 q 1026 -181 1038 -208 q 997 -132 1015 -153 q 952 -99 978 -111 q 897 -86 926 -86 q 838 -97 864 -86 q 790 -128 813 -108 l 771 -153 l 771 -357 q 705 -356 725 -357 q 642 -356 685 -356 l 642 -156 q 628 -141 639 -153 q 606 -119 618 -129 q 570 -101 594 -110 q 521 -86 546 -92 q 463 -99 490 -87 q 415 -132 436 -111 q 383 -179 394 -153 q 372 -236 372 -206 q 413 -339 372 -299 q 506 -387 439 -364 q 483 -445 490 -426 q 464 -500 476 -464 q 380 -467 410 -485 q 325 -428 350 -450 q 250 -236 250 -356 q 325 -46 250 -121 q 414 11 365 -7 q 519 29 463 29 q 624 8 575 29 q 706 -44 674 -14 q 792 8 742 -12 q 897 29 842 29 q 1001 10 953 29 q 1085 -46 1049 -10 q 1140 -133 1119 -85 q 1160 -236 1160 -181 q 1140 -340 1160 -292 q 1086 -426 1121 -387 q 1075 -435 1083 -429 q 1058 -448 1067 -440 q 1042 -463 1049 -456 q 1040 -457 1035 -471 l 1257 -457 l 1257 -565 l 919 -565 l 919 -382 z "},"ဤ":{"ha":1761,"x_min":0,"x_max":1696,"o":"m 4 -296 q 17 -217 0 -254 q 63 -151 33 -179 q 132 -108 92 -124 q 217 -97 172 -93 q 363 -109 293 -97 q 491 -142 432 -121 q 599 -187 550 -162 q 699 -243 649 -212 q 685 -305 690 -276 q 672 -378 681 -333 q 577 -310 619 -335 q 481 -267 535 -286 q 360 -236 428 -249 q 210 -219 293 -224 q 149 -243 169 -225 q 122 -289 129 -261 l 122 -367 q 142 -427 121 -408 q 210 -449 163 -446 l 1300 -449 l 1300 386 q 1219 579 1299 500 q 1024 658 1144 658 q 822 581 904 658 q 796 549 808 565 q 775 517 783 532 q 789 453 785 488 q 793 383 793 419 q 683 63 793 186 q 631 18 658 38 q 560 -19 604 -1 q 533 33 543 15 q 506 88 522 50 q 560 118 542 104 q 597 150 579 132 q 678 383 678 239 q 597 579 678 500 q 401 658 522 658 q 200 581 282 658 q 121 383 121 501 q 199 147 121 236 q 233 118 217 129 q 285 90 250 107 q 260 34 269 53 q 238 -21 251 15 q 113 61 160 13 q 1 383 1 181 q 114 667 1 556 q 401 778 229 778 q 683 667 572 778 l 711 638 q 736 667 722 653 q 1024 778 851 778 q 1306 667 1194 778 q 1415 383 1415 557 l 1415 -449 q 1383 -529 1413 -501 q 1299 -565 1353 -557 l 125 -565 q 6 -449 10 -551 l 4 -296 m 1504 492 q 1487 611 1503 561 q 1445 698 1471 661 q 1386 763 1419 735 q 1318 818 1353 790 q 1257 867 1288 840 q 1201 929 1226 894 q 1158 1009 1175 964 q 1136 1113 1140 1054 q 1159 1224 1138 1171 q 1221 1318 1181 1278 q 1431 1404 1307 1404 q 1636 1318 1556 1404 q 1696 1226 1672 1283 l 1589 1179 q 1569 1217 1576 1206 q 1553 1238 1563 1228 q 1428 1288 1504 1288 q 1300 1238 1349 1288 q 1251 1110 1251 1189 q 1269 1036 1256 1068 q 1304 978 1283 1004 q 1353 928 1325 951 q 1410 881 1381 904 q 1486 814 1447 850 q 1556 728 1525 778 q 1605 613 1586 679 q 1621 457 1624 547 l 1621 -567 l 1504 -567 l 1504 492 z "},"ဥ":{"ha":907,"x_min":0,"x_max":768,"o":"m 119 -565 q 0 -485 0 -569 l 0 213 q 49 237 33 229 q 74 249 64 244 q 90 257 85 254 q 113 268 96 260 q 144 217 131 235 q 174 182 158 199 q 376 106 251 106 q 572 185 494 106 q 651 383 651 265 q 572 579 651 500 q 376 658 494 658 q 175 581 254 658 q 115 493 140 546 q 58 517 78 508 q 4 542 39 526 q 43 614 22 585 q 89 667 64 643 q 376 778 204 778 q 658 667 547 778 q 768 383 768 557 q 657 97 768 211 q 376 -14 546 -14 q 119 67 222 -14 l 119 -449 l 657 -449 l 657 -360 q 633 -328 654 -337 q 569 -319 611 -318 l 569 -211 q 711 -248 657 -210 q 768 -361 765 -286 l 768 -475 q 735 -532 765 -510 q 656 -565 704 -554 l 119 -565 z "},"ဦ":{"ha":907,"x_min":0,"x_max":768,"o":"m 119 -565 q 0 -485 0 -569 l 0 213 q 49 237 33 229 q 74 249 64 244 q 90 257 85 254 q 113 268 96 260 q 144 217 131 235 q 174 182 158 199 q 376 106 251 106 q 572 185 494 106 q 651 383 651 265 q 572 579 651 500 q 376 658 494 658 q 175 581 254 658 q 115 493 140 546 q 58 517 78 508 q 4 542 39 526 q 43 614 22 585 q 89 667 64 643 q 376 778 204 778 q 658 667 547 778 q 768 383 768 557 q 657 97 768 211 q 376 -14 546 -14 q 119 67 222 -14 l 119 -449 l 657 -449 l 657 -360 q 633 -328 654 -337 q 569 -319 611 -318 l 569 -211 q 711 -248 657 -210 q 768 -361 765 -286 l 768 -475 q 735 -532 765 -510 q 656 -565 704 -554 l 119 -565 m 376 824 q 172 908 256 824 q 89 1115 89 992 q 172 1321 89 1238 q 379 1404 256 1404 q 583 1321 500 1404 q 664 1115 664 1236 q 579 910 664 999 q 376 824 497 824 m 376 1289 q 251 1241 299 1289 q 203 1115 203 1193 q 214 1054 203 1082 q 276 1108 232 1079 q 369 1136 321 1136 q 469 1106 422 1136 q 535 1049 517 1075 q 547 1114 544 1079 q 535 1185 547 1153 q 500 1241 522 1218 q 447 1276 478 1264 q 376 1289 415 1289 m 372 946 q 442 958 406 946 q 419 997 439 976 q 372 1017 399 1017 q 327 997 347 1017 q 303 958 307 976 q 372 946 335 946 z "},"ဧ":{"ha":931,"x_min":0,"x_max":763,"o":"m 725 261 q 742 243 733 253 q 761 215 750 233 q 725 149 744 176 q 681 96 706 121 q 392 -14 571 -14 q 110 97 221 -14 q 0 383 0 208 q 110 667 0 557 q 392 778 221 778 q 679 667 564 778 q 763 544 731 613 q 444 389 643 389 q 157 500 272 389 l 144 511 q 125 454 133 490 q 117 383 117 418 q 146 251 117 311 l 157 261 q 444 372 272 372 q 598 342 526 372 q 725 261 669 313 m 392 658 q 225 606 293 658 q 242 586 238 589 q 334 527 283 547 q 444 507 385 507 q 611 561 538 507 l 593 581 q 392 658 514 658 m 611 200 q 444 254 538 254 q 240 174 322 254 l 226 157 q 392 106 294 106 q 596 183 517 106 l 611 200 z "},"ဨ":{"ha":931,"x_min":0,"x_max":792,"o":"m 435 -19 q 349 24 385 -8 q 314 103 314 57 q 342 192 314 140 q 416 317 396 271 q 436 386 436 363 q 419 421 436 414 q 381 428 403 428 q 339 409 356 428 q 322 354 322 390 l 226 315 q 218 347 218 338 q 218 364 218 356 q 231 427 218 397 q 266 478 244 457 q 317 513 288 500 q 379 526 346 526 q 442 513 413 526 q 493 478 472 500 q 527 427 514 457 q 540 364 540 397 q 525 300 540 332 q 491 238 510 268 q 456 180 472 208 q 436 124 440 151 q 442 106 435 114 q 467 93 450 99 q 503 85 483 88 q 540 88 524 83 q 578 103 558 90 q 616 138 599 117 q 644 185 633 158 q 656 243 656 213 l 653 493 q 596 579 635 538 q 400 658 518 658 q 199 581 278 658 q 118 388 121 504 l 115 -175 q 137 -279 117 -232 q 196 -367 157 -326 q 392 -446 272 -446 q 593 -368 513 -446 q 672 -171 668 -293 q 733 -170 710 -171 q 792 -169 756 -169 q 762 -333 789 -265 q 679 -456 735 -401 q 392 -565 568 -565 q 111 -453 221 -565 q 29 -332 56 -399 q 0 -185 3 -265 l 0 397 q 113 667 4 561 q 400 778 228 778 q 672 675 569 778 q 749 565 724 624 q 775 442 774 507 l 775 221 q 744 114 771 160 q 686 38 718 68 q 622 -9 654 7 q 574 -21 589 -25 l 435 -19 z "},"ဩ":{"ha":1731,"x_min":3,"x_max":1599,"o":"m 1097 767 q 1203 778 1156 778 q 1485 667 1374 778 q 1594 389 1593 557 l 1597 -449 q 1566 -539 1599 -512 q 1481 -565 1533 -565 q 804 -566 1142 -565 q 126 -567 467 -567 q 36 -533 67 -564 q 10 -449 6 -501 l 11 1288 q 128 1404 3 1408 l 1475 1404 q 1593 1288 1593 1413 l 1593 1029 l 1476 1029 l 1476 1288 l 128 1288 l 128 -449 l 1481 -449 l 1481 96 q 1203 -14 1371 -14 q 914 96 1024 -14 q 899 110 911 97 q 886 126 888 124 q 874 112 881 121 q 861 97 867 103 q 581 -14 750 -14 q 292 96 401 -14 q 210 217 242 142 l 319 267 q 347 217 335 232 q 378 182 358 201 q 581 106 458 106 q 776 185 699 106 q 856 383 856 264 q 776 579 856 501 q 581 658 699 658 q 379 581 461 658 q 347 544 360 563 q 319 493 335 526 q 263 517 282 508 q 208 542 244 526 q 247 614 226 585 q 293 667 268 643 q 581 778 408 778 q 863 667 751 778 q 972 383 972 557 q 951 246 972 307 q 972 215 960 232 q 1000 182 985 197 q 1203 106 1078 106 q 1399 185 1321 106 q 1478 383 1478 265 q 1399 579 1478 500 q 1203 658 1321 658 q 1132 653 1171 658 l 1097 767 z "},"ဪ":{"ha":3386,"x_min":0,"x_max":3249,"o":"m 1971 767 q 2075 778 2029 778 q 2357 667 2246 778 q 2467 389 2465 557 l 2469 -449 q 2439 -539 2471 -512 q 2353 -565 2407 -565 q 1676 -566 2014 -565 q 1000 -567 1339 -567 q 910 -533 940 -564 q 882 -449 879 -501 l 883 1288 q 1000 1404 875 1408 l 2349 1404 q 2465 1288 2465 1413 l 2465 1003 l 2350 1003 l 2350 1288 l 1000 1288 l 1000 -449 l 2354 -449 l 2354 96 q 2075 -14 2242 -14 q 1786 96 1896 -14 q 1773 110 1785 97 q 1760 126 1761 124 q 1747 112 1756 121 q 1733 97 1739 103 q 1453 -14 1622 -14 q 1164 96 1274 -14 q 1081 217 1118 142 l 1193 267 q 1221 217 1208 232 q 1250 182 1233 201 q 1453 106 1331 106 q 1649 185 1574 106 q 1729 383 1729 265 q 1649 579 1729 500 q 1453 658 1574 658 q 1251 581 1333 658 q 1193 493 1217 544 q 1136 517 1156 508 q 1079 542 1117 526 q 1120 613 1100 585 q 1165 667 1140 642 q 1453 778 1283 778 q 1735 667 1624 778 q 1844 383 1844 557 q 1825 246 1844 308 q 1845 214 1832 231 q 1872 182 1858 197 q 2075 106 1953 106 q 2271 185 2196 106 q 2351 383 2351 265 q 2271 579 2351 500 q 2075 658 2196 658 q 2006 653 2043 658 l 1971 767 m 701 285 q 742 243 733 253 q 761 215 750 233 q 725 149 744 176 q 681 96 706 121 q 392 -14 571 -14 q 110 97 221 -14 q 0 383 0 208 q 110 667 0 557 q 392 778 221 778 q 679 667 564 778 q 726 614 706 642 q 764 542 746 586 q 707 516 726 525 q 653 493 688 507 q 624 544 636 526 q 593 581 611 563 q 392 658 514 658 q 194 579 274 658 q 117 383 117 501 q 146 251 117 311 l 156 261 q 443 372 274 372 q 597 342 525 372 q 701 283 669 313 l 701 285 m 611 200 q 443 254 538 254 q 240 174 322 254 l 226 157 q 392 106 294 106 q 596 183 514 106 l 611 200 m 2788 111 q 2826 105 2813 106 q 2857 104 2839 104 q 3053 182 2976 104 q 3133 379 3133 263 q 3053 578 3133 497 q 2857 657 2978 657 q 2654 581 2735 657 q 2619 536 2633 560 q 2585 464 2604 513 q 2536 524 2550 508 q 2497 569 2522 539 q 2532 624 2515 601 q 2568 667 2549 646 q 2857 776 2678 776 q 3138 664 3026 776 q 3249 379 3249 553 q 3139 96 3249 206 q 2857 -15 3028 -15 q 2753 -4 2811 -15 l 2788 111 m 2936 825 q 2890 818 2907 819 q 2858 817 2874 817 q 2650 903 2736 817 q 2567 1113 2567 986 q 2651 1319 2567 1235 q 2861 1406 2738 1406 q 3067 1319 2985 1406 q 3126 1228 3101 1285 l 3018 1181 q 3001 1218 3008 1207 q 2983 1239 2993 1229 q 2858 1289 2935 1289 q 2731 1240 2779 1289 q 2683 1113 2683 1192 q 2697 1042 2683 1075 q 2737 985 2711 1010 q 2795 947 2763 961 q 2865 933 2828 933 q 2887 933 2872 933 q 2922 936 2901 932 l 2936 825 z "},"ါ":{"ha":1219,"x_min":14,"x_max":1081,"o":"m 497 1114 q 522 1231 501 1183 q 583 1318 543 1278 q 793 1404 669 1404 q 999 1318 917 1404 q 1081 1121 1076 1239 l 1081 -14 l 963 -14 l 963 1114 q 915 1238 961 1186 q 790 1288 867 1288 q 664 1239 711 1288 q 613 1114 622 1194 l 497 1114 m 56 425 q 85 413 72 425 q 97 385 97 401 q 85 354 97 367 q 56 342 72 342 q 26 354 38 342 q 14 385 14 367 q 26 413 14 401 q 56 425 38 425 m 401 760 q 431 748 418 760 q 443 717 443 736 q 431 689 443 701 q 401 676 418 676 q 372 689 383 676 q 360 717 360 701 q 372 748 360 736 q 401 760 383 760 m 401 82 q 431 70 418 82 q 443 42 443 58 q 431 11 443 24 q 401 -1 418 -1 q 372 11 383 -1 q 360 42 360 24 q 372 70 360 58 q 401 82 383 82 m 163 178 q 192 166 179 178 q 204 135 204 154 q 192 107 204 119 q 163 94 179 94 q 133 107 144 94 q 121 135 121 119 q 133 166 121 154 q 163 178 144 178 m 82 283 q 114 272 101 283 q 126 240 126 260 q 114 211 126 225 q 82 197 101 197 q 53 211 67 197 q 40 240 40 225 q 53 272 40 260 q 82 283 67 283 m 265 108 q 297 97 285 108 q 310 65 310 85 q 297 36 310 50 q 265 22 285 22 q 238 36 250 22 q 226 65 226 50 q 238 97 226 85 q 265 108 250 108 m 163 583 q 133 595 144 583 q 121 626 121 607 q 133 654 121 642 q 163 667 144 667 q 192 654 179 667 q 204 626 204 642 q 192 595 204 607 q 163 583 179 583 m 82 478 q 53 490 67 478 q 40 521 40 503 q 53 550 40 536 q 82 564 67 564 q 114 550 101 564 q 126 521 126 536 q 114 490 126 503 q 82 478 101 478 m 265 653 q 238 665 250 653 q 226 696 226 676 q 238 725 226 711 q 265 739 250 739 q 297 725 285 739 q 310 696 310 711 q 297 665 310 676 q 265 653 285 653 m 735 425 q 765 413 753 425 q 776 385 776 401 q 765 354 776 367 q 735 342 753 342 q 706 354 718 342 q 693 385 693 367 q 706 413 693 401 q 735 425 718 425 m 628 178 q 658 166 646 178 q 669 135 669 154 q 658 107 669 119 q 628 94 646 94 q 599 107 611 94 q 586 135 586 119 q 599 166 586 154 q 628 178 611 178 m 708 283 q 737 272 724 283 q 750 240 750 260 q 737 211 750 225 q 708 197 724 197 q 676 211 689 197 q 664 240 664 225 q 676 272 664 260 q 708 283 689 283 m 525 108 q 552 97 540 108 q 564 65 564 85 q 552 36 564 50 q 525 22 540 22 q 493 36 506 22 q 481 65 481 50 q 493 97 481 85 q 525 108 506 108 m 628 583 q 599 595 611 583 q 586 626 586 607 q 599 654 586 642 q 628 667 611 667 q 658 654 646 667 q 669 626 669 642 q 658 595 669 607 q 628 583 646 583 m 708 478 q 676 490 689 478 q 664 521 664 503 q 676 550 664 536 q 708 564 689 564 q 737 550 724 564 q 750 521 750 536 q 737 490 750 503 q 708 478 724 478 m 525 653 q 493 665 506 653 q 481 696 481 676 q 493 725 481 711 q 525 739 506 739 q 552 725 540 739 q 564 696 564 711 q 552 665 564 676 q 525 653 540 653 z "},"ာ":{"ha":1735,"x_min":14,"x_max":1596,"o":"m 1135 111 q 1173 105 1160 106 q 1204 104 1186 104 q 1400 182 1324 104 q 1481 379 1481 263 q 1400 578 1481 497 q 1204 657 1325 657 q 1001 581 1082 657 q 966 536 981 560 q 932 464 951 513 q 883 524 897 508 q 844 569 869 539 q 879 624 863 601 q 915 667 896 646 q 1204 776 1025 776 q 1485 664 1374 776 q 1596 379 1596 553 q 1486 96 1596 206 q 1204 -15 1375 -15 q 1100 -4 1158 -15 l 1135 111 m 56 425 q 85 413 72 425 q 97 385 97 401 q 85 354 97 367 q 56 342 72 342 q 26 354 38 342 q 14 385 14 367 q 26 413 14 401 q 56 425 38 425 m 401 760 q 431 748 418 760 q 443 717 443 736 q 431 689 443 701 q 401 676 418 676 q 372 689 383 676 q 360 717 360 701 q 372 748 360 736 q 401 760 383 760 m 401 82 q 431 70 418 82 q 443 42 443 58 q 431 11 443 24 q 401 -1 418 -1 q 372 11 383 -1 q 360 42 360 24 q 372 70 360 58 q 401 82 383 82 m 163 178 q 192 166 179 178 q 204 135 204 154 q 192 107 204 119 q 163 94 179 94 q 133 107 144 94 q 121 135 121 119 q 133 166 121 154 q 163 178 144 178 m 82 283 q 114 272 101 283 q 126 240 126 260 q 114 211 126 225 q 82 197 101 197 q 53 211 67 197 q 40 240 40 225 q 53 272 40 260 q 82 283 67 283 m 265 108 q 297 97 285 108 q 310 65 310 85 q 297 36 310 50 q 265 22 285 22 q 238 36 250 22 q 226 65 226 50 q 238 97 226 85 q 265 108 250 108 m 163 583 q 133 595 144 583 q 121 626 121 607 q 133 654 121 642 q 163 667 144 667 q 192 654 179 667 q 204 626 204 642 q 192 595 204 607 q 163 583 179 583 m 82 478 q 53 490 67 478 q 40 521 40 503 q 53 550 40 536 q 82 564 67 564 q 114 550 101 564 q 126 521 126 536 q 114 490 126 503 q 82 478 101 478 m 265 653 q 238 665 250 653 q 226 696 226 676 q 238 725 226 711 q 265 739 250 739 q 297 725 285 739 q 310 696 310 711 q 297 665 310 676 q 265 653 285 653 m 735 425 q 765 413 753 425 q 776 385 776 401 q 765 354 776 367 q 735 342 753 342 q 706 354 718 342 q 693 385 693 367 q 706 413 693 401 q 735 425 718 425 m 628 178 q 658 166 646 178 q 669 135 669 154 q 658 107 669 119 q 628 94 646 94 q 599 107 611 94 q 586 135 586 119 q 599 166 586 154 q 628 178 611 178 m 708 283 q 737 272 724 283 q 750 240 750 260 q 737 211 750 225 q 708 197 724 197 q 676 211 689 197 q 664 240 664 225 q 676 272 664 260 q 708 283 689 283 m 525 108 q 552 97 540 108 q 564 65 564 85 q 552 36 564 50 q 525 22 540 22 q 493 36 506 22 q 481 65 481 50 q 493 97 481 85 q 525 108 506 108 m 628 583 q 599 595 611 583 q 586 626 586 607 q 599 654 586 642 q 628 667 611 667 q 658 654 646 667 q 669 626 669 642 q 658 595 669 607 q 628 583 646 583 m 708 478 q 676 490 689 478 q 664 521 664 503 q 676 550 664 536 q 708 564 689 564 q 737 550 724 564 q 750 521 750 536 q 737 490 750 503 q 708 478 724 478 m 525 653 q 493 665 506 653 q 481 696 481 676 q 493 725 481 711 q 525 739 506 739 q 552 725 540 739 q 564 696 564 711 q 552 665 564 676 q 525 653 540 653 z "},"ိ":{"ha":915,"x_min":14,"x_max":776,"o":"m 410 815 q 201 901 288 815 q 118 1111 118 985 q 203 1318 118 1233 q 413 1404 289 1404 q 618 1318 536 1404 q 700 1111 700 1233 q 615 903 700 992 q 410 815 529 815 m 410 1288 q 283 1239 331 1288 q 235 1111 235 1190 q 248 1041 235 1074 q 283 985 261 1008 q 337 948 306 961 q 406 935 368 935 q 531 983 483 935 q 582 1111 579 1032 q 535 1238 582 1189 q 410 1288 488 1288 m 56 425 q 85 413 72 425 q 97 385 97 401 q 85 354 97 367 q 56 342 72 342 q 26 354 38 342 q 14 385 14 367 q 26 413 14 401 q 56 425 38 425 m 401 760 q 431 748 418 760 q 443 717 443 736 q 431 689 443 701 q 401 676 418 676 q 372 689 383 676 q 360 717 360 701 q 372 748 360 736 q 401 760 383 760 m 401 82 q 431 70 418 82 q 443 42 443 58 q 431 11 443 24 q 401 -1 418 -1 q 372 11 383 -1 q 360 42 360 24 q 372 70 360 58 q 401 82 383 82 m 163 178 q 192 166 179 178 q 204 135 204 154 q 192 107 204 119 q 163 94 179 94 q 133 107 144 94 q 121 135 121 119 q 133 166 121 154 q 163 178 144 178 m 82 283 q 114 272 101 283 q 126 240 126 260 q 114 211 126 225 q 82 197 101 197 q 53 211 67 197 q 40 240 40 225 q 53 272 40 260 q 82 283 67 283 m 265 108 q 297 97 285 108 q 310 65 310 85 q 297 36 310 50 q 265 22 285 22 q 238 36 250 22 q 226 65 226 50 q 238 97 226 85 q 265 108 250 108 m 163 583 q 133 595 144 583 q 121 626 121 607 q 133 654 121 642 q 163 667 144 667 q 192 654 179 667 q 204 626 204 642 q 192 595 204 607 q 163 583 179 583 m 82 478 q 53 490 67 478 q 40 521 40 503 q 53 550 40 536 q 82 564 67 564 q 114 550 101 564 q 126 521 126 536 q 114 490 126 503 q 82 478 101 478 m 265 653 q 238 665 250 653 q 226 696 226 676 q 238 725 226 711 q 265 739 250 739 q 297 725 285 739 q 310 696 310 711 q 297 665 310 676 q 265 653 285 653 m 735 425 q 765 413 753 425 q 776 385 776 401 q 765 354 776 367 q 735 342 753 342 q 706 354 718 342 q 693 385 693 367 q 706 413 693 401 q 735 425 718 425 m 628 178 q 658 166 646 178 q 669 135 669 154 q 658 107 669 119 q 628 94 646 94 q 599 107 611 94 q 586 135 586 119 q 599 166 586 154 q 628 178 611 178 m 708 283 q 737 272 724 283 q 750 240 750 260 q 737 211 750 225 q 708 197 724 197 q 676 211 689 197 q 664 240 664 225 q 676 272 664 260 q 708 283 689 283 m 525 108 q 552 97 540 108 q 564 65 564 85 q 552 36 564 50 q 525 22 540 22 q 493 36 506 22 q 481 65 481 50 q 493 97 481 85 q 525 108 506 108 m 628 583 q 599 595 611 583 q 586 626 586 607 q 599 654 586 642 q 628 667 611 667 q 658 654 646 667 q 669 626 669 642 q 658 595 669 607 q 628 583 646 583 m 708 478 q 676 490 689 478 q 664 521 664 503 q 676 550 664 536 q 708 564 689 564 q 737 550 724 564 q 750 521 750 536 q 737 490 750 503 q 708 478 724 478 m 525 653 q 493 665 506 653 q 481 696 481 676 q 493 725 481 711 q 525 739 506 739 q 552 725 540 739 q 564 696 564 711 q 552 665 564 676 q 525 653 540 653 z "},"ီ":{"ha":915,"x_min":14,"x_max":776,"o":"m 56 425 q 85 413 72 425 q 97 385 97 401 q 85 354 97 367 q 56 342 72 342 q 26 354 38 342 q 14 385 14 367 q 26 413 14 401 q 56 425 38 425 m 401 760 q 431 748 418 760 q 443 717 443 736 q 431 689 443 701 q 401 676 418 676 q 372 689 383 676 q 360 717 360 701 q 372 748 360 736 q 401 760 383 760 m 401 82 q 431 70 418 82 q 443 42 443 58 q 431 11 443 24 q 401 -1 418 -1 q 372 11 383 -1 q 360 42 360 24 q 372 70 360 58 q 401 82 383 82 m 163 178 q 192 166 179 178 q 204 135 204 154 q 192 107 204 119 q 163 94 179 94 q 133 107 144 94 q 121 135 121 119 q 133 166 121 154 q 163 178 144 178 m 82 283 q 114 272 101 283 q 126 240 126 260 q 114 211 126 225 q 82 197 101 197 q 53 211 67 197 q 40 240 40 225 q 53 272 40 260 q 82 283 67 283 m 265 108 q 297 97 285 108 q 310 65 310 85 q 297 36 310 50 q 265 22 285 22 q 238 36 250 22 q 226 65 226 50 q 238 97 226 85 q 265 108 250 108 m 163 583 q 133 595 144 583 q 121 626 121 607 q 133 654 121 642 q 163 667 144 667 q 192 654 179 667 q 204 626 204 642 q 192 595 204 607 q 163 583 179 583 m 82 478 q 53 490 67 478 q 40 521 40 503 q 53 550 40 536 q 82 564 67 564 q 114 550 101 564 q 126 521 126 536 q 114 490 126 503 q 82 478 101 478 m 265 653 q 238 665 250 653 q 226 696 226 676 q 238 725 226 711 q 265 739 250 739 q 297 725 285 739 q 310 696 310 711 q 297 665 310 676 q 265 653 285 653 m 735 425 q 765 413 753 425 q 776 385 776 401 q 765 354 776 367 q 735 342 753 342 q 706 354 718 342 q 693 385 693 367 q 706 413 693 401 q 735 425 718 425 m 628 178 q 658 166 646 178 q 669 135 669 154 q 658 107 669 119 q 628 94 646 94 q 599 107 611 94 q 586 135 586 119 q 599 166 586 154 q 628 178 611 178 m 708 283 q 737 272 724 283 q 750 240 750 260 q 737 211 750 225 q 708 197 724 197 q 676 211 689 197 q 664 240 664 225 q 676 272 664 260 q 708 283 689 283 m 525 108 q 552 97 540 108 q 564 65 564 85 q 552 36 564 50 q 525 22 540 22 q 493 36 506 22 q 481 65 481 50 q 493 97 481 85 q 525 108 506 108 m 628 583 q 599 595 611 583 q 586 626 586 607 q 599 654 586 642 q 628 667 611 667 q 658 654 646 667 q 669 626 669 642 q 658 595 669 607 q 628 583 646 583 m 708 478 q 676 490 689 478 q 664 521 664 503 q 676 550 664 536 q 708 564 689 564 q 737 550 724 564 q 750 521 750 536 q 737 490 750 503 q 708 478 724 478 m 525 653 q 493 665 506 653 q 481 696 481 676 q 493 725 481 711 q 525 739 506 739 q 552 725 540 739 q 564 696 564 711 q 552 665 564 676 q 525 653 540 653 m 408 825 q 204 910 288 825 q 121 1117 121 993 q 204 1322 121 1239 q 411 1406 288 1406 q 615 1322 532 1406 q 696 1117 696 1238 q 611 911 696 1000 q 408 825 529 825 m 408 1290 q 283 1242 331 1290 q 235 1117 235 1194 q 246 1056 235 1083 q 308 1109 264 1081 q 401 1138 353 1138 q 501 1107 454 1138 q 567 1050 549 1076 q 579 1115 576 1081 q 567 1187 579 1154 q 532 1242 554 1219 q 478 1278 510 1265 q 408 1290 447 1290 m 404 947 q 474 960 438 947 q 451 998 471 978 q 404 1018 431 1018 q 359 998 379 1018 q 335 960 339 978 q 404 947 367 947 z "},"ု":{"ha":915,"x_min":14,"x_max":776,"o":"m 636 -565 q 535 -566 575 -565 q 446 -567 496 -567 q 351 -479 354 -544 q 351 -231 351 -349 q 350 32 350 -112 l 465 32 l 465 -446 l 636 -446 l 636 -565 m 56 425 q 85 413 72 425 q 97 385 97 401 q 85 354 97 367 q 56 342 72 342 q 26 354 38 342 q 14 385 14 367 q 26 413 14 401 q 56 425 38 425 m 401 760 q 431 748 418 760 q 443 717 443 736 q 431 689 443 701 q 401 676 418 676 q 372 689 383 676 q 360 717 360 701 q 372 748 360 736 q 401 760 383 760 m 401 82 q 431 70 418 82 q 443 42 443 58 q 431 11 443 24 q 401 -1 418 -1 q 372 11 383 -1 q 360 42 360 24 q 372 70 360 58 q 401 82 383 82 m 163 178 q 192 166 179 178 q 204 135 204 154 q 192 107 204 119 q 163 94 179 94 q 133 107 144 94 q 121 135 121 119 q 133 166 121 154 q 163 178 144 178 m 82 283 q 114 272 101 283 q 126 240 126 260 q 114 211 126 225 q 82 197 101 197 q 53 211 67 197 q 40 240 40 225 q 53 272 40 260 q 82 283 67 283 m 265 108 q 297 97 285 108 q 310 65 310 85 q 297 36 310 50 q 265 22 285 22 q 238 36 250 22 q 226 65 226 50 q 238 97 226 85 q 265 108 250 108 m 163 583 q 133 595 144 583 q 121 626 121 607 q 133 654 121 642 q 163 667 144 667 q 192 654 179 667 q 204 626 204 642 q 192 595 204 607 q 163 583 179 583 m 82 478 q 53 490 67 478 q 40 521 40 503 q 53 550 40 536 q 82 564 67 564 q 114 550 101 564 q 126 521 126 536 q 114 490 126 503 q 82 478 101 478 m 265 653 q 238 665 250 653 q 226 696 226 676 q 238 725 226 711 q 265 739 250 739 q 297 725 285 739 q 310 696 310 711 q 297 665 310 676 q 265 653 285 653 m 735 425 q 765 413 753 425 q 776 385 776 401 q 765 354 776 367 q 735 342 753 342 q 706 354 718 342 q 693 385 693 367 q 706 413 693 401 q 735 425 718 425 m 628 178 q 658 166 646 178 q 669 135 669 154 q 658 107 669 119 q 628 94 646 94 q 599 107 611 94 q 586 135 586 119 q 599 166 586 154 q 628 178 611 178 m 708 283 q 737 272 724 283 q 750 240 750 260 q 737 211 750 225 q 708 197 724 197 q 676 211 689 197 q 664 240 664 225 q 676 272 664 260 q 708 283 689 283 m 525 108 q 552 97 540 108 q 564 65 564 85 q 552 36 564 50 q 525 22 540 22 q 493 36 506 22 q 481 65 481 50 q 493 97 481 85 q 525 108 506 108 m 628 583 q 599 595 611 583 q 586 626 586 607 q 599 654 586 642 q 628 667 611 667 q 658 654 646 667 q 669 626 669 642 q 658 595 669 607 q 628 583 646 583 m 708 478 q 676 490 689 478 q 664 521 664 503 q 676 550 664 536 q 708 564 689 564 q 737 550 724 564 q 750 521 750 536 q 737 490 750 503 q 708 478 724 478 m 525 653 q 493 665 506 653 q 481 696 481 676 q 493 725 481 711 q 525 739 506 739 q 552 725 540 739 q 564 696 564 711 q 552 665 564 676 q 525 653 540 653 z "},"ူ":{"ha":915,"x_min":14,"x_max":776,"o":"m 735 -565 q 632 -566 672 -565 q 543 -567 592 -567 q 446 -478 449 -544 l 444 33 l 563 33 l 563 -444 l 735 -444 l 735 -565 m 258 -565 l 257 33 l 374 33 l 374 -565 l 258 -565 m 56 425 q 85 413 72 425 q 97 385 97 401 q 85 354 97 367 q 56 342 72 342 q 26 354 38 342 q 14 385 14 367 q 26 413 14 401 q 56 425 38 425 m 401 760 q 431 748 418 760 q 443 717 443 736 q 431 689 443 701 q 401 676 418 676 q 372 689 383 676 q 360 717 360 701 q 372 748 360 736 q 401 760 383 760 m 401 82 q 431 70 418 82 q 443 42 443 58 q 431 11 443 24 q 401 -1 418 -1 q 372 11 383 -1 q 360 42 360 24 q 372 70 360 58 q 401 82 383 82 m 163 178 q 192 166 179 178 q 204 135 204 154 q 192 107 204 119 q 163 94 179 94 q 133 107 144 94 q 121 135 121 119 q 133 166 121 154 q 163 178 144 178 m 82 283 q 114 272 101 283 q 126 240 126 260 q 114 211 126 225 q 82 197 101 197 q 53 211 67 197 q 40 240 40 225 q 53 272 40 260 q 82 283 67 283 m 265 108 q 297 97 285 108 q 310 65 310 85 q 297 36 310 50 q 265 22 285 22 q 238 36 250 22 q 226 65 226 50 q 238 97 226 85 q 265 108 250 108 m 163 583 q 133 595 144 583 q 121 626 121 607 q 133 654 121 642 q 163 667 144 667 q 192 654 179 667 q 204 626 204 642 q 192 595 204 607 q 163 583 179 583 m 82 478 q 53 490 67 478 q 40 521 40 503 q 53 550 40 536 q 82 564 67 564 q 114 550 101 564 q 126 521 126 536 q 114 490 126 503 q 82 478 101 478 m 265 653 q 238 665 250 653 q 226 696 226 676 q 238 725 226 711 q 265 739 250 739 q 297 725 285 739 q 310 696 310 711 q 297 665 310 676 q 265 653 285 653 m 735 425 q 765 413 753 425 q 776 385 776 401 q 765 354 776 367 q 735 342 753 342 q 706 354 718 342 q 693 385 693 367 q 706 413 693 401 q 735 425 718 425 m 628 178 q 658 166 646 178 q 669 135 669 154 q 658 107 669 119 q 628 94 646 94 q 599 107 611 94 q 586 135 586 119 q 599 166 586 154 q 628 178 611 178 m 708 283 q 737 272 724 283 q 750 240 750 260 q 737 211 750 225 q 708 197 724 197 q 676 211 689 197 q 664 240 664 225 q 676 272 664 260 q 708 283 689 283 m 525 108 q 552 97 540 108 q 564 65 564 85 q 552 36 564 50 q 525 22 540 22 q 493 36 506 22 q 481 65 481 50 q 493 97 481 85 q 525 108 506 108 m 628 583 q 599 595 611 583 q 586 626 586 607 q 599 654 586 642 q 628 667 611 667 q 658 654 646 667 q 669 626 669 642 q 658 595 669 607 q 628 583 646 583 m 708 478 q 676 490 689 478 q 664 521 664 503 q 676 550 664 536 q 708 564 689 564 q 737 550 724 564 q 750 521 750 536 q 737 490 750 503 q 708 478 724 478 m 525 653 q 493 665 506 653 q 481 696 481 676 q 493 725 481 711 q 525 739 506 739 q 552 725 540 739 q 564 696 564 711 q 552 665 564 676 q 525 653 540 653 z "},"ေ":{"ha":1749,"x_min":22,"x_max":1610,"o":"m 747 261 q 763 242 756 251 q 785 215 771 233 q 747 149 765 176 q 703 96 728 121 q 414 -14 593 -14 q 132 97 243 -14 q 22 383 22 208 q 132 667 22 557 q 414 778 243 778 q 701 667 583 778 q 786 542 753 615 q 729 516 749 525 q 674 494 710 507 q 615 581 650 544 q 414 658 536 658 q 217 579 294 658 q 138 383 138 500 q 147 308 138 346 q 167 251 157 271 l 178 261 q 465 372 293 372 q 619 342 547 372 q 747 261 692 313 m 632 200 q 465 254 561 254 q 263 174 344 254 l 249 157 q 414 106 317 106 q 618 183 536 106 l 632 200 m 889 425 q 918 413 906 425 q 931 385 931 401 q 918 354 931 367 q 889 342 906 342 q 859 354 871 342 q 847 385 847 367 q 859 413 847 401 q 889 425 871 425 m 1235 760 q 1264 748 1251 760 q 1276 717 1276 736 q 1264 689 1276 701 q 1235 676 1251 676 q 1205 689 1217 676 q 1193 717 1193 701 q 1205 748 1193 736 q 1235 760 1217 760 m 1235 82 q 1264 70 1251 82 q 1276 42 1276 58 q 1264 11 1276 24 q 1235 -1 1251 -1 q 1205 11 1217 -1 q 1193 42 1193 24 q 1205 70 1193 58 q 1235 82 1217 82 m 996 178 q 1025 166 1013 178 q 1038 135 1038 154 q 1025 107 1038 119 q 996 94 1013 94 q 966 107 978 94 q 954 135 954 119 q 966 166 954 154 q 996 178 978 178 m 915 283 q 947 272 935 283 q 960 240 960 260 q 947 211 960 225 q 915 197 935 197 q 887 211 900 197 q 874 240 874 225 q 887 272 874 260 q 915 283 900 283 m 1099 108 q 1131 97 1118 108 q 1143 65 1143 85 q 1131 36 1143 50 q 1099 22 1118 22 q 1072 36 1083 22 q 1060 65 1060 50 q 1072 97 1060 85 q 1099 108 1083 108 m 996 583 q 966 595 978 583 q 954 626 954 607 q 966 654 954 642 q 996 667 978 667 q 1025 654 1013 667 q 1038 626 1038 642 q 1025 595 1038 607 q 996 583 1013 583 m 915 478 q 887 490 900 478 q 874 521 874 503 q 887 550 874 536 q 915 564 900 564 q 947 550 935 564 q 960 521 960 536 q 947 490 960 503 q 915 478 935 478 m 1099 653 q 1072 665 1083 653 q 1060 696 1060 676 q 1072 725 1060 711 q 1099 739 1083 739 q 1131 725 1118 739 q 1143 696 1143 711 q 1131 665 1143 676 q 1099 653 1118 653 m 1568 425 q 1598 413 1586 425 q 1610 385 1610 401 q 1598 354 1610 367 q 1568 342 1586 342 q 1539 354 1551 342 q 1526 385 1526 367 q 1539 413 1526 401 q 1568 425 1551 425 m 1461 178 q 1491 166 1479 178 q 1503 135 1503 154 q 1491 107 1503 119 q 1461 94 1479 94 q 1432 107 1444 94 q 1419 135 1419 119 q 1432 166 1419 154 q 1461 178 1444 178 m 1542 283 q 1570 272 1557 283 q 1583 240 1583 260 q 1570 211 1583 225 q 1542 197 1557 197 q 1510 211 1522 197 q 1497 240 1497 225 q 1510 272 1497 260 q 1542 283 1522 283 m 1358 108 q 1385 97 1374 108 q 1397 65 1397 85 q 1385 36 1397 50 q 1358 22 1374 22 q 1326 36 1339 22 q 1314 65 1314 50 q 1326 97 1314 85 q 1358 108 1339 108 m 1461 583 q 1432 595 1444 583 q 1419 626 1419 607 q 1432 654 1419 642 q 1461 667 1444 667 q 1491 654 1479 667 q 1503 626 1503 642 q 1491 595 1503 607 q 1461 583 1479 583 m 1542 478 q 1510 490 1522 478 q 1497 521 1497 503 q 1510 550 1497 536 q 1542 564 1522 564 q 1570 550 1557 564 q 1583 521 1583 536 q 1570 490 1583 503 q 1542 478 1557 478 m 1358 653 q 1326 665 1339 653 q 1314 696 1314 676 q 1326 725 1314 711 q 1358 739 1339 739 q 1385 725 1374 739 q 1397 696 1397 711 q 1385 665 1397 676 q 1358 653 1374 653 z "},"ဲ":{"ha":915,"x_min":14,"x_max":776,"o":"m 699 815 q 348 1008 503 894 q 51 1279 193 1121 l 110 1406 q 390 1103 249 1226 q 713 904 531 979 l 699 815 m 56 425 q 85 413 72 425 q 97 385 97 401 q 85 354 97 367 q 56 342 72 342 q 26 354 38 342 q 14 385 14 367 q 26 413 14 401 q 56 425 38 425 m 401 760 q 431 748 418 760 q 443 717 443 736 q 431 689 443 701 q 401 676 418 676 q 372 689 383 676 q 360 717 360 701 q 372 748 360 736 q 401 760 383 760 m 401 82 q 431 70 418 82 q 443 42 443 58 q 431 11 443 24 q 401 -1 418 -1 q 372 11 383 -1 q 360 42 360 24 q 372 70 360 58 q 401 82 383 82 m 163 178 q 192 166 179 178 q 204 135 204 154 q 192 107 204 119 q 163 94 179 94 q 133 107 144 94 q 121 135 121 119 q 133 166 121 154 q 163 178 144 178 m 82 283 q 114 272 101 283 q 126 240 126 260 q 114 211 126 225 q 82 197 101 197 q 53 211 67 197 q 40 240 40 225 q 53 272 40 260 q 82 283 67 283 m 265 108 q 297 97 285 108 q 310 65 310 85 q 297 36 310 50 q 265 22 285 22 q 238 36 250 22 q 226 65 226 50 q 238 97 226 85 q 265 108 250 108 m 163 583 q 133 595 144 583 q 121 626 121 607 q 133 654 121 642 q 163 667 144 667 q 192 654 179 667 q 204 626 204 642 q 192 595 204 607 q 163 583 179 583 m 82 478 q 53 490 67 478 q 40 521 40 503 q 53 550 40 536 q 82 564 67 564 q 114 550 101 564 q 126 521 126 536 q 114 490 126 503 q 82 478 101 478 m 265 653 q 238 665 250 653 q 226 696 226 676 q 238 725 226 711 q 265 739 250 739 q 297 725 285 739 q 310 696 310 711 q 297 665 310 676 q 265 653 285 653 m 735 425 q 765 413 753 425 q 776 385 776 401 q 765 354 776 367 q 735 342 753 342 q 706 354 718 342 q 693 385 693 367 q 706 413 693 401 q 735 425 718 425 m 628 178 q 658 166 646 178 q 669 135 669 154 q 658 107 669 119 q 628 94 646 94 q 599 107 611 94 q 586 135 586 119 q 599 166 586 154 q 628 178 611 178 m 708 283 q 737 272 724 283 q 750 240 750 260 q 737 211 750 225 q 708 197 724 197 q 676 211 689 197 q 664 240 664 225 q 676 272 664 260 q 708 283 689 283 m 525 108 q 552 97 540 108 q 564 65 564 85 q 552 36 564 50 q 525 22 540 22 q 493 36 506 22 q 481 65 481 50 q 493 97 481 85 q 525 108 506 108 m 628 583 q 599 595 611 583 q 586 626 586 607 q 599 654 586 642 q 628 667 611 667 q 658 654 646 667 q 669 626 669 642 q 658 595 669 607 q 628 583 646 583 m 708 478 q 676 490 689 478 q 664 521 664 503 q 676 550 664 536 q 708 564 689 564 q 737 550 724 564 q 750 521 750 536 q 737 490 750 503 q 708 478 724 478 m 525 653 q 493 665 506 653 q 481 696 481 676 q 493 725 481 711 q 525 739 506 739 q 552 725 540 739 q 564 696 564 711 q 552 665 564 676 q 525 653 540 653 z "},"ဳ":{"ha":915,"x_min":14,"x_max":776,"o":"m 290 1115 q 325 1199 290 1164 q 410 1233 360 1233 q 494 1199 460 1233 q 528 1115 528 1164 q 494 1031 528 1065 q 410 996 460 996 q 325 1031 360 996 q 290 1115 290 1065 m 365 1115 q 378 1084 365 1097 q 410 1071 392 1071 q 442 1084 428 1071 q 456 1115 456 1097 q 442 1147 456 1133 q 410 1160 428 1160 q 378 1147 392 1160 q 365 1115 365 1133 m 410 817 q 201 903 288 817 q 118 1113 118 986 q 203 1319 118 1235 q 413 1406 289 1406 q 618 1319 536 1406 q 700 1113 700 1235 q 615 904 700 993 q 410 817 529 817 m 410 1289 q 283 1240 331 1289 q 235 1113 235 1192 q 248 1042 235 1075 q 283 986 261 1010 q 337 949 306 963 q 406 936 368 936 q 531 985 483 936 q 582 1113 579 1033 q 535 1240 582 1190 q 410 1289 488 1289 m 56 425 q 85 413 72 425 q 97 385 97 401 q 85 354 97 367 q 56 342 72 342 q 26 354 38 342 q 14 385 14 367 q 26 413 14 401 q 56 425 38 425 m 401 760 q 431 748 418 760 q 443 717 443 736 q 431 689 443 701 q 401 676 418 676 q 372 689 383 676 q 360 717 360 701 q 372 748 360 736 q 401 760 383 760 m 401 82 q 431 70 418 82 q 443 42 443 58 q 431 11 443 24 q 401 -1 418 -1 q 372 11 383 -1 q 360 42 360 24 q 372 70 360 58 q 401 82 383 82 m 163 178 q 192 166 179 178 q 204 135 204 154 q 192 107 204 119 q 163 94 179 94 q 133 107 144 94 q 121 135 121 119 q 133 166 121 154 q 163 178 144 178 m 82 283 q 114 272 101 283 q 126 240 126 260 q 114 211 126 225 q 82 197 101 197 q 53 211 67 197 q 40 240 40 225 q 53 272 40 260 q 82 283 67 283 m 265 108 q 297 97 285 108 q 310 65 310 85 q 297 36 310 50 q 265 22 285 22 q 238 36 250 22 q 226 65 226 50 q 238 97 226 85 q 265 108 250 108 m 163 583 q 133 595 144 583 q 121 626 121 607 q 133 654 121 642 q 163 667 144 667 q 192 654 179 667 q 204 626 204 642 q 192 595 204 607 q 163 583 179 583 m 82 478 q 53 490 67 478 q 40 521 40 503 q 53 550 40 536 q 82 564 67 564 q 114 550 101 564 q 126 521 126 536 q 114 490 126 503 q 82 478 101 478 m 265 653 q 238 665 250 653 q 226 696 226 676 q 238 725 226 711 q 265 739 250 739 q 297 725 285 739 q 310 696 310 711 q 297 665 310 676 q 265 653 285 653 m 735 425 q 765 413 753 425 q 776 385 776 401 q 765 354 776 367 q 735 342 753 342 q 706 354 718 342 q 693 385 693 367 q 706 413 693 401 q 735 425 718 425 m 628 178 q 658 166 646 178 q 669 135 669 154 q 658 107 669 119 q 628 94 646 94 q 599 107 611 94 q 586 135 586 119 q 599 166 586 154 q 628 178 611 178 m 708 283 q 737 272 724 283 q 750 240 750 260 q 737 211 750 225 q 708 197 724 197 q 676 211 689 197 q 664 240 664 225 q 676 272 664 260 q 708 283 689 283 m 525 108 q 552 97 540 108 q 564 65 564 85 q 552 36 564 50 q 525 22 540 22 q 493 36 506 22 q 481 65 481 50 q 493 97 481 85 q 525 108 506 108 m 628 583 q 599 595 611 583 q 586 626 586 607 q 599 654 586 642 q 628 667 611 667 q 658 654 646 667 q 669 626 669 642 q 658 595 669 607 q 628 583 646 583 m 708 478 q 676 490 689 478 q 664 521 664 503 q 676 550 664 536 q 708 564 689 564 q 737 550 724 564 q 750 521 750 536 q 737 490 750 503 q 708 478 724 478 m 525 653 q 493 665 506 653 q 481 696 481 676 q 493 725 481 711 q 525 739 506 739 q 552 725 540 739 q 564 696 564 711 q 552 665 564 676 q 525 653 540 653 z "},"ဴ":{"ha":915,"x_min":14,"x_max":776,"o":"m 53 906 q 376 1104 235 981 q 656 1407 517 1228 l 714 1281 q 417 1009 572 1122 q 67 817 263 896 l 53 906 m 56 425 q 85 413 72 425 q 97 385 97 401 q 85 354 97 367 q 56 342 72 342 q 26 354 38 342 q 14 385 14 367 q 26 413 14 401 q 56 425 38 425 m 401 760 q 431 748 418 760 q 443 717 443 736 q 431 689 443 701 q 401 676 418 676 q 372 689 383 676 q 360 717 360 701 q 372 748 360 736 q 401 760 383 760 m 401 82 q 431 70 418 82 q 443 42 443 58 q 431 11 443 24 q 401 -1 418 -1 q 372 11 383 -1 q 360 42 360 24 q 372 70 360 58 q 401 82 383 82 m 163 178 q 192 166 179 178 q 204 135 204 154 q 192 107 204 119 q 163 94 179 94 q 133 107 144 94 q 121 135 121 119 q 133 166 121 154 q 163 178 144 178 m 82 283 q 114 272 101 283 q 126 240 126 260 q 114 211 126 225 q 82 197 101 197 q 53 211 67 197 q 40 240 40 225 q 53 272 40 260 q 82 283 67 283 m 265 108 q 297 97 285 108 q 310 65 310 85 q 297 36 310 50 q 265 22 285 22 q 238 36 250 22 q 226 65 226 50 q 238 97 226 85 q 265 108 250 108 m 163 583 q 133 595 144 583 q 121 626 121 607 q 133 654 121 642 q 163 667 144 667 q 192 654 179 667 q 204 626 204 642 q 192 595 204 607 q 163 583 179 583 m 82 478 q 53 490 67 478 q 40 521 40 503 q 53 550 40 536 q 82 564 67 564 q 114 550 101 564 q 126 521 126 536 q 114 490 126 503 q 82 478 101 478 m 265 653 q 238 665 250 653 q 226 696 226 676 q 238 725 226 711 q 265 739 250 739 q 297 725 285 739 q 310 696 310 711 q 297 665 310 676 q 265 653 285 653 m 735 425 q 765 413 753 425 q 776 385 776 401 q 765 354 776 367 q 735 342 753 342 q 706 354 718 342 q 693 385 693 367 q 706 413 693 401 q 735 425 718 425 m 628 178 q 658 166 646 178 q 669 135 669 154 q 658 107 669 119 q 628 94 646 94 q 599 107 611 94 q 586 135 586 119 q 599 166 586 154 q 628 178 611 178 m 708 283 q 737 272 724 283 q 750 240 750 260 q 737 211 750 225 q 708 197 724 197 q 676 211 689 197 q 664 240 664 225 q 676 272 664 260 q 708 283 689 283 m 525 108 q 552 97 540 108 q 564 65 564 85 q 552 36 564 50 q 525 22 540 22 q 493 36 506 22 q 481 65 481 50 q 493 97 481 85 q 525 108 506 108 m 628 583 q 599 595 611 583 q 586 626 586 607 q 599 654 586 642 q 628 667 611 667 q 658 654 646 667 q 669 626 669 642 q 658 595 669 607 q 628 583 646 583 m 708 478 q 676 490 689 478 q 664 521 664 503 q 676 550 664 536 q 708 564 689 564 q 737 550 724 564 q 750 521 750 536 q 737 490 750 503 q 708 478 724 478 m 525 653 q 493 665 506 653 q 481 696 481 676 q 493 725 481 711 q 525 739 506 739 q 552 725 540 739 q 564 696 564 711 q 552 665 564 676 q 525 653 540 653 z "},"ဵ":{"ha":915,"x_min":14,"x_max":776,"o":"m 661 918 q 635 872 649 893 q 603 836 621 851 q 399 749 519 749 q 190 835 274 749 q 107 1044 107 917 q 192 1251 107 1168 q 401 1338 275 1338 q 607 1251 524 1338 q 627 1229 618 1242 q 583 1190 636 1217 q 522 1171 529 1164 q 399 1221 474 1221 q 270 1172 318 1221 q 222 1044 222 1124 q 251 943 222 986 q 270 969 256 950 q 297 1000 285 989 q 507 1085 381 1085 q 682 994 682 1085 q 661 919 682 963 l 661 918 m 399 861 q 466 876 438 861 q 521 914 494 890 q 542 940 531 924 q 554 964 553 956 q 504 969 532 969 q 378 919 425 969 q 346 872 357 900 q 367 866 349 871 q 399 861 385 861 m 56 425 q 85 413 72 425 q 97 385 97 401 q 85 354 97 367 q 56 342 72 342 q 26 354 38 342 q 14 385 14 367 q 26 413 14 401 q 56 425 38 425 m 401 760 q 431 748 418 760 q 443 717 443 736 q 431 689 443 701 q 401 676 418 676 q 372 689 383 676 q 360 717 360 701 q 372 748 360 736 q 401 760 383 760 m 401 82 q 431 70 418 82 q 443 42 443 58 q 431 11 443 24 q 401 -1 418 -1 q 372 11 383 -1 q 360 42 360 24 q 372 70 360 58 q 401 82 383 82 m 163 178 q 192 166 179 178 q 204 135 204 154 q 192 107 204 119 q 163 94 179 94 q 133 107 144 94 q 121 135 121 119 q 133 166 121 154 q 163 178 144 178 m 82 283 q 114 272 101 283 q 126 240 126 260 q 114 211 126 225 q 82 197 101 197 q 53 211 67 197 q 40 240 40 225 q 53 272 40 260 q 82 283 67 283 m 265 108 q 297 97 285 108 q 310 65 310 85 q 297 36 310 50 q 265 22 285 22 q 238 36 250 22 q 226 65 226 50 q 238 97 226 85 q 265 108 250 108 m 163 583 q 133 595 144 583 q 121 626 121 607 q 133 654 121 642 q 163 667 144 667 q 192 654 179 667 q 204 626 204 642 q 192 595 204 607 q 163 583 179 583 m 82 478 q 53 490 67 478 q 40 521 40 503 q 53 550 40 536 q 82 564 67 564 q 114 550 101 564 q 126 521 126 536 q 114 490 126 503 q 82 478 101 478 m 265 653 q 238 665 250 653 q 226 696 226 676 q 238 725 226 711 q 265 739 250 739 q 297 725 285 739 q 310 696 310 711 q 297 665 310 676 q 265 653 285 653 m 735 425 q 765 413 753 425 q 776 385 776 401 q 765 354 776 367 q 735 342 753 342 q 706 354 718 342 q 693 385 693 367 q 706 413 693 401 q 735 425 718 425 m 628 178 q 658 166 646 178 q 669 135 669 154 q 658 107 669 119 q 628 94 646 94 q 599 107 611 94 q 586 135 586 119 q 599 166 586 154 q 628 178 611 178 m 708 283 q 737 272 724 283 q 750 240 750 260 q 737 211 750 225 q 708 197 724 197 q 676 211 689 197 q 664 240 664 225 q 676 272 664 260 q 708 283 689 283 m 525 108 q 552 97 540 108 q 564 65 564 85 q 552 36 564 50 q 525 22 540 22 q 493 36 506 22 q 481 65 481 50 q 493 97 481 85 q 525 108 506 108 m 628 583 q 599 595 611 583 q 586 626 586 607 q 599 654 586 642 q 628 667 611 667 q 658 654 646 667 q 669 626 669 642 q 658 595 669 607 q 628 583 646 583 m 708 478 q 676 490 689 478 q 664 521 664 503 q 676 550 664 536 q 708 564 689 564 q 737 550 724 564 q 750 521 750 536 q 737 490 750 503 q 708 478 724 478 m 525 653 q 493 665 506 653 q 481 696 481 676 q 493 725 481 711 q 525 739 506 739 q 552 725 540 739 q 564 696 564 711 q 552 665 564 676 q 525 653 540 653 z "},"ံ":{"ha":915,"x_min":14,"x_max":776,"o":"m 256 1122 q 267 1178 256 1151 q 299 1225 279 1206 q 347 1256 319 1244 q 404 1268 374 1268 q 460 1256 433 1268 q 507 1225 488 1244 q 538 1178 526 1206 q 550 1122 550 1151 q 538 1065 550 1092 q 507 1017 526 1038 q 460 985 488 997 q 404 974 433 974 q 347 985 374 974 q 299 1017 319 997 q 267 1065 279 1038 q 256 1122 256 1092 m 350 1122 q 366 1084 350 1100 q 404 1068 382 1068 q 444 1084 426 1068 q 461 1122 461 1100 q 444 1162 461 1144 q 404 1179 426 1179 q 366 1162 382 1179 q 350 1122 350 1144 m 56 425 q 85 413 72 425 q 97 385 97 401 q 85 354 97 367 q 56 342 72 342 q 26 354 38 342 q 14 385 14 367 q 26 413 14 401 q 56 425 38 425 m 401 760 q 431 748 418 760 q 443 717 443 736 q 431 689 443 701 q 401 676 418 676 q 372 689 383 676 q 360 717 360 701 q 372 748 360 736 q 401 760 383 760 m 401 82 q 431 70 418 82 q 443 42 443 58 q 431 11 443 24 q 401 -1 418 -1 q 372 11 383 -1 q 360 42 360 24 q 372 70 360 58 q 401 82 383 82 m 163 178 q 192 166 179 178 q 204 135 204 154 q 192 107 204 119 q 163 94 179 94 q 133 107 144 94 q 121 135 121 119 q 133 166 121 154 q 163 178 144 178 m 82 283 q 114 272 101 283 q 126 240 126 260 q 114 211 126 225 q 82 197 101 197 q 53 211 67 197 q 40 240 40 225 q 53 272 40 260 q 82 283 67 283 m 265 108 q 297 97 285 108 q 310 65 310 85 q 297 36 310 50 q 265 22 285 22 q 238 36 250 22 q 226 65 226 50 q 238 97 226 85 q 265 108 250 108 m 163 583 q 133 595 144 583 q 121 626 121 607 q 133 654 121 642 q 163 667 144 667 q 192 654 179 667 q 204 626 204 642 q 192 595 204 607 q 163 583 179 583 m 82 478 q 53 490 67 478 q 40 521 40 503 q 53 550 40 536 q 82 564 67 564 q 114 550 101 564 q 126 521 126 536 q 114 490 126 503 q 82 478 101 478 m 265 653 q 238 665 250 653 q 226 696 226 676 q 238 725 226 711 q 265 739 250 739 q 297 725 285 739 q 310 696 310 711 q 297 665 310 676 q 265 653 285 653 m 735 425 q 765 413 753 425 q 776 385 776 401 q 765 354 776 367 q 735 342 753 342 q 706 354 718 342 q 693 385 693 367 q 706 413 693 401 q 735 425 718 425 m 628 178 q 658 166 646 178 q 669 135 669 154 q 658 107 669 119 q 628 94 646 94 q 599 107 611 94 q 586 135 586 119 q 599 166 586 154 q 628 178 611 178 m 708 283 q 737 272 724 283 q 750 240 750 260 q 737 211 750 225 q 708 197 724 197 q 676 211 689 197 q 664 240 664 225 q 676 272 664 260 q 708 283 689 283 m 525 108 q 552 97 540 108 q 564 65 564 85 q 552 36 564 50 q 525 22 540 22 q 493 36 506 22 q 481 65 481 50 q 493 97 481 85 q 525 108 506 108 m 628 583 q 599 595 611 583 q 586 626 586 607 q 599 654 586 642 q 628 667 611 667 q 658 654 646 667 q 669 626 669 642 q 658 595 669 607 q 628 583 646 583 m 708 478 q 676 490 689 478 q 664 521 664 503 q 676 550 664 536 q 708 564 689 564 q 737 550 724 564 q 750 521 750 536 q 737 490 750 503 q 708 478 724 478 m 525 653 q 493 665 506 653 q 481 696 481 676 q 493 725 481 711 q 525 739 506 739 q 552 725 540 739 q 564 696 564 711 q 552 665 564 676 q 525 653 540 653 z "},"့":{"ha":915,"x_min":14,"x_max":776,"o":"m 267 -261 q 278 -206 267 -232 q 310 -160 290 -179 q 356 -130 329 -142 q 413 -118 382 -118 q 469 -130 442 -118 q 515 -160 496 -142 q 545 -206 533 -179 q 557 -261 557 -232 q 545 -319 557 -292 q 515 -365 533 -346 q 469 -397 496 -385 q 413 -408 442 -408 q 356 -397 382 -408 q 310 -365 329 -385 q 278 -319 290 -346 q 267 -261 267 -292 m 360 -261 q 376 -299 360 -283 q 413 -315 392 -315 q 452 -299 435 -315 q 469 -261 469 -283 q 452 -222 469 -239 q 413 -206 435 -206 q 376 -222 392 -206 q 360 -261 360 -239 m 56 425 q 85 413 72 425 q 97 385 97 401 q 85 354 97 367 q 56 342 72 342 q 26 354 38 342 q 14 385 14 367 q 26 413 14 401 q 56 425 38 425 m 401 760 q 431 748 418 760 q 443 717 443 736 q 431 689 443 701 q 401 676 418 676 q 372 689 383 676 q 360 717 360 701 q 372 748 360 736 q 401 760 383 760 m 401 82 q 431 70 418 82 q 443 42 443 58 q 431 11 443 24 q 401 -1 418 -1 q 372 11 383 -1 q 360 42 360 24 q 372 70 360 58 q 401 82 383 82 m 163 178 q 192 166 179 178 q 204 135 204 154 q 192 107 204 119 q 163 94 179 94 q 133 107 144 94 q 121 135 121 119 q 133 166 121 154 q 163 178 144 178 m 82 283 q 114 272 101 283 q 126 240 126 260 q 114 211 126 225 q 82 197 101 197 q 53 211 67 197 q 40 240 40 225 q 53 272 40 260 q 82 283 67 283 m 265 108 q 297 97 285 108 q 310 65 310 85 q 297 36 310 50 q 265 22 285 22 q 238 36 250 22 q 226 65 226 50 q 238 97 226 85 q 265 108 250 108 m 163 583 q 133 595 144 583 q 121 626 121 607 q 133 654 121 642 q 163 667 144 667 q 192 654 179 667 q 204 626 204 642 q 192 595 204 607 q 163 583 179 583 m 82 478 q 53 490 67 478 q 40 521 40 503 q 53 550 40 536 q 82 564 67 564 q 114 550 101 564 q 126 521 126 536 q 114 490 126 503 q 82 478 101 478 m 265 653 q 238 665 250 653 q 226 696 226 676 q 238 725 226 711 q 265 739 250 739 q 297 725 285 739 q 310 696 310 711 q 297 665 310 676 q 265 653 285 653 m 735 425 q 765 413 753 425 q 776 385 776 401 q 765 354 776 367 q 735 342 753 342 q 706 354 718 342 q 693 385 693 367 q 706 413 693 401 q 735 425 718 425 m 628 178 q 658 166 646 178 q 669 135 669 154 q 658 107 669 119 q 628 94 646 94 q 599 107 611 94 q 586 135 586 119 q 599 166 586 154 q 628 178 611 178 m 708 283 q 737 272 724 283 q 750 240 750 260 q 737 211 750 225 q 708 197 724 197 q 676 211 689 197 q 664 240 664 225 q 676 272 664 260 q 708 283 689 283 m 525 108 q 552 97 540 108 q 564 65 564 85 q 552 36 564 50 q 525 22 540 22 q 493 36 506 22 q 481 65 481 50 q 493 97 481 85 q 525 108 506 108 m 628 583 q 599 595 611 583 q 586 626 586 607 q 599 654 586 642 q 628 667 611 667 q 658 654 646 667 q 669 626 669 642 q 658 595 669 607 q 628 583 646 583 m 708 478 q 676 490 689 478 q 664 521 664 503 q 676 550 664 536 q 708 564 689 564 q 737 550 724 564 q 750 521 750 536 q 737 490 750 503 q 708 478 724 478 m 525 653 q 493 665 506 653 q 481 696 481 676 q 493 725 481 711 q 525 739 506 739 q 552 725 540 739 q 564 696 564 711 q 552 665 564 676 q 525 653 540 653 z "},"း":{"ha":1344,"x_min":14,"x_max":1206,"o":"m 915 157 q 927 213 915 186 q 958 259 939 240 q 1005 290 978 278 q 1063 301 1032 301 q 1118 290 1092 301 q 1163 259 1144 278 q 1194 213 1182 240 q 1206 157 1206 186 q 1194 100 1206 126 q 1163 53 1182 74 q 1118 22 1144 33 q 1063 10 1092 10 q 1005 22 1032 10 q 958 53 978 33 q 927 100 939 74 q 915 157 915 126 m 1008 157 q 1024 119 1008 135 q 1063 104 1040 104 q 1101 119 1085 104 q 1118 157 1118 135 q 1101 197 1118 179 q 1063 214 1085 214 q 1024 197 1040 214 q 1008 157 1008 179 m 915 594 q 958 698 915 656 q 1063 740 1001 740 q 1118 728 1092 740 q 1163 698 1144 717 q 1194 652 1182 679 q 1206 594 1206 625 q 1194 538 1206 564 q 1163 492 1182 511 q 1118 462 1144 474 q 1063 450 1092 450 q 1005 462 1032 450 q 958 492 978 474 q 927 538 939 511 q 915 594 915 564 m 1008 594 q 1024 558 1008 572 q 1063 543 1040 543 q 1101 558 1085 543 q 1118 594 1118 572 q 1101 635 1118 619 q 1063 650 1085 650 q 1024 635 1040 650 q 1008 594 1008 619 m 56 425 q 85 413 72 425 q 97 385 97 401 q 85 354 97 367 q 56 342 72 342 q 26 354 38 342 q 14 385 14 367 q 26 413 14 401 q 56 425 38 425 m 401 760 q 431 748 418 760 q 443 717 443 736 q 431 689 443 701 q 401 676 418 676 q 372 689 383 676 q 360 717 360 701 q 372 748 360 736 q 401 760 383 760 m 401 82 q 431 70 418 82 q 443 42 443 58 q 431 11 443 24 q 401 -1 418 -1 q 372 11 383 -1 q 360 42 360 24 q 372 70 360 58 q 401 82 383 82 m 163 178 q 192 166 179 178 q 204 135 204 154 q 192 107 204 119 q 163 94 179 94 q 133 107 144 94 q 121 135 121 119 q 133 166 121 154 q 163 178 144 178 m 82 283 q 114 272 101 283 q 126 240 126 260 q 114 211 126 225 q 82 197 101 197 q 53 211 67 197 q 40 240 40 225 q 53 272 40 260 q 82 283 67 283 m 265 108 q 297 97 285 108 q 310 65 310 85 q 297 36 310 50 q 265 22 285 22 q 238 36 250 22 q 226 65 226 50 q 238 97 226 85 q 265 108 250 108 m 163 583 q 133 595 144 583 q 121 626 121 607 q 133 654 121 642 q 163 667 144 667 q 192 654 179 667 q 204 626 204 642 q 192 595 204 607 q 163 583 179 583 m 82 478 q 53 490 67 478 q 40 521 40 503 q 53 550 40 536 q 82 564 67 564 q 114 550 101 564 q 126 521 126 536 q 114 490 126 503 q 82 478 101 478 m 265 653 q 238 665 250 653 q 226 696 226 676 q 238 725 226 711 q 265 739 250 739 q 297 725 285 739 q 310 696 310 711 q 297 665 310 676 q 265 653 285 653 m 735 425 q 765 413 753 425 q 776 385 776 401 q 765 354 776 367 q 735 342 753 342 q 706 354 718 342 q 693 385 693 367 q 706 413 693 401 q 735 425 718 425 m 628 178 q 658 166 646 178 q 669 135 669 154 q 658 107 669 119 q 628 94 646 94 q 599 107 611 94 q 586 135 586 119 q 599 166 586 154 q 628 178 611 178 m 708 283 q 737 272 724 283 q 750 240 750 260 q 737 211 750 225 q 708 197 724 197 q 676 211 689 197 q 664 240 664 225 q 676 272 664 260 q 708 283 689 283 m 525 108 q 552 97 540 108 q 564 65 564 85 q 552 36 564 50 q 525 22 540 22 q 493 36 506 22 q 481 65 481 50 q 493 97 481 85 q 525 108 506 108 m 628 583 q 599 595 611 583 q 586 626 586 607 q 599 654 586 642 q 628 667 611 667 q 658 654 646 667 q 669 626 669 642 q 658 595 669 607 q 628 583 646 583 m 708 478 q 676 490 689 478 q 664 521 664 503 q 676 550 664 536 q 708 564 689 564 q 737 550 724 564 q 750 521 750 536 q 737 490 750 503 q 708 478 724 478 m 525 653 q 493 665 506 653 q 481 696 481 676 q 493 725 481 711 q 525 739 506 739 q 552 725 540 739 q 564 696 564 711 q 552 665 564 676 q 525 653 540 653 z "},"္":{"ha":1726,"x_min":0,"x_max":1588,"o":"m 1500 925 l 1375 925 l 1375 1008 l 1588 1008 l 1588 896 q 1586 852 1588 872 q 1585 794 1585 832 l 1500 794 l 1500 925 m 114 -519 q 64 -520 90 -519 q 0 -521 38 -521 l 0 -307 l 85 -307 l 85 -435 l 213 -435 l 213 -519 l 114 -519 m 1207 -519 l 1375 -519 l 1375 -435 l 1500 -435 l 1500 -307 l 1585 -307 l 1585 -406 q 1586 -455 1585 -429 q 1588 -519 1588 -481 l 1149 -525 l 1207 -519 m 0 1007 l 213 1007 l 213 924 l 85 924 l 85 794 l 0 794 l 0 1007 m 0 486 l 85 486 l 85 274 l 0 274 l 0 486 m 1500 747 l 1585 747 l 1585 535 l 1500 535 l 1500 747 m 1500 486 l 1585 486 l 1585 274 l 1500 274 l 1500 486 m 1100 925 l 1100 1008 l 1313 1008 l 1313 925 l 1100 925 m 1500 226 l 1585 226 l 1585 14 l 1500 14 l 1500 226 m 0 226 l 85 226 l 85 14 l 0 14 l 0 226 m 1500 -35 l 1585 -35 l 1585 -247 l 1500 -247 l 1500 -35 m 0 -35 l 85 -35 l 85 -247 l 0 -247 l 0 -35 m 0 747 l 85 747 l 85 535 l 0 535 l 0 747 m 275 -519 l 275 -435 l 488 -435 l 488 -519 l 275 -519 m 550 -519 l 550 -435 l 763 -435 l 763 -519 l 550 -519 m 1100 -519 l 1100 -435 l 1313 -435 l 1313 -519 l 1100 -519 m 825 -519 l 825 -435 l 1038 -435 l 1038 -519 l 825 -519 m 275 925 l 275 1008 l 488 1008 l 488 925 l 275 925 m 825 925 l 825 1008 l 1038 1008 l 1038 925 l 825 925 m 550 925 l 550 1008 l 763 1008 l 763 925 l 550 925 m 815 -265 l 815 -379 l 742 -379 l 742 -265 l 614 -265 l 614 -193 l 742 -193 l 742 -81 l 815 -81 l 815 -193 l 924 -193 l 924 -265 l 815 -265 m 417 425 q 446 413 433 425 q 458 385 458 401 q 446 354 458 367 q 417 342 433 342 q 387 354 399 342 q 375 385 375 367 q 387 413 375 401 q 417 425 399 425 m 763 760 q 792 748 779 760 q 804 717 804 736 q 792 689 804 701 q 763 676 779 676 q 733 689 744 676 q 721 717 721 701 q 733 748 721 736 q 763 760 744 760 m 763 82 q 792 70 779 82 q 804 42 804 58 q 792 11 804 24 q 763 -1 779 -1 q 733 11 744 -1 q 721 42 721 24 q 733 70 721 58 q 763 82 744 82 m 524 178 q 553 166 540 178 q 565 135 565 154 q 553 107 565 119 q 524 94 540 94 q 494 107 506 94 q 482 135 482 119 q 494 166 482 154 q 524 178 506 178 m 443 283 q 475 272 463 283 q 488 240 488 260 q 475 211 488 225 q 443 197 463 197 q 415 211 428 197 q 401 240 401 225 q 415 272 401 260 q 443 283 428 283 m 626 108 q 658 97 646 108 q 671 65 671 85 q 658 36 671 50 q 626 22 646 22 q 599 36 611 22 q 588 65 588 50 q 599 97 588 85 q 626 108 611 108 m 524 583 q 494 595 506 583 q 482 626 482 607 q 494 654 482 642 q 524 667 506 667 q 553 654 540 667 q 565 626 565 642 q 553 595 565 607 q 524 583 540 583 m 443 478 q 415 490 428 478 q 401 521 401 503 q 415 550 401 536 q 443 564 428 564 q 475 550 463 564 q 488 521 488 536 q 475 490 488 503 q 443 478 463 478 m 626 653 q 599 665 611 653 q 588 696 588 676 q 599 725 588 711 q 626 739 611 739 q 658 725 646 739 q 671 696 671 711 q 658 665 671 676 q 626 653 646 653 m 1096 425 q 1126 413 1114 425 q 1138 385 1138 401 q 1126 354 1138 367 q 1096 342 1114 342 q 1067 354 1079 342 q 1054 385 1054 367 q 1067 413 1054 401 q 1096 425 1079 425 m 989 178 q 1019 166 1007 178 q 1031 135 1031 154 q 1019 107 1031 119 q 989 94 1007 94 q 960 107 972 94 q 947 135 947 119 q 960 166 947 154 q 989 178 972 178 m 1069 283 q 1098 272 1085 283 q 1111 240 1111 260 q 1098 211 1111 225 q 1069 197 1085 197 q 1038 211 1050 197 q 1025 240 1025 225 q 1038 272 1025 260 q 1069 283 1050 283 m 886 108 q 913 97 901 108 q 925 65 925 85 q 913 36 925 50 q 886 22 901 22 q 854 36 867 22 q 842 65 842 50 q 854 97 842 85 q 886 108 867 108 m 989 583 q 960 595 972 583 q 947 626 947 607 q 960 654 947 642 q 989 667 972 667 q 1019 654 1007 667 q 1031 626 1031 642 q 1019 595 1031 607 q 989 583 1007 583 m 1069 478 q 1038 490 1050 478 q 1025 521 1025 503 q 1038 550 1025 536 q 1069 564 1050 564 q 1098 550 1085 564 q 1111 521 1111 536 q 1098 490 1111 503 q 1069 478 1085 478 m 886 653 q 854 665 867 653 q 842 696 842 676 q 854 725 842 711 q 886 739 867 739 q 913 725 901 739 q 925 696 925 711 q 913 665 925 676 q 886 653 901 653 z "},"်":{"ha":915,"x_min":14,"x_max":776,"o":"m 486 825 q 440 818 457 819 q 408 817 424 817 q 200 903 286 817 q 117 1113 117 986 q 201 1319 117 1235 q 411 1406 288 1406 q 617 1319 535 1406 q 676 1228 651 1285 l 568 1181 q 551 1218 558 1207 q 533 1239 543 1229 q 408 1289 485 1289 q 281 1240 329 1289 q 233 1113 233 1192 q 247 1042 233 1075 q 287 985 261 1010 q 345 947 313 961 q 415 933 378 933 q 437 933 422 933 q 472 936 451 932 l 486 825 m 56 425 q 85 413 72 425 q 97 385 97 401 q 85 354 97 367 q 56 342 72 342 q 26 354 38 342 q 14 385 14 367 q 26 413 14 401 q 56 425 38 425 m 401 760 q 431 748 418 760 q 443 717 443 736 q 431 689 443 701 q 401 676 418 676 q 372 689 383 676 q 360 717 360 701 q 372 748 360 736 q 401 760 383 760 m 401 82 q 431 70 418 82 q 443 42 443 58 q 431 11 443 24 q 401 -1 418 -1 q 372 11 383 -1 q 360 42 360 24 q 372 70 360 58 q 401 82 383 82 m 163 178 q 192 166 179 178 q 204 135 204 154 q 192 107 204 119 q 163 94 179 94 q 133 107 144 94 q 121 135 121 119 q 133 166 121 154 q 163 178 144 178 m 82 283 q 114 272 101 283 q 126 240 126 260 q 114 211 126 225 q 82 197 101 197 q 53 211 67 197 q 40 240 40 225 q 53 272 40 260 q 82 283 67 283 m 265 108 q 297 97 285 108 q 310 65 310 85 q 297 36 310 50 q 265 22 285 22 q 238 36 250 22 q 226 65 226 50 q 238 97 226 85 q 265 108 250 108 m 163 583 q 133 595 144 583 q 121 626 121 607 q 133 654 121 642 q 163 667 144 667 q 192 654 179 667 q 204 626 204 642 q 192 595 204 607 q 163 583 179 583 m 82 478 q 53 490 67 478 q 40 521 40 503 q 53 550 40 536 q 82 564 67 564 q 114 550 101 564 q 126 521 126 536 q 114 490 126 503 q 82 478 101 478 m 265 653 q 238 665 250 653 q 226 696 226 676 q 238 725 226 711 q 265 739 250 739 q 297 725 285 739 q 310 696 310 711 q 297 665 310 676 q 265 653 285 653 m 735 425 q 765 413 753 425 q 776 385 776 401 q 765 354 776 367 q 735 342 753 342 q 706 354 718 342 q 693 385 693 367 q 706 413 693 401 q 735 425 718 425 m 628 178 q 658 166 646 178 q 669 135 669 154 q 658 107 669 119 q 628 94 646 94 q 599 107 611 94 q 586 135 586 119 q 599 166 586 154 q 628 178 611 178 m 708 283 q 737 272 724 283 q 750 240 750 260 q 737 211 750 225 q 708 197 724 197 q 676 211 689 197 q 664 240 664 225 q 676 272 664 260 q 708 283 689 283 m 525 108 q 552 97 540 108 q 564 65 564 85 q 552 36 564 50 q 525 22 540 22 q 493 36 506 22 q 481 65 481 50 q 493 97 481 85 q 525 108 506 108 m 628 583 q 599 595 611 583 q 586 626 586 607 q 599 654 586 642 q 628 667 611 667 q 658 654 646 667 q 669 626 669 642 q 658 595 669 607 q 628 583 646 583 m 708 478 q 676 490 689 478 q 664 521 664 503 q 676 550 664 536 q 708 564 689 564 q 737 550 724 564 q 750 521 750 536 q 737 490 750 503 q 708 478 724 478 m 525 653 q 493 665 506 653 q 481 696 481 676 q 493 725 481 711 q 525 739 506 739 q 552 725 540 739 q 564 696 564 711 q 552 665 564 676 q 525 653 540 653 z "},"ျ":{"ha":1090,"x_min":14,"x_max":951,"o":"m 350 71 l 465 71 l 465 -332 l 836 -446 l 836 776 l 951 776 l 951 -567 l 839 -567 l 350 -418 l 350 71 m 56 425 q 85 413 72 425 q 97 385 97 401 q 85 354 97 367 q 56 342 72 342 q 26 354 38 342 q 14 385 14 367 q 26 413 14 401 q 56 425 38 425 m 401 760 q 431 748 418 760 q 443 717 443 736 q 431 689 443 701 q 401 676 418 676 q 372 689 383 676 q 360 717 360 701 q 372 748 360 736 q 401 760 383 760 m 401 82 q 431 70 418 82 q 443 42 443 58 q 431 11 443 24 q 401 -1 418 -1 q 372 11 383 -1 q 360 42 360 24 q 372 70 360 58 q 401 82 383 82 m 163 178 q 192 166 179 178 q 204 135 204 154 q 192 107 204 119 q 163 94 179 94 q 133 107 144 94 q 121 135 121 119 q 133 166 121 154 q 163 178 144 178 m 82 283 q 114 272 101 283 q 126 240 126 260 q 114 211 126 225 q 82 197 101 197 q 53 211 67 197 q 40 240 40 225 q 53 272 40 260 q 82 283 67 283 m 265 108 q 297 97 285 108 q 310 65 310 85 q 297 36 310 50 q 265 22 285 22 q 238 36 250 22 q 226 65 226 50 q 238 97 226 85 q 265 108 250 108 m 163 583 q 133 595 144 583 q 121 626 121 607 q 133 654 121 642 q 163 667 144 667 q 192 654 179 667 q 204 626 204 642 q 192 595 204 607 q 163 583 179 583 m 82 478 q 53 490 67 478 q 40 521 40 503 q 53 550 40 536 q 82 564 67 564 q 114 550 101 564 q 126 521 126 536 q 114 490 126 503 q 82 478 101 478 m 265 653 q 238 665 250 653 q 226 696 226 676 q 238 725 226 711 q 265 739 250 739 q 297 725 285 739 q 310 696 310 711 q 297 665 310 676 q 265 653 285 653 m 735 425 q 765 413 753 425 q 776 385 776 401 q 765 354 776 367 q 735 342 753 342 q 706 354 718 342 q 693 385 693 367 q 706 413 693 401 q 735 425 718 425 m 628 178 q 658 166 646 178 q 669 135 669 154 q 658 107 669 119 q 628 94 646 94 q 599 107 611 94 q 586 135 586 119 q 599 166 586 154 q 628 178 611 178 m 708 283 q 737 272 724 283 q 750 240 750 260 q 737 211 750 225 q 708 197 724 197 q 676 211 689 197 q 664 240 664 225 q 676 272 664 260 q 708 283 689 283 m 525 108 q 552 97 540 108 q 564 65 564 85 q 552 36 564 50 q 525 22 540 22 q 493 36 506 22 q 481 65 481 50 q 493 97 481 85 q 525 108 506 108 m 628 583 q 599 595 611 583 q 586 626 586 607 q 599 654 586 642 q 628 667 611 667 q 658 654 646 667 q 669 626 669 642 q 658 595 669 607 q 628 583 646 583 m 708 478 q 676 490 689 478 q 664 521 664 503 q 676 550 664 536 q 708 564 689 564 q 737 550 724 564 q 750 521 750 536 q 737 490 750 503 q 708 478 724 478 m 525 653 q 493 665 506 653 q 481 696 481 676 q 493 725 481 711 q 525 739 506 739 q 552 725 540 739 q 564 696 564 711 q 552 665 564 676 q 525 653 540 653 z "},"ြ":{"ha":1183,"x_min":0,"x_max":1068,"o":"m 1063 1028 l 946 1028 l 946 1288 l 125 1288 l 125 -449 l 950 -449 l 950 13 l 1067 13 l 1067 -450 q 1035 -540 1068 -514 q 950 -567 1003 -567 l 124 -567 q 33 -533 64 -564 q 7 -449 3 -501 l 8 1288 q 125 1404 0 1408 l 944 1404 q 1063 1288 1063 1413 l 1063 1028 m 229 425 q 258 413 246 425 q 271 385 271 401 q 258 354 271 367 q 229 342 246 342 q 199 354 211 342 q 188 385 188 367 q 199 413 188 401 q 229 425 211 425 m 575 760 q 604 748 592 760 q 617 717 617 736 q 604 689 617 701 q 575 676 592 676 q 545 689 557 676 q 533 717 533 701 q 545 748 533 736 q 575 760 557 760 m 575 82 q 604 70 592 82 q 617 42 617 58 q 604 11 617 24 q 575 -1 592 -1 q 545 11 557 -1 q 533 42 533 24 q 545 70 533 58 q 575 82 557 82 m 336 178 q 365 166 353 178 q 378 135 378 154 q 365 107 378 119 q 336 94 353 94 q 306 107 318 94 q 294 135 294 119 q 306 166 294 154 q 336 178 318 178 m 256 283 q 288 272 275 283 q 300 240 300 260 q 288 211 300 225 q 256 197 275 197 q 227 211 240 197 q 214 240 214 225 q 227 272 214 260 q 256 283 240 283 m 439 108 q 471 97 458 108 q 483 65 483 85 q 471 36 483 50 q 439 22 458 22 q 412 36 424 22 q 400 65 400 50 q 412 97 400 85 q 439 108 424 108 m 336 583 q 306 595 318 583 q 294 626 294 607 q 306 654 294 642 q 336 667 318 667 q 365 654 353 667 q 378 626 378 642 q 365 595 378 607 q 336 583 353 583 m 256 478 q 227 490 240 478 q 214 521 214 503 q 227 550 214 536 q 256 564 240 564 q 288 550 275 564 q 300 521 300 536 q 288 490 300 503 q 256 478 275 478 m 439 653 q 412 665 424 653 q 400 696 400 676 q 412 725 400 711 q 439 739 424 739 q 471 725 458 739 q 483 696 483 711 q 471 665 483 676 q 439 653 458 653 m 908 425 q 938 413 926 425 q 950 385 950 401 q 938 354 950 367 q 908 342 926 342 q 879 354 892 342 q 867 385 867 367 q 879 413 867 401 q 908 425 892 425 m 801 178 q 831 166 819 178 q 843 135 843 154 q 831 107 843 119 q 801 94 819 94 q 772 107 785 94 q 760 135 760 119 q 772 166 760 154 q 801 178 785 178 m 882 283 q 910 272 897 283 q 924 240 924 260 q 910 211 924 225 q 882 197 897 197 q 850 211 863 197 q 838 240 838 225 q 850 272 838 260 q 882 283 863 283 m 699 108 q 726 97 714 108 q 738 65 738 85 q 726 36 738 50 q 699 22 714 22 q 667 36 679 22 q 654 65 654 50 q 667 97 654 85 q 699 108 679 108 m 801 583 q 772 595 785 583 q 760 626 760 607 q 772 654 760 642 q 801 667 785 667 q 831 654 819 667 q 843 626 843 642 q 831 595 843 607 q 801 583 819 583 m 882 478 q 850 490 863 478 q 838 521 838 503 q 850 550 838 536 q 882 564 863 564 q 910 550 897 564 q 924 521 924 536 q 910 490 924 503 q 882 478 897 478 m 699 653 q 667 665 679 653 q 654 696 654 676 q 667 725 654 711 q 699 739 679 739 q 726 725 714 739 q 738 696 738 711 q 726 665 738 676 q 699 653 714 653 z "},"ွ":{"ha":915,"x_min":14,"x_max":776,"o":"m 403 -568 q 199 -483 283 -568 q 114 -276 114 -399 q 199 -69 114 -154 q 406 14 282 14 q 610 -69 528 14 q 690 -276 690 -154 q 606 -481 690 -393 q 403 -568 522 -568 m 403 -101 q 277 -150 325 -101 q 229 -276 229 -199 q 242 -345 229 -314 q 278 -400 256 -376 q 331 -436 300 -424 q 399 -449 361 -449 q 524 -401 476 -449 q 574 -276 571 -354 q 527 -150 574 -199 q 403 -101 481 -101 m 56 425 q 85 413 72 425 q 97 385 97 401 q 85 354 97 367 q 56 342 72 342 q 26 354 38 342 q 14 385 14 367 q 26 413 14 401 q 56 425 38 425 m 401 760 q 431 748 418 760 q 443 717 443 736 q 431 689 443 701 q 401 676 418 676 q 372 689 383 676 q 360 717 360 701 q 372 748 360 736 q 401 760 383 760 m 401 82 q 431 70 418 82 q 443 42 443 58 q 431 11 443 24 q 401 -1 418 -1 q 372 11 383 -1 q 360 42 360 24 q 372 70 360 58 q 401 82 383 82 m 163 178 q 192 166 179 178 q 204 135 204 154 q 192 107 204 119 q 163 94 179 94 q 133 107 144 94 q 121 135 121 119 q 133 166 121 154 q 163 178 144 178 m 82 283 q 114 272 101 283 q 126 240 126 260 q 114 211 126 225 q 82 197 101 197 q 53 211 67 197 q 40 240 40 225 q 53 272 40 260 q 82 283 67 283 m 265 108 q 297 97 285 108 q 310 65 310 85 q 297 36 310 50 q 265 22 285 22 q 238 36 250 22 q 226 65 226 50 q 238 97 226 85 q 265 108 250 108 m 163 583 q 133 595 144 583 q 121 626 121 607 q 133 654 121 642 q 163 667 144 667 q 192 654 179 667 q 204 626 204 642 q 192 595 204 607 q 163 583 179 583 m 82 478 q 53 490 67 478 q 40 521 40 503 q 53 550 40 536 q 82 564 67 564 q 114 550 101 564 q 126 521 126 536 q 114 490 126 503 q 82 478 101 478 m 265 653 q 238 665 250 653 q 226 696 226 676 q 238 725 226 711 q 265 739 250 739 q 297 725 285 739 q 310 696 310 711 q 297 665 310 676 q 265 653 285 653 m 735 425 q 765 413 753 425 q 776 385 776 401 q 765 354 776 367 q 735 342 753 342 q 706 354 718 342 q 693 385 693 367 q 706 413 693 401 q 735 425 718 425 m 628 178 q 658 166 646 178 q 669 135 669 154 q 658 107 669 119 q 628 94 646 94 q 599 107 611 94 q 586 135 586 119 q 599 166 586 154 q 628 178 611 178 m 708 283 q 737 272 724 283 q 750 240 750 260 q 737 211 750 225 q 708 197 724 197 q 676 211 689 197 q 664 240 664 225 q 676 272 664 260 q 708 283 689 283 m 525 108 q 552 97 540 108 q 564 65 564 85 q 552 36 564 50 q 525 22 540 22 q 493 36 506 22 q 481 65 481 50 q 493 97 481 85 q 525 108 506 108 m 628 583 q 599 595 611 583 q 586 626 586 607 q 599 654 586 642 q 628 667 611 667 q 658 654 646 667 q 669 626 669 642 q 658 595 669 607 q 628 583 646 583 m 708 478 q 676 490 689 478 q 664 521 664 503 q 676 550 664 536 q 708 564 689 564 q 737 550 724 564 q 750 521 750 536 q 737 490 750 503 q 708 478 724 478 m 525 653 q 493 665 506 653 q 481 696 481 676 q 493 725 481 711 q 525 739 506 739 q 552 725 540 739 q 564 696 564 711 q 552 665 564 676 q 525 653 540 653 z "},"ှ":{"ha":915,"x_min":14,"x_max":776,"o":"m 175 -449 l 347 -449 l 347 33 l 465 33 q 465 -108 465 -47 q 465 -229 465 -169 q 464 -350 464 -289 q 464 -478 464 -411 q 367 -567 461 -544 q 277 -566 321 -567 q 175 -565 233 -565 l 175 -449 m 56 425 q 85 413 72 425 q 97 385 97 401 q 85 354 97 367 q 56 342 72 342 q 26 354 38 342 q 14 385 14 367 q 26 413 14 401 q 56 425 38 425 m 401 760 q 431 748 418 760 q 443 717 443 736 q 431 689 443 701 q 401 676 418 676 q 372 689 383 676 q 360 717 360 701 q 372 748 360 736 q 401 760 383 760 m 401 82 q 431 70 418 82 q 443 42 443 58 q 431 11 443 24 q 401 -1 418 -1 q 372 11 383 -1 q 360 42 360 24 q 372 70 360 58 q 401 82 383 82 m 163 178 q 192 166 179 178 q 204 135 204 154 q 192 107 204 119 q 163 94 179 94 q 133 107 144 94 q 121 135 121 119 q 133 166 121 154 q 163 178 144 178 m 82 283 q 114 272 101 283 q 126 240 126 260 q 114 211 126 225 q 82 197 101 197 q 53 211 67 197 q 40 240 40 225 q 53 272 40 260 q 82 283 67 283 m 265 108 q 297 97 285 108 q 310 65 310 85 q 297 36 310 50 q 265 22 285 22 q 238 36 250 22 q 226 65 226 50 q 238 97 226 85 q 265 108 250 108 m 163 583 q 133 595 144 583 q 121 626 121 607 q 133 654 121 642 q 163 667 144 667 q 192 654 179 667 q 204 626 204 642 q 192 595 204 607 q 163 583 179 583 m 82 478 q 53 490 67 478 q 40 521 40 503 q 53 550 40 536 q 82 564 67 564 q 114 550 101 564 q 126 521 126 536 q 114 490 126 503 q 82 478 101 478 m 265 653 q 238 665 250 653 q 226 696 226 676 q 238 725 226 711 q 265 739 250 739 q 297 725 285 739 q 310 696 310 711 q 297 665 310 676 q 265 653 285 653 m 735 425 q 765 413 753 425 q 776 385 776 401 q 765 354 776 367 q 735 342 753 342 q 706 354 718 342 q 693 385 693 367 q 706 413 693 401 q 735 425 718 425 m 628 178 q 658 166 646 178 q 669 135 669 154 q 658 107 669 119 q 628 94 646 94 q 599 107 611 94 q 586 135 586 119 q 599 166 586 154 q 628 178 611 178 m 708 283 q 737 272 724 283 q 750 240 750 260 q 737 211 750 225 q 708 197 724 197 q 676 211 689 197 q 664 240 664 225 q 676 272 664 260 q 708 283 689 283 m 525 108 q 552 97 540 108 q 564 65 564 85 q 552 36 564 50 q 525 22 540 22 q 493 36 506 22 q 481 65 481 50 q 493 97 481 85 q 525 108 506 108 m 628 583 q 599 595 611 583 q 586 626 586 607 q 599 654 586 642 q 628 667 611 667 q 658 654 646 667 q 669 626 669 642 q 658 595 669 607 q 628 583 646 583 m 708 478 q 676 490 689 478 q 664 521 664 503 q 676 550 664 536 q 708 564 689 564 q 737 550 724 564 q 750 521 750 536 q 737 490 750 503 q 708 478 724 478 m 525 653 q 493 665 506 653 q 481 696 481 676 q 493 725 481 711 q 525 739 506 739 q 552 725 540 739 q 564 696 564 711 q 552 665 564 676 q 525 653 540 653 z "},"ဿ":{"ha":2149,"x_min":0,"x_max":2010,"o":"m 892 767 q 997 778 950 778 q 1278 667 1167 778 q 1388 383 1388 557 q 1367 246 1388 308 q 1388 214 1375 231 q 1415 182 1400 197 q 1618 106 1496 106 q 1813 185 1738 106 q 1894 383 1894 265 q 1813 579 1894 500 q 1618 658 1738 658 q 1547 653 1585 658 q 1532 709 1538 690 q 1515 767 1526 728 q 1618 778 1575 778 q 1900 667 1789 778 q 2010 383 2010 557 q 1899 97 2010 211 q 1618 -14 1788 -14 q 1328 96 1438 -14 q 1315 110 1326 97 q 1303 126 1304 124 q 1290 112 1297 121 q 1275 97 1283 103 q 997 -14 1165 -14 q 707 96 817 -14 q 693 110 704 97 q 681 126 682 124 q 668 112 675 121 q 653 97 661 103 q 375 -14 543 -14 q 86 96 194 -14 q 1 217 38 142 l 114 267 q 140 217 128 232 q 171 182 153 201 q 375 106 251 106 q 569 185 492 106 q 650 383 650 265 q 569 579 650 500 q 375 658 492 658 q 174 581 253 658 q 114 493 139 546 q 57 517 76 508 q 0 542 38 526 q 42 614 21 585 q 88 667 63 643 q 375 778 203 778 q 656 667 544 778 q 765 383 765 557 q 744 246 765 308 q 765 214 753 231 q 793 182 778 197 q 997 106 874 106 q 1190 185 1115 106 q 1272 383 1272 265 q 1190 579 1272 500 q 997 658 1115 658 q 926 653 963 658 l 892 767 z "},"၀":{"ha":931,"x_min":0,"x_max":792,"o":"m 335 -10 q 219 21 268 0 q 111 96 157 49 q 0 383 0 207 q 113 667 0 556 q 222 740 161 714 q 335 772 269 763 l 335 650 q 199 581 251 632 q 118 383 118 501 q 197 182 118 261 q 271 131 232 150 q 335 110 297 117 l 335 -10 m 474 114 q 596 185 544 133 q 675 383 675 265 q 596 579 675 500 q 522 631 563 611 q 474 649 500 642 l 474 771 q 682 667 599 749 q 792 383 792 557 q 681 97 792 211 q 474 -7 599 14 l 474 114 z "},"၁":{"ha":904,"x_min":0,"x_max":765,"o":"m 114 267 q 140 217 128 232 q 171 182 153 201 q 375 106 251 106 q 568 185 493 106 q 650 383 650 265 q 568 579 650 500 q 375 658 493 658 q 172 581 254 658 q 114 493 138 544 q 57 517 76 508 q 0 542 38 526 q 42 614 21 585 q 88 667 63 643 q 375 778 203 778 q 656 667 544 778 q 765 383 765 557 q 654 97 765 211 q 375 -14 543 -14 q 86 96 194 -14 q 1 217 38 142 l 114 267 z "},"၂":{"ha":931,"x_min":0,"x_max":792,"o":"m 675 778 l 792 778 l 792 -183 q 763 -332 789 -265 q 681 -453 736 -399 q 400 -565 571 -565 q 111 -456 221 -565 q 30 -333 57 -401 q 0 -169 3 -265 q 61 -170 39 -169 q 118 -171 83 -171 q 197 -368 122 -296 q 400 -446 279 -446 q 596 -367 517 -446 q 653 -279 633 -326 q 675 -175 674 -232 l 675 778 z "},"၃":{"ha":904,"x_min":0,"x_max":765,"o":"m 0 215 l 110 267 l 171 182 q 375 106 251 106 q 569 185 493 106 q 650 383 650 265 q 569 579 650 500 q 375 658 493 658 q 172 581 254 658 q 114 493 138 544 q 57 517 76 508 q 0 542 38 526 q 42 614 21 585 q 88 667 63 643 q 375 778 203 778 q 656 667 544 778 q 765 383 765 557 q 654 97 765 211 q 375 -14 543 -14 q 323 -12 350 -14 q 289 -8 296 -10 q 438 -240 356 -111 q 613 -507 521 -368 q 564 -540 582 -526 q 514 -572 546 -554 l 0 215 z "},"၄":{"ha":931,"x_min":0,"x_max":765,"o":"m 250 -572 q 201 -540 218 -554 q 153 -507 183 -526 q 327 -240 244 -368 q 475 -8 410 -111 q 442 -12 469 -10 q 390 -14 414 -14 q 111 97 222 -14 q 0 383 0 211 q 110 667 0 557 q 390 778 221 778 q 678 667 563 778 q 724 614 703 643 q 765 542 744 585 q 708 517 728 526 q 651 493 689 508 q 593 581 628 544 q 390 658 511 658 q 196 579 271 658 q 115 383 115 500 q 196 185 115 265 q 390 106 271 106 q 593 182 514 106 l 656 267 l 765 215 l 250 -572 z "},"၅":{"ha":931,"x_min":0,"x_max":793,"o":"m 793 -175 q 682 -453 790 -342 q 401 -565 571 -565 q 113 -456 222 -565 q 31 -333 58 -401 q 1 -169 4 -265 q 61 -170 39 -169 q 119 -171 83 -171 q 199 -368 124 -296 q 401 -446 281 -446 q 597 -367 518 -446 q 655 -279 635 -326 q 676 -175 675 -232 l 676 383 q 597 579 676 500 q 401 658 519 658 q 200 581 279 658 l 192 572 q 249 557 207 572 q 324 515 292 542 q 374 453 356 489 q 393 376 393 417 q 377 301 393 336 q 335 239 361 265 q 274 197 310 213 q 197 182 238 182 q 122 197 157 182 q 60 239 86 213 q 18 301 33 265 q 3 376 3 336 l 3 383 q 114 667 0 556 q 401 778 229 778 q 683 667 572 778 q 793 383 793 557 l 793 -175 m 119 379 q 140 328 119 349 q 192 307 161 307 q 242 328 221 307 q 264 379 264 349 q 242 430 264 408 q 192 451 221 451 q 140 430 161 451 q 119 379 119 408 z "},"၆":{"ha":931,"x_min":0,"x_max":792,"o":"m 740 533 q 713 432 740 478 l 789 328 q 672 89 771 188 q 400 -14 569 -14 q 113 97 228 -14 q 0 367 4 203 l 0 1024 q 29 1171 3 1104 q 111 1292 56 1238 q 392 1404 221 1404 q 679 1294 568 1404 q 792 1008 786 1186 q 731 1009 754 1008 q 672 1010 708 1010 q 593 1207 668 1132 q 392 1285 513 1285 q 196 1206 272 1285 q 115 1024 121 1129 l 115 375 q 199 183 122 258 q 400 106 278 106 q 596 185 518 106 q 629 228 614 204 q 653 271 644 251 l 599 346 q 573 340 589 343 q 546 338 557 338 q 469 353 506 338 q 408 395 433 369 q 366 457 382 421 q 350 533 350 493 q 366 610 350 574 q 408 672 382 646 q 469 713 433 697 q 546 729 506 729 q 622 713 586 729 q 683 672 657 697 q 725 610 710 646 q 740 533 740 574 m 624 531 q 603 582 624 561 q 551 603 582 603 q 501 582 522 603 q 479 531 479 561 q 501 480 479 501 q 551 458 522 458 q 603 480 582 458 q 624 531 624 501 z "},"၇":{"ha":932,"x_min":0,"x_max":793,"o":"m 406 -365 q 426 -417 407 -397 q 476 -436 446 -436 q 522 -419 501 -436 q 550 -365 543 -403 q 609 -364 588 -365 q 669 -362 631 -362 q 651 -449 668 -415 q 609 -508 635 -483 q 548 -548 583 -533 q 474 -562 513 -562 q 398 -547 433 -562 q 336 -505 363 -531 q 294 -443 310 -479 q 279 -367 279 -407 q 295 -280 279 -322 q 338 -197 311 -237 q 399 -115 365 -156 q 471 -33 433 -74 q 543 53 510 10 q 602 145 576 96 q 646 252 628 194 q 675 382 664 310 q 596 579 675 500 q 400 658 518 658 q 199 581 278 658 q 118 383 118 501 q 197 182 118 261 q 219 163 208 174 q 253 139 231 153 l 185 38 q 140 69 154 57 q 111 96 125 82 q 0 383 0 207 q 113 667 0 556 q 400 778 228 778 q 682 667 571 778 q 763 539 736 613 q 792 383 789 465 q 776 243 793 310 q 728 117 758 176 q 657 2 699 57 q 567 -106 615 -53 q 498 -183 529 -146 q 444 -252 467 -219 q 411 -312 422 -285 q 406 -365 400 -340 z "},"၈":{"ha":931,"x_min":0,"x_max":792,"o":"m 508 92 q 562 122 542 108 q 596 149 582 135 q 674 385 674 236 q 593 581 674 504 q 392 661 513 661 q 264 631 324 661 l 272 624 l 272 626 q 407 315 407 492 q 294 32 407 143 q 235 -18 267 4 q 165 20 194 1 q 111 64 136 39 q 0 385 0 190 q 110 668 0 558 q 392 779 221 779 q 679 668 564 779 q 792 385 792 558 q 681 63 792 182 q 628 19 656 38 q 557 -21 601 1 l 508 92 m 218 131 q 289 315 289 208 q 210 517 289 439 q 185 538 199 528 q 169 550 172 549 q 117 385 117 478 q 197 150 117 240 l 218 131 z "},"၉":{"ha":931,"x_min":0,"x_max":792,"o":"m 740 231 q 725 154 740 190 q 683 92 710 118 q 622 51 657 67 q 546 35 586 35 q 469 51 506 35 q 408 92 433 67 q 366 154 382 118 q 350 231 350 190 q 366 307 350 271 q 408 369 382 343 q 469 410 433 394 q 546 426 506 426 q 573 424 557 426 q 599 418 589 421 l 653 493 q 629 536 644 513 q 596 579 614 560 q 400 658 518 658 q 199 581 278 658 q 118 388 121 504 l 115 -175 q 137 -279 117 -232 q 196 -367 157 -326 q 392 -446 272 -446 q 593 -368 513 -446 q 672 -171 668 -293 q 733 -170 710 -171 q 792 -169 756 -169 q 762 -333 789 -265 q 679 -456 735 -401 q 392 -565 568 -565 q 111 -453 221 -565 q 29 -332 56 -399 q 0 -185 3 -265 l 0 397 q 113 667 4 561 q 400 778 228 778 q 672 675 569 778 q 789 436 771 576 l 713 331 q 740 231 740 282 m 624 233 q 603 284 624 263 q 551 306 582 306 q 501 284 522 306 q 479 233 479 263 q 501 182 479 203 q 551 161 522 161 q 603 182 582 161 q 624 233 624 203 z "},"၊":{"ha":256,"x_min":0,"x_max":117,"o":"m 1 -12 q 1 381 1 196 q 0 776 0 567 l 117 776 l 117 -12 l 1 -12 z "},"။":{"ha":561,"x_min":0,"x_max":422,"o":"m 1 -12 q 1 381 1 196 q 0 776 0 567 l 118 776 l 118 -12 l 1 -12 m 306 -12 q 305 381 306 196 q 304 776 304 567 l 422 776 l 422 -12 l 306 -12 z "},"၌":{"ha":903,"x_min":0,"x_max":764,"o":"m 458 825 q 413 818 429 819 q 381 817 396 817 q 172 903 258 817 q 89 1113 89 986 q 174 1319 89 1235 q 383 1406 260 1406 q 589 1319 507 1406 q 649 1228 624 1285 l 540 1181 q 523 1218 531 1207 q 506 1239 515 1229 q 381 1289 457 1289 q 253 1240 301 1289 q 206 1113 206 1192 q 219 1042 206 1075 q 259 985 233 1010 q 317 947 285 961 q 388 933 350 933 q 409 933 394 933 q 444 936 424 932 l 458 825 m 606 -565 q 725 -485 725 -569 l 725 -42 q 670 -5 692 -25 q 613 33 649 15 q 482 -24 544 -6 q 363 -43 419 -43 q 233 -22 297 -43 q 111 35 169 -1 l 111 71 q 372 -14 217 -14 q 654 97 543 -14 q 764 383 764 208 q 654 667 764 557 q 372 778 543 778 q 85 667 200 778 q 38 614 58 642 q 0 542 18 586 q 56 516 38 525 q 111 494 75 507 q 140 544 128 526 q 171 581 153 563 q 372 658 249 658 q 569 579 490 658 q 647 383 647 499 q 569 185 647 269 q 372 106 490 106 q 169 182 247 106 q 141 217 156 196 q 110 268 126 238 q 53 242 74 251 q 1 217 33 232 l 1 -36 q 79 -87 39 -65 q 165 -127 119 -110 q 263 -154 211 -144 q 371 -162 314 -164 q 489 -151 426 -161 q 606 -112 551 -142 l 606 -449 l 111 -449 l 111 -387 q 135 -356 114 -365 q 199 -347 157 -346 l 199 -225 q 115 -236 147 -225 q 58 -269 82 -247 q 18 -320 33 -290 q 1 -389 3 -350 l 1 -475 q 34 -532 4 -510 q 113 -565 64 -554 l 606 -565 z "},"၍":{"ha":1153,"x_min":1,"x_max":1088,"o":"m 679 -362 l 678 390 q 599 579 676 500 q 403 658 521 658 q 201 581 281 658 q 122 422 136 518 q 406 311 294 422 q 490 164 468 238 q 514 -1 511 90 q 453 -12 479 -10 q 403 -14 428 -14 q 114 96 224 -14 q 3 383 3 207 q 115 667 3 556 q 403 778 231 778 q 685 667 574 778 q 794 390 793 557 l 794 -362 l 679 -362 m 200 182 q 388 106 271 111 q 319 224 367 176 q 230 281 282 260 q 129 303 178 301 q 200 182 150 232 m 510 -301 q 447 -283 479 -293 q 375 -263 414 -272 q 295 -249 336 -254 q 218 -248 254 -243 q 156 -269 182 -253 q 119 -315 131 -285 l 119 -367 q 124 -407 119 -392 q 139 -431 129 -422 q 166 -443 149 -439 q 207 -449 183 -447 l 897 -449 l 897 490 q 879 610 896 560 q 837 697 863 660 q 778 761 811 733 q 710 817 744 789 q 649 866 679 839 q 592 928 618 893 q 549 1008 567 963 q 528 1111 532 1053 q 551 1223 529 1169 q 613 1317 572 1276 q 822 1403 699 1403 q 1028 1317 946 1403 q 1088 1225 1063 1282 l 979 1178 q 962 1215 969 1204 q 944 1236 954 1226 q 819 1286 896 1286 q 692 1237 740 1286 q 643 1108 643 1188 q 661 1035 647 1067 q 696 976 675 1003 q 744 926 717 950 q 800 879 772 903 q 878 813 839 849 q 947 727 917 776 q 997 612 978 678 q 1013 456 1015 546 l 1013 -450 q 897 -565 1013 -572 l 122 -565 q 4 -449 7 -551 l 3 -319 q 33 -207 1 -250 q 113 -144 64 -164 q 223 -122 163 -124 q 342 -131 283 -121 q 453 -158 401 -140 q 547 -201 504 -176 l 510 -301 z "},"၎":{"ha":903,"x_min":0,"x_max":764,"o":"m 647 -565 q 647 -385 647 -465 q 647 -227 647 -306 q 646 -69 646 -149 q 646 63 646 10 q 392 -14 563 -14 q 110 97 221 -14 q 0 383 0 208 q 110 667 0 557 q 392 778 221 778 q 679 667 564 778 q 726 614 706 642 q 764 542 746 586 q 708 516 726 525 q 653 494 689 507 q 624 544 636 526 q 593 581 611 563 q 392 658 515 658 q 194 579 274 658 q 117 383 117 499 q 194 185 117 269 q 392 106 274 106 q 594 182 517 106 q 623 217 608 196 q 654 268 638 238 l 763 211 l 763 -565 l 647 -565 z "},"၏":{"ha":1279,"x_min":0,"x_max":1214,"o":"m 725 261 q 742 243 733 253 q 761 215 750 233 q 725 149 744 176 q 681 96 706 121 q 392 -14 571 -14 q 110 97 221 -14 q 0 383 0 208 q 110 667 0 557 q 392 778 221 778 q 638 701 535 778 q 689 753 661 733 q 776 781 729 781 q 846 766 813 781 q 903 728 879 751 q 943 672 928 704 q 960 603 958 639 l 960 -14 l 843 -14 l 846 603 q 824 651 844 631 q 776 671 803 671 q 738 656 756 671 q 715 624 726 646 q 763 544 743 586 q 444 389 643 389 q 157 500 272 389 l 144 511 q 125 454 133 490 q 117 383 117 418 q 146 251 117 311 l 157 261 q 444 372 272 372 q 598 342 526 372 q 725 261 669 313 m 392 658 q 225 606 293 658 l 231 597 q 242 586 238 589 q 334 527 283 547 q 444 507 385 507 q 611 561 538 507 l 593 581 q 392 658 514 658 m 611 200 q 444 254 538 254 q 240 174 322 254 l 226 157 q 392 106 294 106 q 596 183 517 106 l 611 200 m 1024 -14 l 1024 490 q 1009 671 1026 601 q 962 782 992 740 q 894 847 932 824 q 817 890 856 869 q 763 921 790 903 q 714 965 736 939 q 676 1026 692 990 q 654 1111 660 1061 q 676 1223 656 1169 q 739 1317 697 1276 q 949 1403 825 1403 q 1154 1317 1072 1403 q 1214 1225 1189 1282 l 1106 1178 q 1088 1215 1096 1204 q 1071 1236 1081 1226 q 946 1286 1022 1286 q 818 1237 867 1286 q 769 1108 769 1188 q 782 1058 772 1079 q 808 1019 792 1036 q 846 990 824 1003 q 894 963 868 976 q 979 907 935 938 q 1060 821 1024 876 q 1118 678 1096 765 q 1139 456 1140 590 l 1139 -14 l 1024 -14 z "},"ၐ":{"ha":931,"x_min":0,"x_max":792,"o":"m 235 -21 q 111 61 158 13 q 0 383 0 181 q 113 667 0 556 q 400 778 228 778 q 682 667 571 778 q 792 383 792 557 q 681 63 792 186 q 630 18 657 38 q 558 -19 603 -1 q 531 33 540 15 q 501 88 521 50 q 558 118 539 104 q 596 150 576 132 q 675 383 675 239 q 596 579 675 500 q 400 658 518 658 q 199 581 278 658 q 118 383 118 501 q 196 147 118 236 q 231 118 213 129 q 283 90 249 107 l 235 -21 m 385 474 q 452 447 424 474 q 481 378 481 419 q 452 314 481 340 q 385 288 424 288 q 321 314 347 288 q 294 378 294 340 q 321 447 294 419 q 385 474 347 474 z "},"ၑ":{"ha":931,"x_min":0,"x_max":792,"o":"m 283 665 q 230 636 250 649 q 196 610 210 624 q 118 374 118 521 q 199 176 118 253 q 400 97 279 97 q 596 176 517 97 q 675 374 675 256 q 596 607 675 517 q 558 637 578 622 q 501 668 538 651 l 560 776 q 681 694 632 743 q 792 374 792 568 q 682 90 792 200 q 400 -21 571 -21 q 113 90 228 -21 q 0 374 0 200 q 111 696 0 576 q 163 739 136 721 q 235 779 190 757 l 283 665 m 294 378 q 321 447 294 419 q 385 474 347 474 q 452 447 424 474 q 481 378 481 419 q 452 314 481 340 q 385 288 424 288 q 321 314 347 288 q 294 378 294 340 z "},"ၒ":{"ha":931,"x_min":0,"x_max":792,"o":"m 792 375 q 676 92 792 201 q 392 -19 563 -19 q 110 92 221 -19 q 0 375 0 201 q 111 696 0 569 q 233 778 160 744 q 260 725 250 743 q 289 671 271 707 q 196 608 231 644 q 115 375 115 519 q 194 178 115 258 q 392 99 275 99 q 593 178 511 99 q 672 375 672 254 l 672 383 q 650 382 656 382 q 574 398 610 382 q 512 440 538 414 q 470 501 486 465 q 454 578 454 538 q 470 653 454 618 q 512 715 486 689 q 574 757 538 742 q 650 772 610 772 q 717 760 685 772 q 785 721 749 749 l 711 626 q 647 660 679 660 q 621 652 635 660 q 597 633 607 644 q 580 606 586 621 q 574 575 574 590 q 594 525 574 546 q 649 503 614 504 q 655 501 653 500 q 669 501 657 501 q 703 501 683 501 q 744 488 724 500 q 777 449 764 475 q 792 375 790 424 z "},"ၓ":{"ha":931,"x_min":0,"x_max":792,"o":"m 0 375 q 15 449 1 424 q 48 488 28 475 q 88 501 68 500 q 122 501 108 501 q 135 501 132 501 q 144 503 139 500 q 196 526 175 504 q 217 576 217 547 q 210 607 217 592 q 194 634 204 622 q 170 653 183 646 q 143 661 157 661 q 81 625 113 661 l 7 722 q 74 762 43 750 q 140 774 104 774 q 217 758 181 774 q 279 717 253 743 q 322 655 306 690 q 338 579 338 619 q 322 503 338 539 q 279 440 306 467 q 217 398 253 414 q 140 382 181 382 q 126 383 133 382 q 118 375 118 383 q 199 178 118 254 q 400 99 279 99 q 593 178 518 103 q 672 375 672 254 l 672 383 q 650 382 656 382 q 574 398 610 382 q 512 440 538 414 q 470 503 486 467 q 454 579 454 539 q 470 655 454 619 q 512 717 486 690 q 574 758 538 743 q 650 774 610 774 q 717 762 685 774 q 785 722 749 750 l 711 628 q 647 661 679 661 q 621 653 635 661 q 597 634 607 646 q 580 607 586 622 q 574 576 574 592 q 594 526 574 547 q 649 503 614 504 q 654 501 651 500 q 669 501 657 501 q 703 501 683 501 q 744 488 724 500 q 777 449 764 475 q 792 375 790 424 q 676 92 792 201 q 654 71 667 82 q 631 51 642 60 q 524 -1 582 18 q 400 -19 465 -19 l 382 -19 q 0 375 64 10 z "},"ၔ":{"ha":929,"x_min":0,"x_max":790,"o":"m 497 343 q 215 454 326 343 q 181 496 197 472 q 158 531 165 519 q 115 381 115 463 q 194 183 115 267 q 392 106 274 106 q 593 183 514 106 q 651 271 628 219 q 708 247 689 256 q 765 222 728 238 q 724 151 744 179 q 679 97 704 122 q 392 -14 561 -14 q 110 97 221 -14 q 0 381 0 207 q 110 665 0 556 q 392 778 219 778 q 681 668 571 778 q 750 574 719 626 q 778 519 765 547 q 790 465 790 492 q 774 416 790 439 q 724 377 758 393 q 633 352 689 361 q 497 343 578 343 m 594 582 q 392 658 514 658 q 313 647 351 658 q 246 618 274 636 q 268 581 253 603 q 301 542 283 560 q 389 483 340 503 q 497 463 438 463 q 650 501 583 463 q 594 582 631 543 z "},"ၕ":{"ha":1528,"x_min":0,"x_max":1389,"o":"m 761 274 q 821 182 782 222 q 1024 106 899 106 q 1219 185 1142 106 q 1289 301 1263 228 l 1389 226 q 1351 154 1371 183 q 1304 97 1331 125 q 1024 -14 1193 -14 q 735 96 844 -14 q 707 128 719 111 q 679 97 693 111 q 392 -14 561 -14 q 110 97 221 -14 q 0 381 0 207 q 110 665 0 556 q 392 778 219 778 q 681 668 571 778 q 750 574 719 626 q 778 519 765 547 q 790 465 790 492 q 774 416 790 439 q 724 377 758 393 q 633 352 689 361 q 497 343 578 343 q 215 454 326 343 q 181 496 197 472 q 158 531 165 519 q 115 381 115 463 q 194 183 115 267 q 392 106 274 106 q 593 183 514 106 q 643 254 622 213 q 660 291 649 275 q 690 313 672 307 q 726 309 707 318 q 761 274 744 300 m 594 582 q 392 658 514 658 q 313 647 351 658 q 246 618 274 636 q 268 581 253 603 q 301 542 283 560 q 389 483 340 503 q 497 463 438 463 q 650 501 583 463 q 594 582 631 543 z "},"ၖ":{"ha":1647,"x_min":14,"x_max":1508,"o":"m 879 222 q 902 194 894 203 q 918 175 910 186 q 1113 99 999 99 q 1311 175 1233 99 q 1390 371 1390 253 l 1390 379 q 1368 378 1375 378 q 1292 394 1328 378 q 1231 435 1257 410 q 1190 497 1206 461 q 1175 572 1175 532 q 1190 647 1175 613 q 1231 708 1206 682 q 1292 749 1257 733 q 1368 764 1328 764 q 1435 753 1403 764 q 1503 714 1467 742 l 1429 621 q 1365 653 1397 653 q 1338 646 1351 653 q 1316 627 1325 639 q 1301 600 1307 615 q 1294 569 1294 585 q 1315 520 1294 542 q 1367 497 1335 499 q 1374 494 1371 493 q 1388 496 1376 496 q 1422 495 1401 496 q 1461 483 1442 494 q 1494 444 1481 471 q 1508 371 1507 418 q 1396 90 1508 199 q 1113 -19 1282 -19 q 835 90 944 -19 q 772 174 800 122 l 879 222 m 56 425 q 85 413 72 425 q 97 385 97 401 q 85 354 97 367 q 56 342 72 342 q 26 354 38 342 q 14 385 14 367 q 26 413 14 401 q 56 425 38 425 m 401 760 q 431 748 418 760 q 443 717 443 736 q 431 689 443 701 q 401 676 418 676 q 372 689 383 676 q 360 717 360 701 q 372 748 360 736 q 401 760 383 760 m 401 82 q 431 70 418 82 q 443 42 443 58 q 431 11 443 24 q 401 -1 418 -1 q 372 11 383 -1 q 360 42 360 24 q 372 70 360 58 q 401 82 383 82 m 163 178 q 192 166 179 178 q 204 135 204 154 q 192 107 204 119 q 163 94 179 94 q 133 107 144 94 q 121 135 121 119 q 133 166 121 154 q 163 178 144 178 m 82 283 q 114 272 101 283 q 126 240 126 260 q 114 211 126 225 q 82 197 101 197 q 53 211 67 197 q 40 240 40 225 q 53 272 40 260 q 82 283 67 283 m 265 108 q 297 97 285 108 q 310 65 310 85 q 297 36 310 50 q 265 22 285 22 q 238 36 250 22 q 226 65 226 50 q 238 97 226 85 q 265 108 250 108 m 163 583 q 133 595 144 583 q 121 626 121 607 q 133 654 121 642 q 163 667 144 667 q 192 654 179 667 q 204 626 204 642 q 192 595 204 607 q 163 583 179 583 m 82 478 q 53 490 67 478 q 40 521 40 503 q 53 550 40 536 q 82 564 67 564 q 114 550 101 564 q 126 521 126 536 q 114 490 126 503 q 82 478 101 478 m 265 653 q 238 665 250 653 q 226 696 226 676 q 238 725 226 711 q 265 739 250 739 q 297 725 285 739 q 310 696 310 711 q 297 665 310 676 q 265 653 285 653 m 735 425 q 765 413 753 425 q 776 385 776 401 q 765 354 776 367 q 735 342 753 342 q 706 354 718 342 q 693 385 693 367 q 706 413 693 401 q 735 425 718 425 m 628 178 q 658 166 646 178 q 669 135 669 154 q 658 107 669 119 q 628 94 646 94 q 599 107 611 94 q 586 135 586 119 q 599 166 586 154 q 628 178 611 178 m 708 283 q 737 272 724 283 q 750 240 750 260 q 737 211 750 225 q 708 197 724 197 q 676 211 689 197 q 664 240 664 225 q 676 272 664 260 q 708 283 689 283 m 525 108 q 552 97 540 108 q 564 65 564 85 q 552 36 564 50 q 525 22 540 22 q 493 36 506 22 q 481 65 481 50 q 493 97 481 85 q 525 108 506 108 m 628 583 q 599 595 611 583 q 586 626 586 607 q 599 654 586 642 q 628 667 611 667 q 658 654 646 667 q 669 626 669 642 q 658 595 669 607 q 628 583 646 583 m 708 478 q 676 490 689 478 q 664 521 664 503 q 676 550 664 536 q 708 564 689 564 q 737 550 724 564 q 750 521 750 536 q 737 490 750 503 q 708 478 724 478 m 525 653 q 493 665 506 653 q 481 696 481 676 q 493 725 481 711 q 525 739 506 739 q 552 725 540 739 q 564 696 564 711 q 552 665 564 676 q 525 653 540 653 z "},"ၗ":{"ha":2149,"x_min":14,"x_max":2010,"o":"m 761 226 l 792 194 q 880 128 831 154 q 988 101 929 101 q 1098 122 1047 101 q 1189 181 1149 143 q 1217 213 1204 194 q 1240 249 1231 231 q 1292 309 1256 299 q 1350 278 1328 319 q 1414 182 1371 224 q 1610 103 1490 103 q 1811 182 1728 103 q 1890 379 1890 258 l 1890 388 q 1883 387 1892 388 q 1868 386 1874 386 q 1792 402 1828 386 q 1730 444 1756 418 q 1688 507 1704 471 q 1672 583 1672 543 q 1688 659 1672 624 q 1730 721 1704 694 q 1792 763 1756 747 q 1868 778 1828 778 q 1935 766 1904 778 q 2001 726 1967 754 l 1929 631 q 1894 659 1907 653 q 1865 665 1882 665 q 1839 658 1853 665 q 1815 638 1825 650 q 1799 611 1806 626 q 1793 581 1793 596 q 1813 530 1793 551 q 1865 507 1833 508 q 1873 505 1869 504 q 1888 506 1876 506 q 1922 505 1901 506 q 1962 492 1942 504 q 1995 453 1982 479 q 2010 379 2008 428 q 1897 96 2010 206 q 1610 -15 1782 -15 q 1328 96 1439 -15 q 1313 112 1321 103 q 1303 122 1304 121 l 1275 94 q 988 -17 1160 -17 q 831 19 901 -17 q 706 108 760 54 l 685 132 l 761 226 m 56 425 q 85 413 72 425 q 97 385 97 401 q 85 354 97 367 q 56 342 72 342 q 26 354 38 342 q 14 385 14 367 q 26 413 14 401 q 56 425 38 425 m 401 760 q 431 748 418 760 q 443 717 443 736 q 431 689 443 701 q 401 676 418 676 q 372 689 383 676 q 360 717 360 701 q 372 748 360 736 q 401 760 383 760 m 401 82 q 431 70 418 82 q 443 42 443 58 q 431 11 443 24 q 401 -1 418 -1 q 372 11 383 -1 q 360 42 360 24 q 372 70 360 58 q 401 82 383 82 m 163 178 q 192 166 179 178 q 204 135 204 154 q 192 107 204 119 q 163 94 179 94 q 133 107 144 94 q 121 135 121 119 q 133 166 121 154 q 163 178 144 178 m 82 283 q 114 272 101 283 q 126 240 126 260 q 114 211 126 225 q 82 197 101 197 q 53 211 67 197 q 40 240 40 225 q 53 272 40 260 q 82 283 67 283 m 265 108 q 297 97 285 108 q 310 65 310 85 q 297 36 310 50 q 265 22 285 22 q 238 36 250 22 q 226 65 226 50 q 238 97 226 85 q 265 108 250 108 m 163 583 q 133 595 144 583 q 121 626 121 607 q 133 654 121 642 q 163 667 144 667 q 192 654 179 667 q 204 626 204 642 q 192 595 204 607 q 163 583 179 583 m 82 478 q 53 490 67 478 q 40 521 40 503 q 53 550 40 536 q 82 564 67 564 q 114 550 101 564 q 126 521 126 536 q 114 490 126 503 q 82 478 101 478 m 265 653 q 238 665 250 653 q 226 696 226 676 q 238 725 226 711 q 265 739 250 739 q 297 725 285 739 q 310 696 310 711 q 297 665 310 676 q 265 653 285 653 m 735 425 q 765 413 753 425 q 776 385 776 401 q 765 354 776 367 q 735 342 753 342 q 706 354 718 342 q 693 385 693 367 q 706 413 693 401 q 735 425 718 425 m 628 178 q 658 166 646 178 q 669 135 669 154 q 658 107 669 119 q 628 94 646 94 q 599 107 611 94 q 586 135 586 119 q 599 166 586 154 q 628 178 611 178 m 708 283 q 737 272 724 283 q 750 240 750 260 q 737 211 750 225 q 708 197 724 197 q 676 211 689 197 q 664 240 664 225 q 676 272 664 260 q 708 283 689 283 m 525 108 q 552 97 540 108 q 564 65 564 85 q 552 36 564 50 q 525 22 540 22 q 493 36 506 22 q 481 65 481 50 q 493 97 481 85 q 525 108 506 108 m 628 583 q 599 595 611 583 q 586 626 586 607 q 599 654 586 642 q 628 667 611 667 q 658 654 646 667 q 669 626 669 642 q 658 595 669 607 q 628 583 646 583 m 708 478 q 676 490 689 478 q 664 521 664 503 q 676 550 664 536 q 708 564 689 564 q 737 550 724 564 q 750 521 750 536 q 737 490 750 503 q 708 478 724 478 m 525 653 q 493 665 506 653 q 481 696 481 676 q 493 725 481 711 q 525 739 506 739 q 552 725 540 739 q 564 696 564 711 q 552 665 564 676 q 525 653 540 653 z "},"ၘ":{"ha":915,"x_min":14,"x_max":776,"o":"m 469 -319 q 356 -298 410 -319 q 265 -239 303 -276 q 233 -203 244 -222 q 226 -231 231 -208 q 221 -279 221 -253 q 271 -404 221 -356 q 396 -457 319 -457 q 525 -406 475 -457 q 545 -381 538 -393 q 571 -339 553 -369 l 568 -340 l 669 -383 q 637 -444 653 -421 q 604 -485 621 -468 q 396 -567 522 -567 q 282 -544 333 -567 q 193 -485 231 -522 q 133 -392 154 -443 q 113 -279 113 -342 q 132 -165 113 -218 q 193 -72 151 -112 q 396 7 272 7 q 607 -72 526 7 q 631 -103 618 -89 q 654 -137 643 -118 q 675 -180 665 -157 q 685 -221 685 -203 q 673 -262 685 -243 q 635 -294 661 -281 q 569 -313 608 -307 q 469 -319 529 -319 m 526 -151 q 396 -103 474 -103 q 347 -108 369 -103 q 313 -122 324 -114 q 323 -137 315 -126 q 343 -157 331 -149 q 469 -208 393 -208 q 521 -203 496 -208 q 557 -192 546 -199 q 545 -174 554 -185 q 526 -151 536 -162 m 56 425 q 85 413 72 425 q 97 385 97 401 q 85 354 97 367 q 56 342 72 342 q 26 354 38 342 q 14 385 14 367 q 26 413 14 401 q 56 425 38 425 m 401 760 q 431 748 418 760 q 443 717 443 736 q 431 689 443 701 q 401 676 418 676 q 372 689 383 676 q 360 717 360 701 q 372 748 360 736 q 401 760 383 760 m 401 82 q 431 70 418 82 q 443 42 443 58 q 431 11 443 24 q 401 -1 418 -1 q 372 11 383 -1 q 360 42 360 24 q 372 70 360 58 q 401 82 383 82 m 163 178 q 192 166 179 178 q 204 135 204 154 q 192 107 204 119 q 163 94 179 94 q 133 107 144 94 q 121 135 121 119 q 133 166 121 154 q 163 178 144 178 m 82 283 q 114 272 101 283 q 126 240 126 260 q 114 211 126 225 q 82 197 101 197 q 53 211 67 197 q 40 240 40 225 q 53 272 40 260 q 82 283 67 283 m 265 108 q 297 97 285 108 q 310 65 310 85 q 297 36 310 50 q 265 22 285 22 q 238 36 250 22 q 226 65 226 50 q 238 97 226 85 q 265 108 250 108 m 163 583 q 133 595 144 583 q 121 626 121 607 q 133 654 121 642 q 163 667 144 667 q 192 654 179 667 q 204 626 204 642 q 192 595 204 607 q 163 583 179 583 m 82 478 q 53 490 67 478 q 40 521 40 503 q 53 550 40 536 q 82 564 67 564 q 114 550 101 564 q 126 521 126 536 q 114 490 126 503 q 82 478 101 478 m 265 653 q 238 665 250 653 q 226 696 226 676 q 238 725 226 711 q 265 739 250 739 q 297 725 285 739 q 310 696 310 711 q 297 665 310 676 q 265 653 285 653 m 735 425 q 765 413 753 425 q 776 385 776 401 q 765 354 776 367 q 735 342 753 342 q 706 354 718 342 q 693 385 693 367 q 706 413 693 401 q 735 425 718 425 m 628 178 q 658 166 646 178 q 669 135 669 154 q 658 107 669 119 q 628 94 646 94 q 599 107 611 94 q 586 135 586 119 q 599 166 586 154 q 628 178 611 178 m 708 283 q 737 272 724 283 q 750 240 750 260 q 737 211 750 225 q 708 197 724 197 q 676 211 689 197 q 664 240 664 225 q 676 272 664 260 q 708 283 689 283 m 525 108 q 552 97 540 108 q 564 65 564 85 q 552 36 564 50 q 525 22 540 22 q 493 36 506 22 q 481 65 481 50 q 493 97 481 85 q 525 108 506 108 m 628 583 q 599 595 611 583 q 586 626 586 607 q 599 654 586 642 q 628 667 611 667 q 658 654 646 667 q 669 626 669 642 q 658 595 669 607 q 628 583 646 583 m 708 478 q 676 490 689 478 q 664 521 664 503 q 676 550 664 536 q 708 564 689 564 q 737 550 724 564 q 750 521 750 536 q 737 490 750 503 q 708 478 724 478 m 525 653 q 493 665 506 653 q 481 696 481 676 q 493 725 481 711 q 525 739 506 739 q 552 725 540 739 q 564 696 564 711 q 552 665 564 676 q 525 653 540 653 z "},"ၙ":{"ha":915,"x_min":14,"x_max":1060,"o":"m 56 425 q 85 413 72 425 q 97 385 97 401 q 85 354 97 367 q 56 342 72 342 q 26 354 38 342 q 14 385 14 367 q 26 413 14 401 q 56 425 38 425 m 401 760 q 431 748 418 760 q 443 717 443 736 q 431 689 443 701 q 401 676 418 676 q 372 689 383 676 q 360 717 360 701 q 372 748 360 736 q 401 760 383 760 m 401 82 q 431 70 418 82 q 443 42 443 58 q 431 11 443 24 q 401 -1 418 -1 q 372 11 383 -1 q 360 42 360 24 q 372 70 360 58 q 401 82 383 82 m 163 178 q 192 166 179 178 q 204 135 204 154 q 192 107 204 119 q 163 94 179 94 q 133 107 144 94 q 121 135 121 119 q 133 166 121 154 q 163 178 144 178 m 82 283 q 114 272 101 283 q 126 240 126 260 q 114 211 126 225 q 82 197 101 197 q 53 211 67 197 q 40 240 40 225 q 53 272 40 260 q 82 283 67 283 m 265 108 q 297 97 285 108 q 310 65 310 85 q 297 36 310 50 q 265 22 285 22 q 238 36 250 22 q 226 65 226 50 q 238 97 226 85 q 265 108 250 108 m 163 583 q 133 595 144 583 q 121 626 121 607 q 133 654 121 642 q 163 667 144 667 q 192 654 179 667 q 204 626 204 642 q 192 595 204 607 q 163 583 179 583 m 82 478 q 53 490 67 478 q 40 521 40 503 q 53 550 40 536 q 82 564 67 564 q 114 550 101 564 q 126 521 126 536 q 114 490 126 503 q 82 478 101 478 m 265 653 q 238 665 250 653 q 226 696 226 676 q 238 725 226 711 q 265 739 250 739 q 297 725 285 739 q 310 696 310 711 q 297 665 310 676 q 265 653 285 653 m 735 425 q 765 413 753 425 q 776 385 776 401 q 765 354 776 367 q 735 342 753 342 q 706 354 718 342 q 693 385 693 367 q 706 413 693 401 q 735 425 718 425 m 628 178 q 658 166 646 178 q 669 135 669 154 q 658 107 669 119 q 628 94 646 94 q 599 107 611 94 q 586 135 586 119 q 599 166 586 154 q 628 178 611 178 m 708 283 q 737 272 724 283 q 750 240 750 260 q 737 211 750 225 q 708 197 724 197 q 676 211 689 197 q 664 240 664 225 q 676 272 664 260 q 708 283 689 283 m 525 108 q 552 97 540 108 q 564 65 564 85 q 552 36 564 50 q 525 22 540 22 q 493 36 506 22 q 481 65 481 50 q 493 97 481 85 q 525 108 506 108 m 628 583 q 599 595 611 583 q 586 626 586 607 q 599 654 586 642 q 628 667 611 667 q 658 654 646 667 q 669 626 669 642 q 658 595 669 607 q 628 583 646 583 m 708 478 q 676 490 689 478 q 664 521 664 503 q 676 550 664 536 q 708 564 689 564 q 737 550 724 564 q 750 521 750 536 q 737 490 750 503 q 708 478 724 478 m 525 653 q 493 665 506 653 q 481 696 481 676 q 493 725 481 711 q 525 739 506 739 q 552 725 540 739 q 564 696 564 711 q 552 665 564 676 q 525 653 540 653 m 526 -151 q 396 -103 474 -103 q 347 -108 369 -103 q 313 -122 324 -114 q 323 -137 315 -126 q 343 -157 331 -149 q 469 -208 393 -208 q 521 -203 496 -208 q 557 -192 546 -199 q 545 -174 554 -185 q 526 -151 536 -162 m 569 -337 l 638 -339 q 658 -378 646 -360 l 667 -389 q 700 -418 682 -406 q 796 -446 742 -446 q 889 -423 850 -446 q 957 -346 928 -400 l 1060 -401 q 1031 -447 1042 -431 q 1003 -481 1019 -464 q 800 -568 919 -568 q 600 -487 683 -568 q 396 -567 519 -567 q 282 -544 333 -567 q 193 -485 231 -522 q 133 -392 154 -443 q 113 -279 113 -342 q 132 -165 113 -218 q 193 -72 151 -112 q 396 7 272 7 q 607 -72 526 7 q 631 -103 618 -89 q 654 -137 643 -118 q 675 -180 665 -157 q 685 -221 685 -203 q 673 -262 685 -243 q 635 -294 661 -281 q 569 -313 608 -307 q 469 -319 529 -319 q 356 -298 410 -319 q 265 -239 303 -276 q 233 -203 244 -222 q 226 -231 231 -208 q 221 -279 221 -253 q 271 -404 221 -356 q 396 -457 319 -457 q 525 -406 475 -457 q 536 -393 531 -399 l 568 -340 q 569 -337 540 -387 z "},"ၚ":{"ha":931,"x_min":0,"x_max":764,"o":"m 440 -362 q 420 -385 432 -372 q 397 -412 408 -397 q 419 -412 385 -440 q 483 -392 454 -385 q 451 -488 478 -454 q 385 -522 424 -522 q 316 -494 344 -522 q 288 -426 288 -465 q 309 -355 288 -386 q 358 -294 331 -324 l 390 -257 l 390 -260 q 413 -236 388 -262 q 438 -172 439 -210 q 420 -135 435 -151 q 383 -118 406 -118 q 341 -133 357 -118 q 325 -174 325 -149 q 381 -244 325 -199 l 315 -328 q 280 -303 290 -311 q 265 -290 269 -294 q 219 -174 219 -244 q 266 -58 219 -103 q 383 -12 313 -12 q 498 -58 453 -12 q 543 -174 543 -104 q 531 -231 542 -204 q 506 -281 521 -257 q 473 -325 490 -304 q 440 -362 456 -346 m 763 217 q 681 96 729 142 q 392 -14 571 -14 q 110 97 221 -14 q 0 383 0 208 q 110 667 0 557 q 392 778 221 778 q 679 667 564 778 q 726 614 706 642 q 764 542 746 586 q 708 516 726 525 q 653 494 689 507 q 624 544 636 526 q 593 581 611 563 q 392 658 515 658 q 194 579 274 658 q 117 383 117 499 q 194 185 117 269 q 392 106 274 106 q 594 182 517 106 q 623 217 608 196 q 654 268 638 238 l 763 217 z "},"ၛ":{"ha":1136,"x_min":0,"x_max":997,"o":"m 369 497 q 399 593 369 546 q 444 653 428 640 q 465 654 478 653 q 440 656 453 656 q 417 658 428 657 q 400 658 406 658 q 199 581 281 658 q 119 383 119 501 q 197 182 119 263 q 400 106 278 106 q 497 119 454 106 q 588 176 540 133 l 675 89 q 639 61 653 71 q 611 42 625 51 l 611 -390 q 618 -424 614 -412 q 627 -440 622 -435 q 644 -446 632 -444 q 675 -449 656 -447 l 793 -449 q 845 -449 828 -449 q 867 -445 863 -449 q 874 -431 872 -442 q 878 -392 875 -419 l 878 776 l 997 776 l 997 -483 q 897 -567 997 -571 q 745 -566 822 -567 q 592 -565 668 -565 q 494 -476 497 -543 l 493 -6 q 451 -11 478 -8 q 400 -14 425 -14 q 111 96 221 -14 q 0 383 0 207 q 113 667 0 556 q 400 778 228 778 q 682 667 571 778 q 707 639 696 653 q 730 604 718 625 q 751 556 742 583 q 760 497 760 528 q 753 449 760 474 q 840 251 757 338 l 756 165 q 656 325 681 238 q 564 303 614 303 q 488 318 524 303 q 426 360 453 333 q 385 422 400 386 q 369 497 369 457 m 488 500 q 510 443 488 465 q 567 421 532 421 q 615 436 593 421 q 644 474 638 451 q 647 499 647 489 q 647 515 647 508 q 618 562 642 542 q 567 582 594 582 q 510 558 532 582 q 488 500 488 535 z "},"ၜ":{"ha":931,"x_min":0,"x_max":792,"o":"m 400 -14 q 111 96 221 -14 q 0 383 0 207 q 113 667 0 556 q 400 778 228 778 q 682 667 571 778 q 792 383 792 557 q 681 97 792 211 q 400 -14 569 -14 m 400 658 q 199 581 278 658 q 118 383 118 501 q 197 182 118 261 q 400 106 275 106 q 596 185 518 106 q 675 383 675 265 q 596 579 675 500 q 400 658 518 658 m 251 381 q 263 437 251 410 q 295 483 275 464 q 342 515 315 503 q 400 526 369 526 q 456 515 429 526 q 503 483 483 503 q 534 437 522 464 q 546 381 546 410 q 534 323 546 350 q 503 276 522 296 q 456 244 483 256 q 400 232 429 232 q 342 244 369 232 q 295 276 315 256 q 263 323 275 296 q 251 381 251 350 m 346 381 q 362 342 346 358 q 400 326 378 326 q 440 342 422 326 q 457 381 457 358 q 440 420 457 403 q 400 438 422 438 q 362 420 378 438 q 346 381 346 403 z "},"ၝ":{"ha":931,"x_min":0,"x_max":792,"o":"m 342 -564 q 253 -551 300 -564 q 165 -512 206 -539 q 96 -447 125 -486 q 63 -354 67 -408 q 68 -271 60 -317 q 108 -178 76 -225 q 193 -106 140 -135 q 304 -76 246 -76 q 377 -85 340 -76 q 444 -110 414 -94 q 499 -152 475 -126 q 539 -219 524 -178 q 489 -245 514 -237 q 439 -269 464 -253 q 388 -203 418 -215 q 308 -192 357 -192 q 261 -197 282 -192 q 228 -211 240 -201 q 189 -258 200 -232 q 178 -310 178 -285 q 189 -362 178 -336 q 222 -407 200 -387 q 274 -439 243 -426 q 343 -449 306 -451 l 401 -449 q 562 -396 503 -451 q 622 -210 621 -340 l 624 40 q 527 -1 589 18 q 400 -21 465 -21 q 113 90 228 -21 q 0 374 0 200 q 111 696 0 576 q 163 739 136 721 q 235 779 190 757 q 260 721 250 740 q 282 665 269 701 q 230 636 250 649 q 196 610 210 624 q 118 374 118 521 q 125 317 118 347 q 138 269 132 286 q 400 358 244 358 q 654 269 554 358 q 668 317 661 286 q 675 374 675 347 q 596 607 675 517 q 558 637 578 622 q 501 668 538 651 l 560 776 q 681 694 632 743 q 792 374 792 568 q 738 163 792 254 l 738 -253 q 401 -565 738 -569 l 342 -564 m 400 239 q 206 168 281 239 q 400 97 281 97 q 588 168 510 97 q 400 239 513 239 z "},"ၞ":{"ha":915,"x_min":-79,"x_max":776,"o":"m 178 -564 q 135 -561 160 -564 q 85 -553 111 -558 q 36 -540 60 -549 q -6 -521 13 -532 q -33 -491 -19 -510 q -58 -449 -47 -472 q -74 -397 -68 -425 q -79 -342 -79 -369 q -56 -242 -79 -290 q 26 -168 -32 -193 q 119 -136 81 -144 q 195 -128 158 -128 q 272 -135 232 -128 q 350 -147 311 -142 l 350 33 l 468 33 l 468 -168 q 517 -181 496 -174 q 556 -196 538 -189 q 591 -210 574 -203 q 653 -231 608 -218 l 615 -347 l 468 -289 q 467 -373 468 -314 q 467 -476 467 -432 q 369 -565 461 -543 l 178 -564 m 40 -314 q 73 -415 43 -383 q 179 -443 103 -447 l 350 -443 l 350 -260 q 290 -244 325 -250 q 225 -237 256 -237 q 117 -257 168 -237 q 40 -314 65 -276 m 56 425 q 85 413 72 425 q 97 385 97 401 q 85 354 97 367 q 56 342 72 342 q 26 354 38 342 q 14 385 14 367 q 26 413 14 401 q 56 425 38 425 m 401 760 q 431 748 418 760 q 443 717 443 736 q 431 689 443 701 q 401 676 418 676 q 372 689 383 676 q 360 717 360 701 q 372 748 360 736 q 401 760 383 760 m 401 82 q 431 70 418 82 q 443 42 443 58 q 431 11 443 24 q 401 -1 418 -1 q 372 11 383 -1 q 360 42 360 24 q 372 70 360 58 q 401 82 383 82 m 163 178 q 192 166 179 178 q 204 135 204 154 q 192 107 204 119 q 163 94 179 94 q 133 107 144 94 q 121 135 121 119 q 133 166 121 154 q 163 178 144 178 m 82 283 q 114 272 101 283 q 126 240 126 260 q 114 211 126 225 q 82 197 101 197 q 53 211 67 197 q 40 240 40 225 q 53 272 40 260 q 82 283 67 283 m 265 108 q 297 97 285 108 q 310 65 310 85 q 297 36 310 50 q 265 22 285 22 q 238 36 250 22 q 226 65 226 50 q 238 97 226 85 q 265 108 250 108 m 163 583 q 133 595 144 583 q 121 626 121 607 q 133 654 121 642 q 163 667 144 667 q 192 654 179 667 q 204 626 204 642 q 192 595 204 607 q 163 583 179 583 m 82 478 q 53 490 67 478 q 40 521 40 503 q 53 550 40 536 q 82 564 67 564 q 114 550 101 564 q 126 521 126 536 q 114 490 126 503 q 82 478 101 478 m 265 653 q 238 665 250 653 q 226 696 226 676 q 238 725 226 711 q 265 739 250 739 q 297 725 285 739 q 310 696 310 711 q 297 665 310 676 q 265 653 285 653 m 735 425 q 765 413 753 425 q 776 385 776 401 q 765 354 776 367 q 735 342 753 342 q 706 354 718 342 q 693 385 693 367 q 706 413 693 401 q 735 425 718 425 m 628 178 q 658 166 646 178 q 669 135 669 154 q 658 107 669 119 q 628 94 646 94 q 599 107 611 94 q 586 135 586 119 q 599 166 586 154 q 628 178 611 178 m 708 283 q 737 272 724 283 q 750 240 750 260 q 737 211 750 225 q 708 197 724 197 q 676 211 689 197 q 664 240 664 225 q 676 272 664 260 q 708 283 689 283 m 525 108 q 552 97 540 108 q 564 65 564 85 q 552 36 564 50 q 525 22 540 22 q 493 36 506 22 q 481 65 481 50 q 493 97 481 85 q 525 108 506 108 m 628 583 q 599 595 611 583 q 586 626 586 607 q 599 654 586 642 q 628 667 611 667 q 658 654 646 667 q 669 626 669 642 q 658 595 669 607 q 628 583 646 583 m 708 478 q 676 490 689 478 q 664 521 664 503 q 676 550 664 536 q 708 564 689 564 q 737 550 724 564 q 750 521 750 536 q 737 490 750 503 q 708 478 724 478 m 525 653 q 493 665 506 653 q 481 696 481 676 q 493 725 481 711 q 525 739 506 739 q 552 725 540 739 q 564 696 564 711 q 552 665 564 676 q 525 653 540 653 z "},"ၟ":{"ha":915,"x_min":0,"x_max":776,"o":"m 411 -253 q 292 -228 357 -228 q 164 -260 211 -228 q 117 -337 117 -292 q 128 -380 117 -360 q 163 -415 140 -400 q 217 -439 186 -431 q 288 -447 249 -447 q 374 -434 336 -447 q 443 -390 413 -421 l 535 -464 q 510 -488 517 -482 q 496 -500 503 -494 q 403 -550 454 -533 q 293 -567 353 -567 q 88 -501 171 -567 q 0 -339 0 -436 q 88 -176 0 -242 q 296 -112 172 -112 q 340 -116 321 -112 q 356 -119 358 -119 q 356 -61 356 -101 q 356 26 356 -21 l 472 26 l 472 -215 l 411 -253 m 56 425 q 85 413 72 425 q 97 385 97 401 q 85 354 97 367 q 56 342 72 342 q 26 354 38 342 q 14 385 14 367 q 26 413 14 401 q 56 425 38 425 m 401 760 q 431 748 418 760 q 443 717 443 736 q 431 689 443 701 q 401 676 418 676 q 372 689 383 676 q 360 717 360 701 q 372 748 360 736 q 401 760 383 760 m 401 82 q 431 70 418 82 q 443 42 443 58 q 431 11 443 24 q 401 -1 418 -1 q 372 11 383 -1 q 360 42 360 24 q 372 70 360 58 q 401 82 383 82 m 163 178 q 192 166 179 178 q 204 135 204 154 q 192 107 204 119 q 163 94 179 94 q 133 107 144 94 q 121 135 121 119 q 133 166 121 154 q 163 178 144 178 m 82 283 q 114 272 101 283 q 126 240 126 260 q 114 211 126 225 q 82 197 101 197 q 53 211 67 197 q 40 240 40 225 q 53 272 40 260 q 82 283 67 283 m 265 108 q 297 97 285 108 q 310 65 310 85 q 297 36 310 50 q 265 22 285 22 q 238 36 250 22 q 226 65 226 50 q 238 97 226 85 q 265 108 250 108 m 163 583 q 133 595 144 583 q 121 626 121 607 q 133 654 121 642 q 163 667 144 667 q 192 654 179 667 q 204 626 204 642 q 192 595 204 607 q 163 583 179 583 m 82 478 q 53 490 67 478 q 40 521 40 503 q 53 550 40 536 q 82 564 67 564 q 114 550 101 564 q 126 521 126 536 q 114 490 126 503 q 82 478 101 478 m 265 653 q 238 665 250 653 q 226 696 226 676 q 238 725 226 711 q 265 739 250 739 q 297 725 285 739 q 310 696 310 711 q 297 665 310 676 q 265 653 285 653 m 735 425 q 765 413 753 425 q 776 385 776 401 q 765 354 776 367 q 735 342 753 342 q 706 354 718 342 q 693 385 693 367 q 706 413 693 401 q 735 425 718 425 m 628 178 q 658 166 646 178 q 669 135 669 154 q 658 107 669 119 q 628 94 646 94 q 599 107 611 94 q 586 135 586 119 q 599 166 586 154 q 628 178 611 178 m 708 283 q 737 272 724 283 q 750 240 750 260 q 737 211 750 225 q 708 197 724 197 q 676 211 689 197 q 664 240 664 225 q 676 272 664 260 q 708 283 689 283 m 525 108 q 552 97 540 108 q 564 65 564 85 q 552 36 564 50 q 525 22 540 22 q 493 36 506 22 q 481 65 481 50 q 493 97 481 85 q 525 108 506 108 m 628 583 q 599 595 611 583 q 586 626 586 607 q 599 654 586 642 q 628 667 611 667 q 658 654 646 667 q 669 626 669 642 q 658 595 669 607 q 628 583 646 583 m 708 478 q 676 490 689 478 q 664 521 664 503 q 676 550 664 536 q 708 564 689 564 q 737 550 724 564 q 750 521 750 536 q 737 490 750 503 q 708 478 724 478 m 525 653 q 493 665 506 653 q 481 696 481 676 q 493 725 481 711 q 525 739 506 739 q 552 725 540 739 q 564 696 564 711 q 552 665 564 676 q 525 653 540 653 z "},"ၠ":{"ha":915,"x_min":-47,"x_max":776,"o":"m 626 -565 q 322 -566 463 -565 q 29 -567 182 -567 q -26 -535 -6 -554 q -47 -486 -47 -515 q 11 -356 -47 -449 l 11 -365 l 336 57 l 482 57 l 119 -449 l 626 -449 l 626 -565 m 56 425 q 85 413 72 425 q 97 385 97 401 q 85 354 97 367 q 56 342 72 342 q 26 354 38 342 q 14 385 14 367 q 26 413 14 401 q 56 425 38 425 m 401 760 q 431 748 418 760 q 443 717 443 736 q 431 689 443 701 q 401 676 418 676 q 372 689 383 676 q 360 717 360 701 q 372 748 360 736 q 401 760 383 760 m 401 82 q 431 70 418 82 q 443 42 443 58 q 431 11 443 24 q 401 -1 418 -1 q 372 11 383 -1 q 360 42 360 24 q 372 70 360 58 q 401 82 383 82 m 163 178 q 192 166 179 178 q 204 135 204 154 q 192 107 204 119 q 163 94 179 94 q 133 107 144 94 q 121 135 121 119 q 133 166 121 154 q 163 178 144 178 m 82 283 q 114 272 101 283 q 126 240 126 260 q 114 211 126 225 q 82 197 101 197 q 53 211 67 197 q 40 240 40 225 q 53 272 40 260 q 82 283 67 283 m 265 108 q 297 97 285 108 q 310 65 310 85 q 297 36 310 50 q 265 22 285 22 q 238 36 250 22 q 226 65 226 50 q 238 97 226 85 q 265 108 250 108 m 163 583 q 133 595 144 583 q 121 626 121 607 q 133 654 121 642 q 163 667 144 667 q 192 654 179 667 q 204 626 204 642 q 192 595 204 607 q 163 583 179 583 m 82 478 q 53 490 67 478 q 40 521 40 503 q 53 550 40 536 q 82 564 67 564 q 114 550 101 564 q 126 521 126 536 q 114 490 126 503 q 82 478 101 478 m 265 653 q 238 665 250 653 q 226 696 226 676 q 238 725 226 711 q 265 739 250 739 q 297 725 285 739 q 310 696 310 711 q 297 665 310 676 q 265 653 285 653 m 735 425 q 765 413 753 425 q 776 385 776 401 q 765 354 776 367 q 735 342 753 342 q 706 354 718 342 q 693 385 693 367 q 706 413 693 401 q 735 425 718 425 m 628 178 q 658 166 646 178 q 669 135 669 154 q 658 107 669 119 q 628 94 646 94 q 599 107 611 94 q 586 135 586 119 q 599 166 586 154 q 628 178 611 178 m 708 283 q 737 272 724 283 q 750 240 750 260 q 737 211 750 225 q 708 197 724 197 q 676 211 689 197 q 664 240 664 225 q 676 272 664 260 q 708 283 689 283 m 525 108 q 552 97 540 108 q 564 65 564 85 q 552 36 564 50 q 525 22 540 22 q 493 36 506 22 q 481 65 481 50 q 493 97 481 85 q 525 108 506 108 m 628 583 q 599 595 611 583 q 586 626 586 607 q 599 654 586 642 q 628 667 611 667 q 658 654 646 667 q 669 626 669 642 q 658 595 669 607 q 628 583 646 583 m 708 478 q 676 490 689 478 q 664 521 664 503 q 676 550 664 536 q 708 564 689 564 q 737 550 724 564 q 750 521 750 536 q 737 490 750 503 q 708 478 724 478 m 525 653 q 493 665 506 653 q 481 696 481 676 q 493 725 481 711 q 525 739 506 739 q 552 725 540 739 q 564 696 564 711 q 552 665 564 676 q 525 653 540 653 z "},"ၡ":{"ha":931,"x_min":0,"x_max":792,"o":"m 188 -443 l 360 -443 l 360 -12 q 111 96 210 -3 q 0 383 0 207 q 113 667 0 556 q 400 778 228 778 q 682 667 571 778 q 792 390 790 557 l 792 -565 l 676 -565 l 675 390 q 596 579 674 500 q 400 658 518 658 q 199 581 278 658 q 119 422 132 518 q 403 311 292 422 q 438 267 422 290 q 467 209 453 243 q 491 127 481 175 q 513 -1 501 79 l 478 -10 q 477 -238 478 -122 q 476 -476 476 -354 q 379 -565 474 -543 q 290 -565 333 -565 q 188 -564 246 -564 l 188 -443 m 197 182 q 385 106 268 111 q 317 224 364 176 q 226 281 278 260 q 126 303 175 301 q 197 182 147 232 z "},"ၢ":{"ha":1214,"x_min":14,"x_max":1075,"o":"m 958 -12 l 957 658 l 765 658 l 765 776 l 1075 776 l 1075 -12 l 958 -12 m 56 425 q 85 413 72 425 q 97 385 97 401 q 85 354 97 367 q 56 342 72 342 q 26 354 38 342 q 14 385 14 367 q 26 413 14 401 q 56 425 38 425 m 401 760 q 431 748 418 760 q 443 717 443 736 q 431 689 443 701 q 401 676 418 676 q 372 689 383 676 q 360 717 360 701 q 372 748 360 736 q 401 760 383 760 m 401 82 q 431 70 418 82 q 443 42 443 58 q 431 11 443 24 q 401 -1 418 -1 q 372 11 383 -1 q 360 42 360 24 q 372 70 360 58 q 401 82 383 82 m 163 178 q 192 166 179 178 q 204 135 204 154 q 192 107 204 119 q 163 94 179 94 q 133 107 144 94 q 121 135 121 119 q 133 166 121 154 q 163 178 144 178 m 82 283 q 114 272 101 283 q 126 240 126 260 q 114 211 126 225 q 82 197 101 197 q 53 211 67 197 q 40 240 40 225 q 53 272 40 260 q 82 283 67 283 m 265 108 q 297 97 285 108 q 310 65 310 85 q 297 36 310 50 q 265 22 285 22 q 238 36 250 22 q 226 65 226 50 q 238 97 226 85 q 265 108 250 108 m 163 583 q 133 595 144 583 q 121 626 121 607 q 133 654 121 642 q 163 667 144 667 q 192 654 179 667 q 204 626 204 642 q 192 595 204 607 q 163 583 179 583 m 82 478 q 53 490 67 478 q 40 521 40 503 q 53 550 40 536 q 82 564 67 564 q 114 550 101 564 q 126 521 126 536 q 114 490 126 503 q 82 478 101 478 m 265 653 q 238 665 250 653 q 226 696 226 676 q 238 725 226 711 q 265 739 250 739 q 297 725 285 739 q 310 696 310 711 q 297 665 310 676 q 265 653 285 653 m 735 425 q 765 413 753 425 q 776 385 776 401 q 765 354 776 367 q 735 342 753 342 q 706 354 718 342 q 693 385 693 367 q 706 413 693 401 q 735 425 718 425 m 628 178 q 658 166 646 178 q 669 135 669 154 q 658 107 669 119 q 628 94 646 94 q 599 107 611 94 q 586 135 586 119 q 599 166 586 154 q 628 178 611 178 m 708 283 q 737 272 724 283 q 750 240 750 260 q 737 211 750 225 q 708 197 724 197 q 676 211 689 197 q 664 240 664 225 q 676 272 664 260 q 708 283 689 283 m 525 108 q 552 97 540 108 q 564 65 564 85 q 552 36 564 50 q 525 22 540 22 q 493 36 506 22 q 481 65 481 50 q 493 97 481 85 q 525 108 506 108 m 628 583 q 599 595 611 583 q 586 626 586 607 q 599 654 586 642 q 628 667 611 667 q 658 654 646 667 q 669 626 669 642 q 658 595 669 607 q 628 583 646 583 m 708 478 q 676 490 689 478 q 664 521 664 503 q 676 550 664 536 q 708 564 689 564 q 737 550 724 564 q 750 521 750 536 q 737 490 750 503 q 708 478 724 478 m 525 653 q 493 665 506 653 q 481 696 481 676 q 493 725 481 711 q 525 739 506 739 q 552 725 540 739 q 564 696 564 711 q 552 665 564 676 q 525 653 540 653 z "},"ၣ":{"ha":1775,"x_min":14,"x_max":1636,"o":"m 882 -567 l 882 214 l 990 264 q 1019 214 1007 229 q 1049 179 1031 199 q 1249 104 1128 104 q 1442 183 1367 104 q 1521 379 1521 263 q 1442 572 1521 494 q 1249 651 1364 651 q 1050 574 1132 651 q 1019 538 1032 556 q 990 486 1007 519 q 935 512 954 503 q 881 533 915 521 q 919 606 899 578 q 964 658 939 633 q 1249 769 1079 769 q 1526 658 1418 769 q 1636 379 1636 550 q 1608 222 1636 292 q 1525 96 1581 151 q 1249 -14 1415 -14 q 997 64 1100 -14 q 997 -230 997 -67 q 996 -567 996 -393 l 882 -567 m 56 425 q 85 413 72 425 q 97 385 97 401 q 85 354 97 367 q 56 342 72 342 q 26 354 38 342 q 14 385 14 367 q 26 413 14 401 q 56 425 38 425 m 401 760 q 431 748 418 760 q 443 717 443 736 q 431 689 443 701 q 401 676 418 676 q 372 689 383 676 q 360 717 360 701 q 372 748 360 736 q 401 760 383 760 m 401 82 q 431 70 418 82 q 443 42 443 58 q 431 11 443 24 q 401 -1 418 -1 q 372 11 383 -1 q 360 42 360 24 q 372 70 360 58 q 401 82 383 82 m 163 178 q 192 166 179 178 q 204 135 204 154 q 192 107 204 119 q 163 94 179 94 q 133 107 144 94 q 121 135 121 119 q 133 166 121 154 q 163 178 144 178 m 82 283 q 114 272 101 283 q 126 240 126 260 q 114 211 126 225 q 82 197 101 197 q 53 211 67 197 q 40 240 40 225 q 53 272 40 260 q 82 283 67 283 m 265 108 q 297 97 285 108 q 310 65 310 85 q 297 36 310 50 q 265 22 285 22 q 238 36 250 22 q 226 65 226 50 q 238 97 226 85 q 265 108 250 108 m 163 583 q 133 595 144 583 q 121 626 121 607 q 133 654 121 642 q 163 667 144 667 q 192 654 179 667 q 204 626 204 642 q 192 595 204 607 q 163 583 179 583 m 82 478 q 53 490 67 478 q 40 521 40 503 q 53 550 40 536 q 82 564 67 564 q 114 550 101 564 q 126 521 126 536 q 114 490 126 503 q 82 478 101 478 m 265 653 q 238 665 250 653 q 226 696 226 676 q 238 725 226 711 q 265 739 250 739 q 297 725 285 739 q 310 696 310 711 q 297 665 310 676 q 265 653 285 653 m 735 425 q 765 413 753 425 q 776 385 776 401 q 765 354 776 367 q 735 342 753 342 q 706 354 718 342 q 693 385 693 367 q 706 413 693 401 q 735 425 718 425 m 628 178 q 658 166 646 178 q 669 135 669 154 q 658 107 669 119 q 628 94 646 94 q 599 107 611 94 q 586 135 586 119 q 599 166 586 154 q 628 178 611 178 m 708 283 q 737 272 724 283 q 750 240 750 260 q 737 211 750 225 q 708 197 724 197 q 676 211 689 197 q 664 240 664 225 q 676 272 664 260 q 708 283 689 283 m 525 108 q 552 97 540 108 q 564 65 564 85 q 552 36 564 50 q 525 22 540 22 q 493 36 506 22 q 481 65 481 50 q 493 97 481 85 q 525 108 506 108 m 628 583 q 599 595 611 583 q 586 626 586 607 q 599 654 586 642 q 628 667 611 667 q 658 654 646 667 q 669 626 669 642 q 658 595 669 607 q 628 583 646 583 m 708 478 q 676 490 689 478 q 664 521 664 503 q 676 550 664 536 q 708 564 689 564 q 737 550 724 564 q 750 521 750 536 q 737 490 750 503 q 708 478 724 478 m 525 653 q 493 665 506 653 q 481 696 481 676 q 493 725 481 711 q 525 739 506 739 q 552 725 540 739 q 564 696 564 711 q 552 665 564 676 q 525 653 540 653 z "},"ၤ":{"ha":1269,"x_min":14,"x_max":1324,"o":"m 438 -15 l 415 -15 q 438 -15 392 -15 m 56 425 q 85 413 72 425 q 97 385 97 401 q 85 354 97 367 q 56 342 72 342 q 26 354 38 342 q 14 385 14 367 q 26 413 14 401 q 56 425 38 425 m 401 760 q 431 748 418 760 q 443 717 443 736 q 431 689 443 701 q 401 676 418 676 q 372 689 383 676 q 360 717 360 701 q 372 748 360 736 q 401 760 383 760 m 401 82 q 431 70 418 82 q 443 42 443 58 q 431 11 443 24 q 401 -1 418 -1 q 372 11 383 -1 q 360 42 360 24 q 372 70 360 58 q 401 82 383 82 m 163 178 q 192 166 179 178 q 204 135 204 154 q 192 107 204 119 q 163 94 179 94 q 133 107 144 94 q 121 135 121 119 q 133 166 121 154 q 163 178 144 178 m 82 283 q 114 272 101 283 q 126 240 126 260 q 114 211 126 225 q 82 197 101 197 q 53 211 67 197 q 40 240 40 225 q 53 272 40 260 q 82 283 67 283 m 265 108 q 297 97 285 108 q 310 65 310 85 q 297 36 310 50 q 265 22 285 22 q 238 36 250 22 q 226 65 226 50 q 238 97 226 85 q 265 108 250 108 m 163 583 q 133 595 144 583 q 121 626 121 607 q 133 654 121 642 q 163 667 144 667 q 192 654 179 667 q 204 626 204 642 q 192 595 204 607 q 163 583 179 583 m 82 478 q 53 490 67 478 q 40 521 40 503 q 53 550 40 536 q 82 564 67 564 q 114 550 101 564 q 126 521 126 536 q 114 490 126 503 q 82 478 101 478 m 265 653 q 238 665 250 653 q 226 696 226 676 q 238 725 226 711 q 265 739 250 739 q 297 725 285 739 q 310 696 310 711 q 297 665 310 676 q 265 653 285 653 m 735 425 q 765 413 753 425 q 776 385 776 401 q 765 354 776 367 q 735 342 753 342 q 706 354 718 342 q 693 385 693 367 q 706 413 693 401 q 735 425 718 425 m 628 178 q 658 166 646 178 q 669 135 669 154 q 658 107 669 119 q 628 94 646 94 q 599 107 611 94 q 586 135 586 119 q 599 166 586 154 q 628 178 611 178 m 708 283 q 737 272 724 283 q 750 240 750 260 q 737 211 750 225 q 708 197 724 197 q 676 211 689 197 q 664 240 664 225 q 676 272 664 260 q 708 283 689 283 m 525 108 q 552 97 540 108 q 564 65 564 85 q 552 36 564 50 q 525 22 540 22 q 493 36 506 22 q 481 65 481 50 q 493 97 481 85 q 525 108 506 108 m 628 583 q 599 595 611 583 q 586 626 586 607 q 599 654 586 642 q 628 667 611 667 q 658 654 646 667 q 669 626 669 642 q 658 595 669 607 q 628 583 646 583 m 708 478 q 676 490 689 478 q 664 521 664 503 q 676 550 664 536 q 708 564 689 564 q 737 550 724 564 q 750 521 750 536 q 737 490 750 503 q 708 478 724 478 m 525 653 q 493 665 506 653 q 481 696 481 676 q 493 725 481 711 q 525 739 506 739 q 552 725 540 739 q 564 696 564 711 q 552 665 564 676 q 525 653 540 653 m 1324 -14 q 1169 -15 1238 -14 q 1014 -15 1101 -15 l 1013 657 l 821 657 l 821 776 l 1131 776 l 1131 103 l 1324 103 l 1324 -14 z "},"ၥ":{"ha":904,"x_min":0,"x_max":765,"o":"m 114 267 q 140 217 128 232 q 171 182 153 201 q 375 106 251 106 q 568 185 493 106 q 650 383 650 265 q 568 579 650 500 q 375 658 493 658 q 172 581 254 658 q 114 493 138 544 q 57 517 76 508 q 0 542 38 526 q 42 614 21 585 q 88 667 63 643 q 375 778 203 778 q 656 667 544 778 q 765 383 765 557 q 654 97 765 211 q 375 -14 543 -14 q 86 96 194 -14 q 1 217 38 142 l 114 267 z "},"ၦ":{"ha":931,"x_min":0,"x_max":792,"o":"m 217 -449 l 576 -449 l 576 15 q 400 -21 499 -21 q 113 90 228 -21 q 0 374 0 200 q 111 696 0 576 q 163 739 136 721 q 235 779 190 757 q 260 721 250 740 q 282 665 269 701 q 230 636 250 649 q 196 610 210 624 q 118 374 118 521 q 199 176 118 253 q 400 97 279 97 q 596 176 517 97 q 675 374 675 256 q 596 607 675 517 q 558 637 578 622 q 501 668 538 651 l 560 776 q 681 694 632 743 q 792 374 792 568 q 694 103 792 210 q 694 -185 694 -43 q 693 -476 693 -326 q 596 -565 690 -543 l 217 -565 l 217 -449 z "},"ၧ":{"ha":1304,"x_min":14,"x_max":1165,"o":"m 875 131 q 887 186 875 160 q 918 231 899 213 q 965 262 938 250 q 1022 274 992 274 q 1051 272 1047 274 q 1051 506 1051 382 q 1050 775 1050 631 l 1165 775 q 1165 506 1165 610 q 1165 332 1165 401 q 1165 224 1165 263 q 1165 165 1165 185 q 1165 140 1165 146 q 1165 131 1165 133 q 1153 73 1165 100 q 1123 26 1142 46 q 1078 -5 1104 7 q 1022 -17 1051 -17 q 918 26 961 -17 q 875 131 875 69 m 968 131 q 984 92 968 108 q 1022 76 1000 76 q 1061 92 1044 76 q 1078 131 1078 108 q 1061 169 1078 153 q 1022 186 1044 186 q 984 169 1000 186 q 968 131 968 153 m 56 425 q 85 413 72 425 q 97 385 97 401 q 85 354 97 367 q 56 342 72 342 q 26 354 38 342 q 14 385 14 367 q 26 413 14 401 q 56 425 38 425 m 401 760 q 431 748 418 760 q 443 717 443 736 q 431 689 443 701 q 401 676 418 676 q 372 689 383 676 q 360 717 360 701 q 372 748 360 736 q 401 760 383 760 m 401 82 q 431 70 418 82 q 443 42 443 58 q 431 11 443 24 q 401 -1 418 -1 q 372 11 383 -1 q 360 42 360 24 q 372 70 360 58 q 401 82 383 82 m 163 178 q 192 166 179 178 q 204 135 204 154 q 192 107 204 119 q 163 94 179 94 q 133 107 144 94 q 121 135 121 119 q 133 166 121 154 q 163 178 144 178 m 82 283 q 114 272 101 283 q 126 240 126 260 q 114 211 126 225 q 82 197 101 197 q 53 211 67 197 q 40 240 40 225 q 53 272 40 260 q 82 283 67 283 m 265 108 q 297 97 285 108 q 310 65 310 85 q 297 36 310 50 q 265 22 285 22 q 238 36 250 22 q 226 65 226 50 q 238 97 226 85 q 265 108 250 108 m 163 583 q 133 595 144 583 q 121 626 121 607 q 133 654 121 642 q 163 667 144 667 q 192 654 179 667 q 204 626 204 642 q 192 595 204 607 q 163 583 179 583 m 82 478 q 53 490 67 478 q 40 521 40 503 q 53 550 40 536 q 82 564 67 564 q 114 550 101 564 q 126 521 126 536 q 114 490 126 503 q 82 478 101 478 m 265 653 q 238 665 250 653 q 226 696 226 676 q 238 725 226 711 q 265 739 250 739 q 297 725 285 739 q 310 696 310 711 q 297 665 310 676 q 265 653 285 653 m 735 425 q 765 413 753 425 q 776 385 776 401 q 765 354 776 367 q 735 342 753 342 q 706 354 718 342 q 693 385 693 367 q 706 413 693 401 q 735 425 718 425 m 628 178 q 658 166 646 178 q 669 135 669 154 q 658 107 669 119 q 628 94 646 94 q 599 107 611 94 q 586 135 586 119 q 599 166 586 154 q 628 178 611 178 m 708 283 q 737 272 724 283 q 750 240 750 260 q 737 211 750 225 q 708 197 724 197 q 676 211 689 197 q 664 240 664 225 q 676 272 664 260 q 708 283 689 283 m 525 108 q 552 97 540 108 q 564 65 564 85 q 552 36 564 50 q 525 22 540 22 q 493 36 506 22 q 481 65 481 50 q 493 97 481 85 q 525 108 506 108 m 628 583 q 599 595 611 583 q 586 626 586 607 q 599 654 586 642 q 628 667 611 667 q 658 654 646 667 q 669 626 669 642 q 658 595 669 607 q 628 583 646 583 m 708 478 q 676 490 689 478 q 664 521 664 503 q 676 550 664 536 q 708 564 689 564 q 737 550 724 564 q 750 521 750 536 q 737 490 750 503 q 708 478 724 478 m 525 653 q 493 665 506 653 q 481 696 481 676 q 493 725 481 711 q 525 739 506 739 q 552 725 540 739 q 564 696 564 711 q 552 665 564 676 q 525 653 540 653 z "},"ၨ":{"ha":1342,"x_min":14,"x_max":1279,"o":"m 1203 526 l 1203 -14 l 839 -14 l 839 104 l 1086 104 q 1088 301 1086 190 q 1089 526 1089 411 l 1203 526 m 56 425 q 85 413 72 425 q 97 385 97 401 q 85 354 97 367 q 56 342 72 342 q 26 354 38 342 q 14 385 14 367 q 26 413 14 401 q 56 425 38 425 m 401 760 q 431 748 418 760 q 443 717 443 736 q 431 689 443 701 q 401 676 418 676 q 372 689 383 676 q 360 717 360 701 q 372 748 360 736 q 401 760 383 760 m 401 82 q 431 70 418 82 q 443 42 443 58 q 431 11 443 24 q 401 -1 418 -1 q 372 11 383 -1 q 360 42 360 24 q 372 70 360 58 q 401 82 383 82 m 163 178 q 192 166 179 178 q 204 135 204 154 q 192 107 204 119 q 163 94 179 94 q 133 107 144 94 q 121 135 121 119 q 133 166 121 154 q 163 178 144 178 m 82 283 q 114 272 101 283 q 126 240 126 260 q 114 211 126 225 q 82 197 101 197 q 53 211 67 197 q 40 240 40 225 q 53 272 40 260 q 82 283 67 283 m 265 108 q 297 97 285 108 q 310 65 310 85 q 297 36 310 50 q 265 22 285 22 q 238 36 250 22 q 226 65 226 50 q 238 97 226 85 q 265 108 250 108 m 163 583 q 133 595 144 583 q 121 626 121 607 q 133 654 121 642 q 163 667 144 667 q 192 654 179 667 q 204 626 204 642 q 192 595 204 607 q 163 583 179 583 m 82 478 q 53 490 67 478 q 40 521 40 503 q 53 550 40 536 q 82 564 67 564 q 114 550 101 564 q 126 521 126 536 q 114 490 126 503 q 82 478 101 478 m 265 653 q 238 665 250 653 q 226 696 226 676 q 238 725 226 711 q 265 739 250 739 q 297 725 285 739 q 310 696 310 711 q 297 665 310 676 q 265 653 285 653 m 735 425 q 765 413 753 425 q 776 385 776 401 q 765 354 776 367 q 735 342 753 342 q 706 354 718 342 q 693 385 693 367 q 706 413 693 401 q 735 425 718 425 m 628 178 q 658 166 646 178 q 669 135 669 154 q 658 107 669 119 q 628 94 646 94 q 599 107 611 94 q 586 135 586 119 q 599 166 586 154 q 628 178 611 178 m 708 283 q 737 272 724 283 q 750 240 750 260 q 737 211 750 225 q 708 197 724 197 q 676 211 689 197 q 664 240 664 225 q 676 272 664 260 q 708 283 689 283 m 525 108 q 552 97 540 108 q 564 65 564 85 q 552 36 564 50 q 525 22 540 22 q 493 36 506 22 q 481 65 481 50 q 493 97 481 85 q 525 108 506 108 m 628 583 q 599 595 611 583 q 586 626 586 607 q 599 654 586 642 q 628 667 611 667 q 658 654 646 667 q 669 626 669 642 q 658 595 669 607 q 628 583 646 583 m 708 478 q 676 490 689 478 q 664 521 664 503 q 676 550 664 536 q 708 564 689 564 q 737 550 724 564 q 750 521 750 536 q 737 490 750 503 q 708 478 724 478 m 525 653 q 493 665 506 653 q 481 696 481 676 q 493 725 481 711 q 525 739 506 739 q 552 725 540 739 q 564 696 564 711 q 552 665 564 676 q 525 653 540 653 m 986 736 q 998 792 986 765 q 1030 839 1010 819 q 1077 870 1050 858 q 1135 882 1104 882 q 1191 870 1164 882 q 1237 839 1218 858 q 1267 792 1256 819 q 1279 736 1279 765 q 1268 678 1279 706 q 1238 631 1257 651 q 1191 599 1218 611 q 1135 588 1164 588 q 1077 599 1104 588 q 1030 631 1050 611 q 998 678 1010 651 q 986 736 986 706 m 1081 736 q 1097 698 1081 714 q 1135 682 1113 682 q 1174 698 1157 682 q 1192 736 1192 714 q 1174 776 1192 758 q 1135 793 1157 793 q 1097 776 1113 793 q 1081 736 1081 758 z "},"ၩ":{"ha":1349,"x_min":14,"x_max":1210,"o":"m 849 703 q 985 743 915 743 q 1075 726 1033 743 q 1147 678 1117 708 q 1193 606 1176 649 q 1210 515 1210 564 q 1192 435 1207 474 q 1156 365 1178 397 q 1110 302 1135 332 q 1060 246 1085 272 q 1028 210 1046 232 q 997 174 1011 188 q 985 152 988 161 q 986 138 983 143 q 1001 126 989 132 q 1040 118 1014 119 q 1060 122 1049 119 q 1083 160 1071 125 l 1182 160 q 1160 75 1178 101 q 1117 35 1142 49 q 1068 17 1093 21 q 1024 14 1043 14 q 898 54 940 14 q 856 149 856 94 q 886 248 856 203 q 958 336 917 293 l 969 349 q 1003 384 986 367 q 1033 420 1019 401 q 1058 463 1047 439 q 1074 517 1068 486 q 1046 582 1069 554 q 985 610 1022 610 q 919 586 954 610 l 849 703 m 56 425 q 85 413 72 425 q 97 385 97 401 q 85 354 97 367 q 56 342 72 342 q 26 354 38 342 q 14 385 14 367 q 26 413 14 401 q 56 425 38 425 m 401 760 q 431 748 418 760 q 443 717 443 736 q 431 689 443 701 q 401 676 418 676 q 372 689 383 676 q 360 717 360 701 q 372 748 360 736 q 401 760 383 760 m 401 82 q 431 70 418 82 q 443 42 443 58 q 431 11 443 24 q 401 -1 418 -1 q 372 11 383 -1 q 360 42 360 24 q 372 70 360 58 q 401 82 383 82 m 163 178 q 192 166 179 178 q 204 135 204 154 q 192 107 204 119 q 163 94 179 94 q 133 107 144 94 q 121 135 121 119 q 133 166 121 154 q 163 178 144 178 m 82 283 q 114 272 101 283 q 126 240 126 260 q 114 211 126 225 q 82 197 101 197 q 53 211 67 197 q 40 240 40 225 q 53 272 40 260 q 82 283 67 283 m 265 108 q 297 97 285 108 q 310 65 310 85 q 297 36 310 50 q 265 22 285 22 q 238 36 250 22 q 226 65 226 50 q 238 97 226 85 q 265 108 250 108 m 163 583 q 133 595 144 583 q 121 626 121 607 q 133 654 121 642 q 163 667 144 667 q 192 654 179 667 q 204 626 204 642 q 192 595 204 607 q 163 583 179 583 m 82 478 q 53 490 67 478 q 40 521 40 503 q 53 550 40 536 q 82 564 67 564 q 114 550 101 564 q 126 521 126 536 q 114 490 126 503 q 82 478 101 478 m 265 653 q 238 665 250 653 q 226 696 226 676 q 238 725 226 711 q 265 739 250 739 q 297 725 285 739 q 310 696 310 711 q 297 665 310 676 q 265 653 285 653 m 735 425 q 765 413 753 425 q 776 385 776 401 q 765 354 776 367 q 735 342 753 342 q 706 354 718 342 q 693 385 693 367 q 706 413 693 401 q 735 425 718 425 m 628 178 q 658 166 646 178 q 669 135 669 154 q 658 107 669 119 q 628 94 646 94 q 599 107 611 94 q 586 135 586 119 q 599 166 586 154 q 628 178 611 178 m 708 283 q 737 272 724 283 q 750 240 750 260 q 737 211 750 225 q 708 197 724 197 q 676 211 689 197 q 664 240 664 225 q 676 272 664 260 q 708 283 689 283 m 525 108 q 552 97 540 108 q 564 65 564 85 q 552 36 564 50 q 525 22 540 22 q 493 36 506 22 q 481 65 481 50 q 493 97 481 85 q 525 108 506 108 m 628 583 q 599 595 611 583 q 586 626 586 607 q 599 654 586 642 q 628 667 611 667 q 658 654 646 667 q 669 626 669 642 q 658 595 669 607 q 628 583 646 583 m 708 478 q 676 490 689 478 q 664 521 664 503 q 676 550 664 536 q 708 564 689 564 q 737 550 724 564 q 750 521 750 536 q 737 490 750 503 q 708 478 724 478 m 525 653 q 493 665 506 653 q 481 696 481 676 q 493 725 481 711 q 525 739 506 739 q 552 725 540 739 q 564 696 564 711 q 552 665 564 676 q 525 653 540 653 z "},"ၪ":{"ha":1343,"x_min":14,"x_max":1204,"o":"m 996 -12 q 936 1 971 -12 q 876 40 901 15 q 835 99 851 65 q 818 183 819 132 l 942 182 q 967 129 949 146 q 1013 113 986 113 q 1063 134 1042 113 q 1089 189 1085 156 q 1088 475 1089 329 q 1088 776 1088 621 l 1204 776 l 1204 181 q 1188 105 1204 140 q 1147 44 1172 69 q 1085 3 1121 18 q 996 -12 1050 -12 m 56 425 q 85 413 72 425 q 97 385 97 401 q 85 354 97 367 q 56 342 72 342 q 26 354 38 342 q 14 385 14 367 q 26 413 14 401 q 56 425 38 425 m 401 760 q 431 748 418 760 q 443 717 443 736 q 431 689 443 701 q 401 676 418 676 q 372 689 383 676 q 360 717 360 701 q 372 748 360 736 q 401 760 383 760 m 401 82 q 431 70 418 82 q 443 42 443 58 q 431 11 443 24 q 401 -1 418 -1 q 372 11 383 -1 q 360 42 360 24 q 372 70 360 58 q 401 82 383 82 m 163 178 q 192 166 179 178 q 204 135 204 154 q 192 107 204 119 q 163 94 179 94 q 133 107 144 94 q 121 135 121 119 q 133 166 121 154 q 163 178 144 178 m 82 283 q 114 272 101 283 q 126 240 126 260 q 114 211 126 225 q 82 197 101 197 q 53 211 67 197 q 40 240 40 225 q 53 272 40 260 q 82 283 67 283 m 265 108 q 297 97 285 108 q 310 65 310 85 q 297 36 310 50 q 265 22 285 22 q 238 36 250 22 q 226 65 226 50 q 238 97 226 85 q 265 108 250 108 m 163 583 q 133 595 144 583 q 121 626 121 607 q 133 654 121 642 q 163 667 144 667 q 192 654 179 667 q 204 626 204 642 q 192 595 204 607 q 163 583 179 583 m 82 478 q 53 490 67 478 q 40 521 40 503 q 53 550 40 536 q 82 564 67 564 q 114 550 101 564 q 126 521 126 536 q 114 490 126 503 q 82 478 101 478 m 265 653 q 238 665 250 653 q 226 696 226 676 q 238 725 226 711 q 265 739 250 739 q 297 725 285 739 q 310 696 310 711 q 297 665 310 676 q 265 653 285 653 m 735 425 q 765 413 753 425 q 776 385 776 401 q 765 354 776 367 q 735 342 753 342 q 706 354 718 342 q 693 385 693 367 q 706 413 693 401 q 735 425 718 425 m 628 178 q 658 166 646 178 q 669 135 669 154 q 658 107 669 119 q 628 94 646 94 q 599 107 611 94 q 586 135 586 119 q 599 166 586 154 q 628 178 611 178 m 708 283 q 737 272 724 283 q 750 240 750 260 q 737 211 750 225 q 708 197 724 197 q 676 211 689 197 q 664 240 664 225 q 676 272 664 260 q 708 283 689 283 m 525 108 q 552 97 540 108 q 564 65 564 85 q 552 36 564 50 q 525 22 540 22 q 493 36 506 22 q 481 65 481 50 q 493 97 481 85 q 525 108 506 108 m 628 583 q 599 595 611 583 q 586 626 586 607 q 599 654 586 642 q 628 667 611 667 q 658 654 646 667 q 669 626 669 642 q 658 595 669 607 q 628 583 646 583 m 708 478 q 676 490 689 478 q 664 521 664 503 q 676 550 664 536 q 708 564 689 564 q 737 550 724 564 q 750 521 750 536 q 737 490 750 503 q 708 478 724 478 m 525 653 q 493 665 506 653 q 481 696 481 676 q 493 725 481 711 q 525 739 506 739 q 552 725 540 739 q 564 696 564 711 q 552 665 564 676 q 525 653 540 653 z "},"ၫ":{"ha":1343,"x_min":14,"x_max":1204,"o":"m 1010 776 q 1085 761 1050 776 q 1147 720 1121 746 q 1188 659 1172 694 q 1204 583 1204 624 l 1204 -12 l 1088 -12 q 1088 289 1088 143 q 1089 575 1089 435 q 1063 630 1085 608 q 1013 651 1042 651 q 967 635 986 651 q 942 582 949 618 l 818 581 q 835 665 819 632 q 876 724 851 699 q 936 763 901 749 q 1010 776 971 776 m 56 425 q 85 413 72 425 q 97 385 97 401 q 85 354 97 367 q 56 342 72 342 q 26 354 38 342 q 14 385 14 367 q 26 413 14 401 q 56 425 38 425 m 401 760 q 431 748 418 760 q 443 717 443 736 q 431 689 443 701 q 401 676 418 676 q 372 689 383 676 q 360 717 360 701 q 372 748 360 736 q 401 760 383 760 m 401 82 q 431 70 418 82 q 443 42 443 58 q 431 11 443 24 q 401 -1 418 -1 q 372 11 383 -1 q 360 42 360 24 q 372 70 360 58 q 401 82 383 82 m 163 178 q 192 166 179 178 q 204 135 204 154 q 192 107 204 119 q 163 94 179 94 q 133 107 144 94 q 121 135 121 119 q 133 166 121 154 q 163 178 144 178 m 82 283 q 114 272 101 283 q 126 240 126 260 q 114 211 126 225 q 82 197 101 197 q 53 211 67 197 q 40 240 40 225 q 53 272 40 260 q 82 283 67 283 m 265 108 q 297 97 285 108 q 310 65 310 85 q 297 36 310 50 q 265 22 285 22 q 238 36 250 22 q 226 65 226 50 q 238 97 226 85 q 265 108 250 108 m 163 583 q 133 595 144 583 q 121 626 121 607 q 133 654 121 642 q 163 667 144 667 q 192 654 179 667 q 204 626 204 642 q 192 595 204 607 q 163 583 179 583 m 82 478 q 53 490 67 478 q 40 521 40 503 q 53 550 40 536 q 82 564 67 564 q 114 550 101 564 q 126 521 126 536 q 114 490 126 503 q 82 478 101 478 m 265 653 q 238 665 250 653 q 226 696 226 676 q 238 725 226 711 q 265 739 250 739 q 297 725 285 739 q 310 696 310 711 q 297 665 310 676 q 265 653 285 653 m 735 425 q 765 413 753 425 q 776 385 776 401 q 765 354 776 367 q 735 342 753 342 q 706 354 718 342 q 693 385 693 367 q 706 413 693 401 q 735 425 718 425 m 628 178 q 658 166 646 178 q 669 135 669 154 q 658 107 669 119 q 628 94 646 94 q 599 107 611 94 q 586 135 586 119 q 599 166 586 154 q 628 178 611 178 m 708 283 q 737 272 724 283 q 750 240 750 260 q 737 211 750 225 q 708 197 724 197 q 676 211 689 197 q 664 240 664 225 q 676 272 664 260 q 708 283 689 283 m 525 108 q 552 97 540 108 q 564 65 564 85 q 552 36 564 50 q 525 22 540 22 q 493 36 506 22 q 481 65 481 50 q 493 97 481 85 q 525 108 506 108 m 628 583 q 599 595 611 583 q 586 626 586 607 q 599 654 586 642 q 628 667 611 667 q 658 654 646 667 q 669 626 669 642 q 658 595 669 607 q 628 583 646 583 m 708 478 q 676 490 689 478 q 664 521 664 503 q 676 550 664 536 q 708 564 689 564 q 737 550 724 564 q 750 521 750 536 q 737 490 750 503 q 708 478 724 478 m 525 653 q 493 665 506 653 q 481 696 481 676 q 493 725 481 711 q 525 739 506 739 q 552 725 540 739 q 564 696 564 711 q 552 665 564 676 q 525 653 540 653 z "}}}
